<svg width="100%" height="100%" viewBox="0 0 41 41" fill="none" xmlns="http://www.w3.org/2000/svg">
<path fill-rule="evenodd" clip-rule="evenodd" d="M20.3182 2.8351C10.6625 2.8351 2.8351 10.6625 2.8351 20.3182C2.8351 29.9738 10.6625 37.8013 20.3182 37.8013C29.9738 37.8013 37.8013 29.9738 37.8013 20.3182C37.8013 10.6625 29.9738 2.8351 20.3182 2.8351ZM0 20.3182C0 9.09676 9.09676 0 20.3182 0C31.5397 0 40.6364 9.09676 40.6364 20.3182C40.6364 31.5397 31.5397 40.6364 20.3182 40.6364C9.09676 40.6364 0 31.5397 0 20.3182Z" fill="#FF7A5A"/>
<path fill-rule="evenodd" clip-rule="evenodd" d="M20.3022 12.2854C18.4699 12.2854 16.9879 13.7682 16.9879 15.593C16.9879 17.4179 18.4699 18.9006 20.3022 18.9006C22.1346 18.9006 23.6166 17.4179 23.6166 15.593C23.6166 13.7682 22.1346 12.2854 20.3022 12.2854ZM14.1528 15.593C14.1528 12.1986 16.9078 9.45032 20.3022 9.45032C23.6965 9.45032 26.4517 12.1986 26.4517 15.593C26.4517 18.9874 23.6965 21.7357 20.3022 21.7357C16.9078 21.7357 14.1528 18.9874 14.1528 15.593ZM27.7811 30.7292C23.9139 26.5331 16.7137 26.6885 12.8382 30.7474C12.2976 31.3136 11.4003 31.3344 10.834 30.7939C10.2678 30.2531 10.247 29.3559 10.7877 28.7896C15.7264 23.6169 24.8243 23.3376 29.8659 28.8078C30.3964 29.3835 30.3599 30.2803 29.7842 30.8109C29.2085 31.3414 28.3117 31.3049 27.7811 30.7292Z" fill="#FF7A5A"/>
</svg>
