<svg width="40" height="31" viewBox="0 0 40 31" fill="none" xmlns="http://www.w3.org/2000/svg">
<path d="M35.7099 0H4.2901C1.9246 0 0 1.9047 0 4.24573V26.7543C0 29.0953 1.9246 31 4.2901 31H35.7099C38.0754 31 40 29.0953 40 26.7543V4.24573C40 1.9047 38.0754 0 35.7099 0ZM10.8351 11.867L3.83387 19.3201V5.99296L10.8351 11.867ZM7.14185 3.79421H32.908L22.2696 12.8339C21.9585 13.0983 21.5617 13.2437 21.1514 13.2437H19.0345C18.6288 13.2437 18.2345 13.1002 17.9246 12.8409L7.14185 3.79421ZM36.1661 6.02648V19.3201L29.2211 11.9277L36.1661 6.02648ZM35.7099 27.2058H4.2901C4.03834 27.2058 3.83387 27.0034 3.83387 26.7543V24.8932L13.7623 14.3232L15.4447 15.7346C16.446 16.5757 17.7208 17.0379 19.0339 17.0379H21.1508C22.476 17.0379 23.7604 16.5674 24.7661 15.7125L26.3099 14.4009L36.1661 24.8932V26.7543C36.1661 27.0028 35.961 27.2058 35.7099 27.2058Z" fill="black"/>
</svg>
