<svg width="100%" height="100%" viewBox="0 0 28 28" fill="none" xmlns="http://www.w3.org/2000/svg">
<path d="M14.0001 28C6.28031 28 6.10352e-05 21.7198 6.10352e-05 14C6.10352e-05 6.28025 6.28031 0 14.0001 0C21.7198 0 28.0001 6.28025 28.0001 14C28.0001 21.7198 21.7198 28 14.0001 28ZM14.0001 2.27026C7.53209 2.27026 2.27032 7.53203 2.27032 14C2.27032 20.468 7.53209 25.7297 14.0001 25.7297C20.468 25.7297 25.7298 20.468 25.7298 14C25.7298 7.53203 20.468 2.27026 14.0001 2.27026Z" fill="#FF7A5A"/>
<path d="M14.368 10.144C13.888 10.144 13.4933 10.0053 13.184 9.728C12.8853 9.44 12.736 9.088 12.736 8.672C12.736 8.24533 12.8853 7.89333 13.184 7.616C13.4933 7.328 13.888 7.184 14.368 7.184C14.8373 7.184 15.2213 7.328 15.52 7.616C15.8293 7.89333 15.984 8.24533 15.984 8.672C15.984 9.088 15.8293 9.44 15.52 9.728C15.2213 10.0053 14.8373 10.144 14.368 10.144ZM15.728 11.072V20H12.992V11.072H15.728Z" fill="#FF7A5A"/>
</svg>
