<svg width="100%" height="100%" viewBox="0 0 48 48" fill="none" xmlns="http://www.w3.org/2000/svg">
<path d="M3.2 20C3.2 10.6883 10.5755 3.2 19.6 3.2C28.6245 3.2 36 10.6883 36 20C36 20.8837 36.7163 21.6 37.6 21.6C38.4836 21.6 39.2 20.8837 39.2 20C39.2 8.98767 30.4577 0 19.6 0C8.74223 0 0 8.98759 0 20C0 27.0323 4.49701 33.7521 8.85343 38.6619C11.2534 41.3667 13.6977 43.6184 15.5388 45.1922C16.4607 45.9804 17.2349 46.6015 17.7814 47.0277C18.0547 47.2408 18.2713 47.4054 18.4213 47.5179C18.4962 47.5741 18.5545 47.6173 18.595 47.6472L18.6421 47.6817L18.6553 47.6913L18.6614 47.6957C19.377 48.2141 20.3774 48.0542 20.8957 47.3385C21.4141 46.6231 21.2538 45.6226 20.5385 45.1042L20.5376 45.1035L20.5297 45.0976L20.4932 45.0709C20.4599 45.0464 20.4089 45.0087 20.3415 44.958C20.2066 44.8568 20.006 44.7044 19.7493 44.5043C19.2357 44.1038 18.4992 43.513 17.6181 42.7599C15.8532 41.2511 13.5227 39.1028 11.2471 36.5381C6.98455 31.7341 3.2 25.7853 3.2 20Z" fill="black"/>
<path fill-rule="evenodd" clip-rule="evenodd" d="M19.6 9.60004C13.929 9.60004 9.3913 14.2896 9.3913 20C9.3913 25.7104 13.929 30.4 19.6 30.4C25.271 30.4 29.8087 25.7104 29.8087 20C29.8087 14.2896 25.271 9.60004 19.6 9.60004ZM12.5913 20C12.5913 15.9903 15.7622 12.8 19.6 12.8C23.4378 12.8 26.6087 15.9903 26.6087 20C26.6087 24.0098 23.4378 27.2 19.6 27.2C15.7622 27.2 12.5913 24.0098 12.5913 20Z" fill="black"/>
<path fill-rule="evenodd" clip-rule="evenodd" d="M36.2238 25.9704C35.6306 25.4766 34.7694 25.4766 34.1762 25.9704L22.9762 35.2962C22.2971 35.8616 22.205 36.8705 22.7704 37.5495C23.3358 38.2286 24.3447 38.3207 25.0238 37.7553L25.6941 37.1971V46.4C25.6941 47.2837 26.4105 48 27.2941 48H43.1058C43.5302 48 43.9372 47.8314 44.2373 47.5314C44.5373 47.2313 44.7058 46.8243 44.7058 46.4V37.1971L45.3761 37.7553C46.0553 38.3207 47.0641 38.2286 47.6295 37.5495C48.1949 36.8705 48.1029 35.8616 47.4237 35.2962L36.2238 25.9704ZM28.8941 44.8V34.5326L35.2 29.282L41.5058 34.5326V44.8H28.8941Z" fill="black"/>
</svg>
