<svg width="100%" height="100%" viewBox="0 0 22 22" fill="none" xmlns="http://www.w3.org/2000/svg">
<path d="M15.6809 22H6.31915C4.64378 21.9981 3.03757 21.3318 1.8529 20.1471C0.668237 18.9624 0.00187079 17.3562 0 15.6809V6.31915C0.00187079 4.64378 0.668237 3.03757 1.8529 1.8529C3.03757 0.668237 4.64378 0.00187079 6.31915 0H15.6809C17.3562 0.00187079 18.9624 0.668237 20.1471 1.8529C21.3318 3.03757 21.9981 4.64378 22 6.31915V15.6809C21.9981 17.3562 21.3318 18.9624 20.1471 20.1471C18.9624 21.3318 17.3562 21.9981 15.6809 22ZM6.31915 1.40426C5.01609 1.40572 3.76681 1.924 2.84541 2.84541C1.924 3.76681 1.40572 5.01609 1.40426 6.31915V15.6809C1.40572 16.9839 1.924 18.2332 2.84541 19.1546C3.76681 20.076 5.01609 20.5943 6.31915 20.5957H15.6809C16.9839 20.5943 18.2332 20.076 19.1546 19.1546C20.076 18.2332 20.5943 16.9839 20.5957 15.6809V6.31915C20.5943 5.01609 20.076 3.76681 19.1546 2.84541C18.2332 1.924 16.9839 1.40572 15.6809 1.40426H6.31915Z" fill="white"/>
<path d="M10.9999 16.4566C9.93243 16.4567 8.88893 16.1402 8.00134 15.5472C7.11376 14.9542 6.42196 14.1113 6.01343 13.1251C5.6049 12.1389 5.49799 11.0537 5.70623 10.0068C5.91446 8.95985 6.42849 7.99816 7.18329 7.24335C7.9381 6.48854 8.89979 5.97452 9.94674 5.76629C10.9937 5.55805 12.0789 5.66496 13.0651 6.07349C14.0513 6.48201 14.8942 7.17382 15.4872 8.0614C16.0802 8.94899 16.3966 9.99249 16.3966 11.0599C16.395 12.4908 15.8259 13.8625 14.8142 14.8742C13.8024 15.886 12.4307 16.4551 10.9999 16.4566ZM10.9999 7.06728C10.2102 7.06721 9.43819 7.30133 8.78154 7.74002C8.12489 8.17871 7.61308 8.80227 7.31082 9.53185C7.00857 10.2614 6.92945 11.0642 7.08348 11.8388C7.2375 12.6133 7.61775 13.3248 8.17614 13.8832C8.73452 14.4417 9.44596 14.822 10.2205 14.9761C10.995 15.1302 11.7979 15.0511 12.5275 14.7489C13.2571 14.4467 13.8807 13.935 14.3194 13.2783C14.7581 12.6217 14.9923 11.8498 14.9923 11.06C14.9912 10.0015 14.5702 8.98666 13.8217 8.23813C13.0732 7.48961 12.0584 7.06853 10.9999 7.06728Z" fill="white"/>
<path d="M16.9961 5.77148C16.9349 5.76991 16.8739 5.76365 16.8136 5.75275C16.6927 5.72993 16.5779 5.6821 16.4766 5.61233C16.4245 5.57995 16.3771 5.54058 16.3358 5.49531C16.2918 5.45281 16.2526 5.40573 16.2187 5.35488C16.1542 5.25079 16.1068 5.137 16.0783 5.01786C16.0533 4.89744 16.0533 4.77317 16.0783 4.65275C16.0922 4.59203 16.1109 4.53254 16.1345 4.47488C16.158 4.41952 16.1861 4.36627 16.2187 4.31573C16.2538 4.26432 16.2929 4.21579 16.3358 4.17063C16.3785 4.12818 16.4257 4.09051 16.4766 4.05829C16.5274 4.02221 16.5824 3.99235 16.6404 3.96935C16.6958 3.94512 16.7539 3.92782 16.8136 3.91786C16.9342 3.89457 17.0581 3.89457 17.1787 3.91786C17.2398 3.9278 17.2995 3.94509 17.3566 3.96935C17.413 3.9925 17.4664 4.02236 17.5157 4.05829C17.568 4.09034 17.6167 4.12801 17.6608 4.17063C17.7023 4.21696 17.7413 4.26539 17.7778 4.31573C17.8105 4.36627 17.8388 4.41951 17.8624 4.47488C17.8866 4.53188 17.9038 4.59161 17.9136 4.65275C17.9268 4.71268 17.9331 4.77394 17.9323 4.83531C17.9326 5.08255 17.835 5.31985 17.6608 5.49531C17.618 5.54078 17.5692 5.58016 17.5157 5.61233C17.4654 5.64657 17.4121 5.67633 17.3566 5.70126C17.2988 5.72335 17.2393 5.74057 17.1787 5.75275C17.1184 5.76361 17.0574 5.76986 16.9961 5.77148Z" fill="white"/>
<path d="M13.3541 11.762C13.1679 11.762 12.9893 11.6881 12.8576 11.5564C12.726 11.4247 12.652 11.2461 12.652 11.0599C12.6515 10.6219 12.4774 10.2019 12.1677 9.89218C11.8579 9.58243 11.438 9.40818 11 9.40767C10.8138 9.40767 10.6352 9.3337 10.5035 9.20202C10.3718 9.07035 10.2979 8.89176 10.2979 8.70555C10.2979 8.51933 10.3718 8.34074 10.5035 8.20907C10.6352 8.07739 10.8138 8.00342 11 8.00342C11.8103 8.00433 12.5872 8.32667 13.1602 8.89971C13.7332 9.47274 14.0554 10.2497 14.0562 11.06C14.0562 11.2462 13.9822 11.4248 13.8506 11.5564C13.7189 11.6881 13.5403 11.762 13.3541 11.762Z" fill="white"/>
<path d="M21.2979 11.7622H15.6946C15.5083 11.7622 15.3298 11.6882 15.1981 11.5565C15.0664 11.4248 14.9924 11.2463 14.9924 11.06C14.9924 10.8738 15.0664 10.6952 15.1981 10.5636C15.3298 10.4319 15.5083 10.3579 15.6946 10.3579H21.2979C21.4841 10.3579 21.6627 10.4319 21.7943 10.5636C21.926 10.6952 22 10.8738 22 11.06C22 11.2463 21.926 11.4248 21.7943 11.5565C21.6627 11.6882 21.4841 11.7622 21.2979 11.7622Z" fill="white"/>
<path d="M6.30543 11.7622H0.702128C0.515912 11.7622 0.337323 11.6882 0.205648 11.5565C0.0739739 11.4248 0 11.2463 0 11.06C0 10.8738 0.0739739 10.6952 0.205648 10.5636C0.337323 10.4319 0.515912 10.3579 0.702128 10.3579H6.30543C6.49165 10.3579 6.67024 10.4319 6.80191 10.5636C6.93359 10.6952 7.00756 10.8738 7.00756 11.06C7.00756 11.2463 6.93359 11.4248 6.80191 11.5565C6.67024 11.6882 6.49165 11.7622 6.30543 11.7622Z" fill="white"/>
</svg>
