<svg width="34" height="46" viewBox="0 0 34 46" fill="none" xmlns="http://www.w3.org/2000/svg">
<path d="M9.2609 2.87446C9.33416 2.83322 9.31508 2.80736 9.57242 2.92864C9.82976 3.05054 10.2386 3.3676 10.64 3.80226C11.4409 4.67895 12.245 6.00692 12.6636 6.88361C12.6766 6.91254 12.6926 6.93779 12.7079 6.96303C13.8888 8.99838 14.3973 10.5529 14.4133 11.5318C14.4299 12.5082 14.1695 12.93 13.3396 13.4065L11.1934 14.6415C9.79713 15.4449 9.13838 16.8849 8.97462 18.2283C8.80962 19.5723 9.05527 20.8781 9.65307 21.9105L14.9415 31.0259C15.543 32.0559 16.5589 32.9203 17.8105 33.451C19.0621 33.9823 20.645 34.1325 22.0407 33.3297L24.1893 32.1008C25.0192 31.6243 25.5142 31.6108 26.357 32.1131C27.2023 32.6155 28.2988 33.8284 29.4796 35.8625C29.4962 35.892 29.5122 35.9173 29.5313 35.9462C30.0842 36.7429 30.8371 38.0998 31.2004 39.2295C31.3808 39.7922 31.4516 40.3007 31.4288 40.5858C31.4035 40.8677 31.3974 40.8357 31.3229 40.8801L29.6945 41.8146C25.6004 43.5939 21.8498 43.1937 18.4951 41.4502C15.1306 39.706 12.2062 36.5477 10.1708 32.8433C10.1634 32.8365 10.161 32.8267 10.1542 32.8211L5.69687 25.1359C5.69318 25.1261 5.68702 25.1199 5.68394 25.1094C3.47744 21.5042 2.18456 17.4051 2.34463 13.6367C2.50593 9.87384 4.04015 6.44095 7.63926 3.80103L9.2609 2.87446ZM10.5667 0.830491C9.86178 0.501116 8.89028 0.404458 8.09546 0.862505L6.37225 1.85433C6.33284 1.87649 6.29775 1.89927 6.26266 1.92143C2.11315 4.95784 0.202154 9.18431 0.0162258 13.5419C-0.171549 17.8971 1.28386 22.3919 3.68614 26.3211L8.12194 33.9613C8.1244 33.9613 8.12809 33.9613 8.12809 33.9644L8.13425 33.9841C10.3537 38.0062 13.5354 41.4957 17.4146 43.5114C21.3 45.5276 25.9291 45.9949 30.6475 43.9374C30.6894 43.9214 30.7282 43.9023 30.7663 43.8826L32.4908 42.8914C33.2856 42.4334 33.687 41.5542 33.7523 40.7828C33.8194 40.0083 33.6624 39.2634 33.4241 38.5233C32.9574 37.0612 32.1497 35.6482 31.4774 34.6712C30.2042 32.4893 28.9822 30.9699 27.5637 30.1252C26.1354 29.2744 24.4208 29.2867 23.022 30.0901L20.8734 31.322C20.2399 31.6865 19.5023 31.6477 18.7272 31.3189C17.949 30.989 17.2324 30.3271 16.9621 29.866L11.6736 20.7506C11.4065 20.2901 11.1916 19.3395 11.2913 18.5078C11.3935 17.6723 11.7278 17.0204 12.3613 16.6553L14.5038 15.4234C15.9032 14.6205 16.775 13.1522 16.7485 11.4942C16.7196 9.84737 16.0091 8.02626 14.7378 5.83084C14.2231 4.76945 13.4006 3.36822 12.3675 2.24157C11.8436 1.66778 11.271 1.15987 10.5667 0.830491Z" fill="black"/>
</svg>
