<svg width="100%" height="100%" viewBox="0 0 26 26" fill="none" xmlns="http://www.w3.org/2000/svg">
<path d="M13 26C20.1797 26 26 20.1797 26 13C26 5.8203 20.1797 0 13 0C5.8203 0 0 5.8203 0 13C0 20.1797 5.8203 26 13 26Z" fill="#FF7A5A"/>
<path fill-rule="evenodd" clip-rule="evenodd" d="M13 4.38721C9.68877 4.38721 7 7.07598 7 10.3872C7 12.3444 7.89652 14.4378 8.992 16.2386C10.5907 18.8646 12.5897 20.862 12.5897 20.862C12.8165 21.0889 13.1835 21.0889 13.4103 20.862C13.4103 20.862 15.4093 18.8646 17.008 16.2386C18.1035 14.4378 19 12.3444 19 10.3872C19 7.07598 16.3112 4.38721 13 4.38721ZM13 7.67753C14.2821 7.67753 15.3226 8.71805 15.3226 10.0001C15.3226 11.2822 14.2821 12.3227 13 12.3227C11.7179 12.3227 10.6774 11.2822 10.6774 10.0001C10.6774 8.71805 11.7179 7.67753 13 7.67753Z" fill="white"/>
</svg>
