<svg width="100%" height="100%" viewBox="0 0 26 26" fill="none" xmlns="http://www.w3.org/2000/svg">
<path d="M13 26C20.1797 26 26 20.1797 26 13C26 5.8203 20.1797 0 13 0C5.8203 0 0 5.8203 0 13C0 20.1797 5.8203 26 13 26Z" fill="#FF7A5A"/>
<path d="M14.0899 15.5523C13.5983 16.044 12.8016 16.044 12.3101 15.5523L5.64723 8.88965V17.4405C5.64723 18.1327 6.21387 18.6992 6.9059 18.6992H19.4937C20.1859 18.6992 20.7528 18.1327 20.7528 17.4405V8.88965L14.0899 15.5523Z" fill="white"/>
<path d="M6.53716 8L13.2006 14.6627L19.864 8H6.53716Z" fill="white"/>
</svg>
