<svg width="100%" height="100%" viewBox="0 0 18 18" fill="none" xmlns="http://www.w3.org/2000/svg">
<path d="M17.1 9.45C16.8613 9.45 16.6324 9.54482 16.4636 9.7136C16.2948 9.88239 16.2 10.1113 16.2 10.35V15.3C16.2 15.5387 16.1052 15.7676 15.9364 15.9364C15.7676 16.1052 15.5387 16.2 15.3 16.2H2.7C2.46131 16.2 2.23239 16.1052 2.0636 15.9364C1.89482 15.7676 1.8 15.5387 1.8 15.3V2.7C1.8 2.46131 1.89482 2.23239 2.0636 2.0636C2.23239 1.89482 2.46131 1.8 2.7 1.8H7.65C7.88869 1.8 8.11761 1.70518 8.2864 1.5364C8.45518 1.36761 8.55 1.13869 8.55 0.9C8.55 0.661305 8.45518 0.432387 8.2864 0.263604C8.11761 0.0948213 7.88869 0 7.65 0H2.7C1.98392 0 1.29716 0.284464 0.790812 0.790812C0.284464 1.29716 0 1.98392 0 2.7V15.3C0 16.0161 0.284464 16.7028 0.790812 17.2092C1.29716 17.7155 1.98392 18 2.7 18H15.3C16.0161 18 16.7028 17.7155 17.2092 17.2092C17.7155 16.7028 18 16.0161 18 15.3V10.35C18 10.1113 17.9052 9.88239 17.7364 9.7136C17.5676 9.54482 17.3387 9.45 17.1 9.45Z" fill="white"/>
<path d="M7.2 5.4C7.2 5.6387 7.29482 5.86761 7.4636 6.0364C7.63238 6.20518 7.8613 6.3 8.1 6.3H11.7V9.9C11.7 10.1387 11.7948 10.3676 11.9636 10.5364C12.1324 10.7052 12.3613 10.8 12.6 10.8C12.8387 10.8 13.0676 10.7052 13.2364 10.5364C13.4052 10.3676 13.5 10.1387 13.5 9.9V6.3H17.1C17.3387 6.3 17.5676 6.20518 17.7364 6.0364C17.9052 5.86761 18 5.6387 18 5.4C18 5.16131 17.9052 4.93239 17.7364 4.7636C17.5676 4.59482 17.3387 4.5 17.1 4.5H13.5V0.9C13.5 0.661305 13.4052 0.432387 13.2364 0.263604C13.0676 0.0948213 12.8387 0 12.6 0C12.3613 0 12.1324 0.0948213 11.9636 0.263604C11.7948 0.432387 11.7 0.661305 11.7 0.9V4.5H8.1C7.8613 4.5 7.63238 4.59482 7.4636 4.7636C7.29482 4.93239 7.2 5.16131 7.2 5.4Z" fill="white"/>
</svg>
