<svg width="100%" height="100%" viewBox="0 0 26 26" fill="none" xmlns="http://www.w3.org/2000/svg">
<path d="M13 26C20.1797 26 26 20.1797 26 13C26 5.8203 20.1797 0 13 0C5.8203 0 0 5.8203 0 13C0 20.1797 5.8203 26 13 26Z" fill="#FF7A5A"/>
<path fill-rule="evenodd" clip-rule="evenodd" d="M8.63195 4.74805H8.55492C8.42168 4.75225 8.29017 4.7795 8.16624 4.82859L8.13211 4.84209C7.59784 5.05365 6.02235 5.63667 5.63367 6.0253C5.05411 6.60486 4.78791 7.32474 4.75242 8.13912C4.71286 9.04907 4.96915 9.99629 5.30746 10.8333C6.16485 12.9543 7.77461 15.0117 9.38184 16.6188C10.9891 18.2258 13.0462 19.8357 15.1675 20.6934C15.9518 21.0103 16.8241 21.2523 17.6756 21.2523C17.7377 21.2523 17.7998 21.2509 17.8619 21.2483C18.6762 21.2128 19.3962 20.9466 19.9756 20.367C20.3729 19.9697 20.9459 18.4153 21.1573 17.8726L21.1707 17.8382C21.273 17.5817 21.2793 17.2967 21.1883 17.0359C21.0973 16.7751 20.9152 16.5559 20.6754 16.4186L17.853 14.7891C17.5884 14.637 17.2743 14.596 16.9795 14.675C16.6847 14.754 16.4332 14.9466 16.2802 15.2106C16.0009 15.6941 15.5782 16.0864 15.0167 16.2008C14.7527 16.2585 14.4794 16.2577 14.2158 16.1985C13.9522 16.1393 13.7047 16.0231 13.4908 15.8581C12.8619 15.377 12.2676 14.8524 11.7121 14.2882C11.148 13.7328 10.6235 13.1386 10.1425 12.5099C9.97754 12.2959 9.86135 12.0484 9.80212 11.7848C9.7429 11.5212 9.74208 11.2478 9.79972 10.9838C9.91448 10.4224 10.3069 9.99944 10.7904 9.7204C11.0542 9.56715 11.2466 9.31569 11.3256 9.02099C11.4046 8.72628 11.3637 8.41229 11.2118 8.14765L9.58242 5.32533C9.48644 5.15598 9.3487 5.01402 9.18233 4.91298C9.01595 4.81193 8.82648 4.75515 8.63195 4.74805ZM13.1199 5.40637C13.1199 5.31992 13.137 5.23431 13.17 5.15444C13.2031 5.07457 13.2516 5.00199 13.3127 4.94085C13.3738 4.87972 13.4464 4.83123 13.5263 4.79815C13.6062 4.76506 13.6918 4.74804 13.7782 4.74805C14.7596 4.74804 15.7315 4.94134 16.6382 5.31692C17.5449 5.6925 18.3688 6.24299 19.0627 6.93697C19.7567 7.63096 20.3071 8.45483 20.6827 9.36156C21.0583 10.2683 21.2515 11.2401 21.2515 12.2215C21.2523 12.3084 21.2358 12.3947 21.2031 12.4752C21.1703 12.5557 21.122 12.629 21.0608 12.6907C20.9996 12.7524 20.9268 12.8014 20.8465 12.8349C20.7663 12.8683 20.6802 12.8855 20.5933 12.8855C20.5064 12.8855 20.4203 12.8683 20.3401 12.8349C20.2598 12.8014 20.187 12.7524 20.1258 12.6907C20.0646 12.629 20.0163 12.5557 19.9835 12.4752C19.9508 12.3947 19.9343 12.3084 19.9351 12.2215C19.9351 11.413 19.7759 10.6123 19.4665 9.86532C19.1571 9.11831 18.7036 8.43955 18.1319 7.86782C17.5602 7.29608 16.8814 6.84255 16.1344 6.53314C15.3874 6.22372 14.5868 6.06448 13.7782 6.0645C13.6918 6.06451 13.6062 6.04749 13.5263 6.01441C13.4465 5.98133 13.3739 5.93285 13.3128 5.87173C13.2516 5.81061 13.2031 5.73804 13.1701 5.65818C13.137 5.57831 13.1199 5.49272 13.1199 5.40627V5.40637ZM13.1199 8.0732C13.1199 7.98676 13.1369 7.90116 13.17 7.82129C13.2031 7.74142 13.2516 7.66885 13.3127 7.60772C13.3738 7.54659 13.4464 7.49809 13.5262 7.465C13.6061 7.43192 13.6917 7.41488 13.7781 7.41488C14.4094 7.41484 15.0344 7.53915 15.6176 7.78069C16.2008 8.02224 16.7307 8.37629 17.177 8.82264C17.6234 9.26898 17.9774 9.79887 18.219 10.3821C18.4605 10.9652 18.5848 11.5903 18.5848 12.2215C18.5848 12.3961 18.5154 12.5635 18.392 12.687C18.2685 12.8104 18.1011 12.8798 17.9265 12.8798C17.752 12.8798 17.5845 12.8104 17.4611 12.687C17.3377 12.5635 17.2683 12.3961 17.2683 12.2215C17.2683 11.7632 17.178 11.3094 17.0027 10.8859C16.8273 10.4625 16.5702 10.0777 16.2461 9.75365C15.922 9.42957 15.5373 9.17249 15.1138 8.9971C14.6904 8.8217 14.2366 8.73143 13.7782 8.73143C13.6918 8.73144 13.6062 8.71442 13.5263 8.68134C13.4465 8.64826 13.3739 8.59978 13.3128 8.53866C13.2516 8.47754 13.2031 8.40497 13.1701 8.32511C13.137 8.24524 13.1199 8.15965 13.1199 8.0732ZM13.1199 10.7399C13.1199 10.6535 13.137 10.5679 13.1701 10.488C13.2031 10.4082 13.2516 10.3356 13.3128 10.2745C13.3739 10.2134 13.4465 10.1649 13.5263 10.1318C13.6062 10.0987 13.6918 10.0817 13.7782 10.0817C14.0592 10.0817 14.3375 10.137 14.5971 10.2446C14.8567 10.3521 15.0926 10.5097 15.2913 10.7084C15.49 10.9071 15.6476 11.143 15.7551 11.4026C15.8626 11.6623 15.918 11.9405 15.9179 12.2215C15.9179 12.3961 15.8486 12.5635 15.7252 12.687C15.6017 12.8104 15.4343 12.8798 15.2597 12.8798C15.0851 12.8798 14.9177 12.8104 14.7943 12.687C14.6708 12.5635 14.6015 12.3961 14.6015 12.2215C14.6015 12.0032 14.5148 11.7937 14.3604 11.6393C14.206 11.4849 13.9966 11.3981 13.7782 11.3981C13.6918 11.3981 13.6062 11.3811 13.5263 11.348C13.4464 11.3149 13.3739 11.2664 13.3127 11.2053C13.2516 11.1442 13.2031 11.0716 13.17 10.9917C13.137 10.9119 13.1199 10.8263 13.1199 10.7398V10.7399Z" fill="white"/>
</svg>
