<svg width="100%" height="100%" viewBox="0 0 40 40" fill="none" xmlns="http://www.w3.org/2000/svg">
<path d="M40 20C40 8.9543 31.0457 3.70216e-07 20 2.38498e-07C8.95431 1.06779e-07 3.70216e-07 8.9543 2.38498e-07 20C1.06779e-07 31.0457 8.9543 40 20 40C31.0457 40 40 31.0457 40 20Z" fill="#FF7A5A"/>
<path d="M19.1163 13.7065C19.3507 13.4721 19.6686 13.3405 20.0001 13.3405C20.3316 13.3405 20.6495 13.4721 20.8839 13.7065L30.1407 22.9632C30.3728 23.1981 30.5025 23.5152 30.5015 23.8455C30.5005 24.1757 30.3689 24.492 30.1354 24.7255C29.9019 24.959 29.5855 25.0906 29.2553 25.0917C28.9251 25.0927 28.6079 24.963 28.373 24.7309L20.0001 16.3581L11.6271 24.7309C11.5114 24.8487 11.3736 24.9424 11.2215 25.0066C11.0694 25.0708 10.906 25.1042 10.741 25.105C10.5759 25.1057 10.4122 25.0737 10.2596 25.0109C10.1069 24.9481 9.96819 24.8556 9.85145 24.7388C9.73471 24.6221 9.64225 24.4834 9.57942 24.3307C9.51658 24.178 9.48462 24.0144 9.48536 23.8493C9.48611 23.6842 9.51956 23.5209 9.58377 23.3688C9.64798 23.2167 9.74169 23.0788 9.85948 22.9632L19.1163 13.7065Z" fill="white"/>
</svg>
