<svg width="100%" height="100%" viewBox="0 0 53 53" fill="none" xmlns="http://www.w3.org/2000/svg">
<path d="M0.999999 26.5C0.999998 12.4167 12.4167 1 26.5 0.999999C40.5833 0.999998 52 12.4167 52 26.5C52 40.5833 40.5833 52 26.5 52C12.4167 52 1 40.5833 0.999999 26.5Z" stroke="#FF7A5A" stroke-width="2"/>
<path d="M10.9845 26.9004C10.9804 26.4904 11.1363 26.0953 11.4181 25.7979L11.4181 25.7969L25.3829 11.832C25.5296 11.6854 25.704 11.5687 25.8956 11.4893C26.0872 11.4099 26.2928 11.3691 26.5001 11.3691C26.7075 11.3692 26.913 11.4099 27.1046 11.4893C27.2483 11.5488 27.3823 11.6293 27.5021 11.7275L27.6173 11.832L41.5802 25.7969C41.8628 26.0945 42.0198 26.4897 42.0157 26.9004C42.0116 27.3139 41.8452 27.7094 41.5529 28.002C41.2603 28.2945 40.864 28.4607 40.4503 28.4648C40.0368 28.4689 39.6373 28.3119 39.339 28.0254L28.9337 17.6191L28.0802 16.7656L28.0802 40.8779C28.0802 41.0855 28.0395 41.2916 27.9601 41.4834C27.8806 41.6751 27.764 41.8494 27.6173 41.9961C27.4706 42.1428 27.2963 42.2595 27.1046 42.3389C26.913 42.4182 26.7075 42.459 26.5001 42.459C26.2925 42.459 26.0864 42.4183 25.8947 42.3389C25.703 42.2594 25.5287 42.1428 25.382 41.9961C25.2352 41.8493 25.1186 41.6751 25.0392 41.4834C24.9597 41.2916 24.9191 41.0855 24.9191 40.8779L24.9191 16.7656L13.6603 28.0244C13.3619 28.3111 12.9627 28.469 12.5489 28.4648C12.1354 28.4606 11.7399 28.2944 11.4474 28.002C11.155 27.7094 10.9886 27.314 10.9845 26.9004Z" fill="#FF7A5A" stroke="#FF7A5A"/>
</svg>
