<svg width="100%" height="100%" viewBox="0 0 389 303" fill="none" xmlns="http://www.w3.org/2000/svg">
<path d="M304.616 15.8139V20.8612H1.03213V15.8139C1.03182 13.7831 1.43159 11.7721 2.20862 9.89577C2.98564 8.01947 4.12469 6.31463 5.5607 4.87861C6.99672 3.4426 8.70156 2.30355 10.5779 1.52653C12.4542 0.749505 14.4652 0.34973 16.496 0.350037H289.152C291.183 0.34973 293.194 0.749505 295.07 1.52653C296.946 2.30355 298.651 3.4426 300.087 4.87861C301.523 6.31463 302.662 8.01947 303.439 9.89577C304.216 11.7721 304.616 13.7831 304.616 15.8139Z" fill="#4A154B"/>
<path d="M380.666 32.6405H350.128C345.899 32.6405 342.471 36.0683 342.471 40.2966V80.7262C342.471 84.9545 345.899 88.3823 350.128 88.3823H380.666C384.894 88.3823 388.322 84.9545 388.322 80.7262V40.2966C388.322 36.0683 384.894 32.6405 380.666 32.6405Z" fill="white"/>
<path d="M380.666 88.73H350.127C348.005 88.7275 345.97 87.8832 344.469 86.3823C342.968 84.8814 342.124 82.8465 342.121 80.7239V40.2966C342.124 38.174 342.968 36.1391 344.469 34.6382C345.97 33.1373 348.005 32.293 350.127 32.2905H380.666C382.788 32.293 384.823 33.1373 386.324 34.6382C387.825 36.1391 388.669 38.174 388.672 40.2966V80.7262C388.669 82.8484 387.824 84.8828 386.323 86.3832C384.822 87.8836 382.788 88.7275 380.666 88.73ZM350.127 32.9906C348.191 32.993 346.334 33.7636 344.964 35.1332C343.594 36.5028 342.824 38.3597 342.821 40.2966V80.7262C342.824 82.6629 343.595 84.5196 344.964 85.8888C346.334 87.2581 348.191 88.0281 350.127 88.03H380.666C382.603 88.0281 384.46 87.2578 385.83 85.888C387.199 84.5183 387.97 82.661 387.972 80.7239V40.2966C387.97 38.3595 387.199 36.5023 385.83 35.1325C384.46 33.7628 382.603 32.9924 380.666 32.9906H350.127Z" fill="#292929"/>
<path d="M361.088 76.1292C359.083 76.1292 357.424 75.7629 356.155 75.0395C354.915 74.3519 353.925 73.2902 353.324 72.006C352.715 70.6424 352.413 69.1614 352.44 67.6681V64.7583C352.44 63.7129 352.337 63.2555 352.251 63.0548C352.188 62.9078 352.078 62.7608 351.728 62.7608H350.923C350.831 62.7602 350.742 62.7231 350.676 62.6576C350.611 62.5921 350.574 62.5034 350.573 62.4108V58.5816C350.574 58.4889 350.611 58.4003 350.676 58.3348C350.742 58.2693 350.831 58.2322 350.923 58.2316H351.728C352.078 58.2316 352.195 58.0869 352.251 57.9445C352.337 57.7462 352.44 57.2912 352.44 56.2341V53.2753C352.413 51.7872 352.715 50.3115 353.324 48.9537C353.924 47.6823 354.912 46.6341 356.146 45.9599C357.417 45.2458 359.076 44.8842 361.078 44.8842C361.171 44.8842 361.26 44.921 361.326 44.9867C361.392 45.0523 361.428 45.1413 361.428 45.2342V48.6434C361.428 48.7362 361.392 48.8252 361.326 48.8909C361.26 48.9565 361.171 48.9934 361.078 48.9934C359.608 48.9934 358.535 49.3411 357.882 50.0271C357.228 50.7131 356.892 51.8332 356.892 53.3406V56.4278C356.928 57.3753 356.702 58.3142 356.239 59.1416C355.923 59.6796 355.493 60.1416 354.979 60.495C355.494 60.8491 355.925 61.3109 356.244 61.8484C356.706 62.6768 356.932 63.6164 356.897 64.5646V67.6518C356.897 69.1592 357.231 70.2746 357.886 70.9653C358.542 71.656 359.613 71.9967 361.083 71.9967C361.176 71.9967 361.265 72.0335 361.331 72.0992C361.396 72.1648 361.433 72.2539 361.433 72.3467V75.7885C361.431 75.8789 361.393 75.9649 361.329 76.0284C361.265 76.0919 361.178 76.1281 361.088 76.1292ZM351.273 62.0514H351.74C351.985 62.0329 352.23 62.0924 352.44 62.2215C352.65 62.3506 352.813 62.5426 352.907 62.7701C353.07 63.1552 353.14 63.8015 353.14 64.7489V67.6751C353.114 69.066 353.393 70.4457 353.959 71.7166C354.499 72.8663 355.388 73.8161 356.5 74.4305C357.59 75.0512 359.016 75.3872 360.738 75.4245V72.692C359.244 72.636 358.117 72.2253 357.385 71.4483C356.601 70.6223 356.202 69.3482 356.202 67.6518V64.5646C356.236 63.7457 356.046 62.9329 355.651 62.2148C355.324 61.6524 354.847 61.1931 354.272 60.8894C354.214 60.86 354.166 60.8153 354.132 60.7601C354.098 60.7049 354.08 60.6414 354.08 60.5767V60.4157C354.08 60.351 354.098 60.2875 354.132 60.2323C354.166 60.1771 354.214 60.1323 354.272 60.103C354.846 59.7986 355.324 59.3395 355.651 58.7776C356.046 58.0595 356.236 57.2467 356.202 56.4278V53.3406C356.202 51.6465 356.601 50.3701 357.385 49.5441C358.117 48.774 359.251 48.3563 360.738 48.3003V45.5889C359.013 45.6285 357.59 45.9575 356.498 46.5689C355.388 47.1712 354.499 48.111 353.959 49.2524C353.392 50.5164 353.112 51.8903 353.14 53.2753V56.2341C353.14 57.1932 353.058 57.8442 352.893 58.2246C352.796 58.4486 352.631 58.6367 352.422 58.7623C352.213 58.8878 351.969 58.9446 351.726 58.9246H351.259L351.273 62.0514Z" fill="#292929"/>
<path d="M369.705 76.1292C369.612 76.1292 369.523 76.0924 369.458 76.0267C369.392 75.9611 369.355 75.872 369.355 75.7792V72.3467C369.356 72.254 369.393 72.1654 369.458 72.0999C369.524 72.0343 369.613 71.9973 369.705 71.9967C371.175 71.9967 372.251 71.649 372.902 70.9653C373.553 70.2816 373.891 69.1592 373.891 67.6518V64.5646C373.856 63.6164 374.082 62.6768 374.545 61.8484C374.863 61.3103 375.296 60.8484 375.812 60.495C375.295 60.1429 374.862 59.6807 374.545 59.1416C374.082 58.3142 373.856 57.3753 373.891 56.4278V53.3406C373.891 51.8332 373.558 50.7178 372.902 50.0271C372.246 49.3364 371.175 48.9934 369.705 48.9934C369.612 48.9934 369.523 48.9565 369.458 48.8909C369.392 48.8252 369.355 48.7362 369.355 48.6434V45.2342C369.356 45.1415 369.393 45.0529 369.458 44.9873C369.524 44.9218 369.613 44.8848 369.705 44.8842C371.71 44.8842 373.369 45.2458 374.638 45.9599C375.875 46.6325 376.866 47.6809 377.469 48.9537C378.079 50.3112 378.381 51.7871 378.353 53.2753V56.2341C378.353 57.2912 378.456 57.7485 378.542 57.9445C378.605 58.0869 378.715 58.2316 379.065 58.2316H379.87C379.963 58.2316 380.052 58.2684 380.117 58.3341C380.183 58.3997 380.22 58.4887 380.22 58.5816V62.4108C380.22 62.5036 380.183 62.5927 380.117 62.6583C380.052 62.7239 379.963 62.7608 379.87 62.7608H379.065C378.717 62.7608 378.598 62.9078 378.542 63.0548C378.456 63.2555 378.353 63.7129 378.353 64.7583V67.6844C378.38 69.1778 378.078 70.6587 377.469 72.0223C376.869 73.3059 375.879 74.3675 374.641 75.0558C373.369 75.7722 371.71 76.1292 369.705 76.1292ZM370.055 72.6827V75.4292C371.78 75.3919 373.203 75.0558 374.293 74.4351C375.405 73.8208 376.294 72.871 376.834 71.7213C377.4 70.4503 377.679 69.0707 377.653 67.6798V64.7583C377.653 63.8109 377.735 63.1645 377.9 62.7795C377.994 62.5519 378.158 62.3599 378.367 62.2308C378.577 62.1017 378.822 62.0422 379.067 62.0608H379.534V58.9316H379.067C378.824 58.9516 378.58 58.8948 378.371 58.7693C378.162 58.6437 377.997 58.4556 377.9 58.2316C377.735 57.8512 377.653 57.2002 377.653 56.2411V53.2753C377.68 51.8906 377.401 50.5169 376.836 49.2524C376.295 48.1113 375.405 47.1717 374.295 46.5689C373.203 45.9575 371.78 45.6355 370.055 45.5889V48.3003C371.549 48.3563 372.676 48.767 373.408 49.5441C374.192 50.3701 374.592 51.6442 374.592 53.3406V56.4278C374.557 57.2467 374.747 58.0595 375.142 58.7776C375.469 59.3401 375.948 59.7994 376.524 60.103C376.581 60.1328 376.629 60.1776 376.663 60.2327C376.697 60.2878 376.715 60.3511 376.715 60.4157V60.5767C376.715 60.6413 376.697 60.7046 376.663 60.7597C376.629 60.8148 376.581 60.8596 376.524 60.8894C375.948 61.1924 375.469 61.6518 375.142 62.2148C374.747 62.9329 374.557 63.7457 374.592 64.5646V67.6518C374.592 69.3459 374.192 70.6223 373.408 71.4483C372.676 72.2183 371.546 72.629 370.055 72.692V72.6827Z" fill="#292929"/>
<path d="M351.607 42.4014C351.561 42.4015 351.515 42.3924 351.473 42.3748C351.431 42.3572 351.392 42.3313 351.36 42.2987L348.016 38.9548C347.983 38.9222 347.958 38.8835 347.94 38.8409C347.922 38.7983 347.913 38.7527 347.914 38.7067C347.914 38.6606 347.923 38.6151 347.941 38.5726C347.958 38.5301 347.984 38.4915 348.017 38.459C348.05 38.4265 348.088 38.4008 348.131 38.3832C348.173 38.3657 348.219 38.3568 348.265 38.3569C348.311 38.357 348.357 38.3662 348.399 38.3839C348.442 38.4016 348.48 38.4275 348.513 38.4602L351.854 41.804C351.919 41.8699 351.956 41.9588 351.956 42.0513C351.956 42.1439 351.919 42.2328 351.854 42.2987C351.788 42.3637 351.7 42.4005 351.607 42.4014Z" fill="#292929"/>
<path d="M348.263 42.4014C348.17 42.4005 348.082 42.3637 348.016 42.2987C347.951 42.2328 347.914 42.1439 347.914 42.0513C347.914 41.9588 347.951 41.8699 348.016 41.804L351.36 38.4602C351.426 38.3983 351.514 38.3647 351.604 38.3663C351.695 38.3679 351.782 38.4046 351.846 38.4687C351.91 38.5329 351.947 38.6194 351.948 38.7101C351.95 38.8007 351.916 38.8885 351.854 38.9548L348.513 42.294C348.447 42.3613 348.357 42.3999 348.263 42.4014Z" fill="#292929"/>
<path d="M21.215 42.6752C21.543 41.2855 20.6823 39.893 19.2926 39.565C17.9028 39.237 16.5103 40.0977 16.1823 41.4874C15.8543 42.8771 16.715 44.2696 18.1048 44.5976C19.4945 44.9256 20.887 44.065 21.215 42.6752Z" fill="#FF7A5A"/>
<path d="M122.683 40.0768H27.0391V44.0974H122.683V40.0768Z" fill="#E7ECF2"/>
<path d="M18.7109 55.3004C20.1388 55.3004 21.2964 54.1428 21.2964 52.7149C21.2964 51.287 20.1388 50.1294 18.7109 50.1294C17.283 50.1294 16.1255 51.287 16.1255 52.7149C16.1255 54.1428 17.283 55.3004 18.7109 55.3004Z" fill="#FF7A5A"/>
<path d="M122.683 50.7058H27.0391V54.7264H122.683V50.7058Z" fill="#E7ECF2"/>
<path d="M18.7109 65.9293C20.1388 65.9293 21.2964 64.7718 21.2964 63.3438C21.2964 61.9159 20.1388 60.7584 18.7109 60.7584C17.283 60.7584 16.1255 61.9159 16.1255 63.3438C16.1255 64.7718 17.283 65.9293 18.7109 65.9293Z" fill="#FF7A5A"/>
<path d="M122.683 61.3323H27.0391V65.3529H122.683V61.3323Z" fill="#E7ECF2"/>
<path d="M18.7109 76.5558C20.1388 76.5558 21.2964 75.3983 21.2964 73.9704C21.2964 72.5424 20.1388 71.3849 18.7109 71.3849C17.283 71.3849 16.1255 72.5424 16.1255 73.9704C16.1255 75.3983 17.283 76.5558 18.7109 76.5558Z" fill="#FF7A5A"/>
<path d="M122.683 71.959H27.0391V75.9795H122.683V71.959Z" fill="#E7ECF2"/>
<path d="M260.622 110.418H164.978V114.439H260.622V110.418Z" fill="#E7ECF2"/>
<path d="M18.7109 87.1824C20.1388 87.1824 21.2964 86.0249 21.2964 84.5969C21.2964 83.169 20.1388 82.0115 18.7109 82.0115C17.283 82.0115 16.1255 83.169 16.1255 84.5969C16.1255 86.0249 17.283 87.1824 18.7109 87.1824Z" fill="#FF7A5A"/>
<path d="M122.683 82.5878H27.0391V86.6084H122.683V82.5878Z" fill="#E7ECF2"/>
<path d="M260.622 121.047H164.978V125.068H260.622V121.047Z" fill="#E7ECF2"/>
<path d="M47.5329 186.697C47.7614 185.283 46.8006 183.952 45.387 183.723C43.9733 183.495 42.6421 184.456 42.4137 185.869C42.1852 187.283 43.146 188.614 44.5596 188.843C45.9733 189.071 47.3044 188.11 47.5329 186.697Z" fill="#FF7A5A"/>
<path d="M290.253 184.603H53.5841V188.623H290.253V184.603Z" fill="#E7ECF2"/>
<path d="M46.3729 199.634C47.6937 199.092 48.3244 197.581 47.7816 196.26C47.2389 194.94 45.7282 194.309 44.4074 194.852C43.0867 195.394 42.456 196.905 42.9988 198.226C43.5415 199.547 45.0522 200.177 46.3729 199.634Z" fill="#FF7A5A"/>
<path d="M290.253 195.229H53.5841V199.25H290.253V195.229Z" fill="#E7ECF2"/>
<path d="M45.2559 158.897C46.6838 158.897 47.8414 157.74 47.8414 156.312C47.8414 154.884 46.6838 153.726 45.2559 153.726C43.828 153.726 42.6704 154.884 42.6704 156.312C42.6704 157.74 43.828 158.897 45.2559 158.897Z" fill="#FF7A5A"/>
<path d="M290.253 154.3H53.5841V158.321H290.253V154.3Z" fill="#E7ECF2"/>
<path d="M45.2559 169.524C46.6838 169.524 47.8414 168.366 47.8414 166.938C47.8414 165.51 46.6838 164.353 45.2559 164.353C43.828 164.353 42.6704 165.51 42.6704 166.938C42.6704 168.366 43.828 169.524 45.2559 169.524Z" fill="#FF7A5A"/>
<path d="M290.253 164.927H53.5841V168.947H290.253V164.927Z" fill="#E7ECF2"/>
<path d="M36.6384 150.854H15.6723V172.396H36.6384V150.854Z" fill="#E7ECF2"/>
<path d="M36.6384 172.602C36.5446 172.601 36.4548 172.563 36.3887 172.497L15.4226 151.243C15.3573 151.177 15.321 151.088 15.3216 150.995C15.3223 150.902 15.3599 150.813 15.4261 150.748C15.4923 150.682 15.5817 150.646 15.6747 150.647C15.7677 150.647 15.8566 150.685 15.9219 150.751L36.8881 172.007C36.9537 172.072 36.9905 172.161 36.9905 172.254C36.9905 172.347 36.9537 172.436 36.8881 172.501C36.8213 172.566 36.7316 172.602 36.6384 172.602Z" fill="#292929"/>
<path d="M15.5276 172.459C15.4338 172.459 15.344 172.421 15.2779 172.354C15.2124 172.289 15.1756 172.2 15.1756 172.107C15.1756 172.014 15.2124 171.925 15.2779 171.86L36.5311 150.891C36.5639 150.859 36.6027 150.833 36.6454 150.816C36.6881 150.799 36.7337 150.79 36.7798 150.79C36.8258 150.79 36.8713 150.8 36.9137 150.818C36.9562 150.836 36.9946 150.862 37.027 150.895C37.0593 150.927 37.0848 150.966 37.1022 151.009C37.1195 151.052 37.1282 151.097 37.1279 151.143C37.1276 151.189 37.1182 151.235 37.1003 151.277C37.0823 151.32 37.0562 151.358 37.0235 151.39L15.7703 172.357C15.7054 172.42 15.6186 172.457 15.5276 172.459Z" fill="#292929"/>
<path d="M36.6384 181.156H15.6723V202.699H36.6384V181.156Z" fill="#E7ECF2"/>
<path d="M36.6384 202.904C36.5446 202.903 36.4548 202.866 36.3887 202.799L15.4226 181.546C15.3573 181.48 15.321 181.39 15.3216 181.297C15.3223 181.204 15.3599 181.115 15.4261 181.05C15.4923 180.985 15.5817 180.948 15.6747 180.949C15.7677 180.95 15.8566 180.987 15.9219 181.053L36.8881 202.309C36.9537 202.375 36.9905 202.464 36.9905 202.556C36.9905 202.649 36.9537 202.738 36.8881 202.804C36.8213 202.869 36.7316 202.905 36.6384 202.904Z" fill="#292929"/>
<path d="M15.5276 202.759C15.4342 202.759 15.3448 202.722 15.2779 202.657C15.2124 202.591 15.1756 202.502 15.1756 202.409C15.1756 202.317 15.2124 202.228 15.2779 202.162L36.5311 181.193C36.5639 181.161 36.6027 181.136 36.6454 181.118C36.6881 181.101 36.7337 181.092 36.7798 181.092C36.8258 181.093 36.8713 181.102 36.9137 181.12C36.9562 181.138 36.9946 181.164 37.027 181.197C37.0593 181.23 37.0848 181.269 37.1022 181.311C37.1195 181.354 37.1282 181.4 37.1279 181.446C37.1276 181.492 37.1182 181.537 37.1003 181.58C37.0823 181.622 37.0562 181.66 37.0235 181.693L15.7703 202.659C15.7052 202.722 15.6184 202.758 15.5276 202.759Z" fill="#292929"/>
<path d="M208.08 251.811H169.501V291.447H208.08V251.811Z" fill="#4A154B"/>
<path d="M208.08 291.534C208.034 291.534 207.988 291.525 207.945 291.507C207.902 291.49 207.863 291.464 207.831 291.431L169.251 252.322C169.19 252.255 169.157 252.168 169.159 252.077C169.161 251.986 169.198 251.9 169.262 251.836C169.327 251.772 169.413 251.736 169.504 251.735C169.595 251.733 169.682 251.768 169.748 251.83L208.328 290.939C208.36 290.971 208.386 291.009 208.404 291.052C208.422 291.094 208.431 291.14 208.431 291.186C208.431 291.232 208.422 291.278 208.404 291.32C208.386 291.362 208.36 291.401 208.328 291.433C208.295 291.466 208.257 291.491 208.214 291.508C208.172 291.526 208.126 291.534 208.08 291.534Z" fill="white"/>
<path d="M169.235 291.275C169.141 291.274 169.052 291.236 168.985 291.17C168.92 291.104 168.883 291.015 168.883 290.922C168.883 290.83 168.92 290.741 168.985 290.675L208.094 252.096C208.161 252.034 208.249 252.002 208.34 252.004C208.431 252.006 208.517 252.044 208.581 252.109C208.644 252.173 208.68 252.26 208.681 252.351C208.682 252.442 208.647 252.529 208.584 252.595L169.478 291.174C169.413 291.238 169.326 291.273 169.235 291.275Z" fill="white"/>
<path d="M294.894 303H158.753C158.66 303 158.571 302.963 158.506 302.897C158.44 302.832 158.403 302.743 158.403 302.65V242.622C158.403 242.529 158.44 242.44 158.506 242.374C158.571 242.308 158.66 242.272 158.753 242.272H294.894C294.987 242.272 295.076 242.308 295.142 242.374C295.208 242.44 295.244 242.529 295.244 242.622V302.65C295.244 302.743 295.208 302.832 295.142 302.897C295.076 302.963 294.987 303 294.894 303ZM159.103 302.3H294.542V242.972H159.103V302.3Z" fill="#292929"/>
<path d="M244.489 256.263H229.266V258.275H244.489V256.263Z" fill="#292929"/>
<path d="M286.279 256.408H248.652V258.419H286.279V256.408Z" fill="#292929"/>
<path d="M286.277 266.174H219.356V268.185H286.277V266.174Z" fill="#292929"/>
<path d="M261.864 275.794H215.622V277.806H261.864V275.794Z" fill="#292929"/>
<path d="M286.279 275.939H266.748V277.95H286.279V275.939Z" fill="#292929"/>
<path d="M234.579 285.705H219.356V287.716H234.579V285.705Z" fill="#292929"/>
<path d="M286.279 285.705H237.452V287.716H286.279V285.705Z" fill="#292929"/>
<path d="M259.143 15.9259H248.552C248.459 15.9259 248.37 15.8891 248.304 15.8234C248.239 15.7578 248.202 15.6687 248.202 15.5759C248.202 15.4831 248.239 15.3941 248.304 15.3284C248.37 15.2628 248.459 15.2259 248.552 15.2259H259.143C259.236 15.2259 259.325 15.2628 259.391 15.3284C259.457 15.3941 259.493 15.4831 259.493 15.5759C259.493 15.6687 259.457 15.7578 259.391 15.8234C259.325 15.8891 259.236 15.9259 259.143 15.9259Z" fill="white"/>
<path d="M276.318 5.31335H265.728V15.6319H276.318V5.31335Z" fill="white"/>
<path d="M292.339 15.9818C292.291 15.982 292.243 15.9721 292.198 15.9529C292.154 15.9336 292.113 15.9053 292.08 15.8698L282.714 5.68656C282.676 5.65444 282.645 5.61452 282.623 5.56948C282.602 5.52444 282.59 5.47533 282.589 5.42543C282.588 5.37553 282.598 5.32601 282.618 5.28017C282.637 5.23434 282.667 5.19326 282.704 5.15969C282.741 5.12612 282.784 5.10083 282.832 5.08553C282.879 5.07022 282.93 5.06526 282.979 5.07095C283.029 5.07665 283.076 5.09289 283.119 5.11857C283.162 5.14426 283.199 5.17879 283.227 5.21987L292.596 15.4031C292.643 15.4528 292.674 15.515 292.685 15.5821C292.697 15.6493 292.688 15.7183 292.661 15.7807C292.634 15.8431 292.589 15.8961 292.531 15.9331C292.474 15.9701 292.408 15.9894 292.339 15.9888V15.9818Z" fill="white"/>
<path d="M282.564 15.5759C282.516 15.5757 282.468 15.5654 282.423 15.5457C282.378 15.526 282.338 15.4974 282.305 15.4616C282.274 15.4277 282.25 15.3881 282.234 15.3449C282.219 15.3017 282.211 15.2558 282.213 15.2099C282.215 15.1639 282.226 15.1188 282.246 15.0771C282.265 15.0354 282.293 14.998 282.326 14.9669L292.51 5.59801C292.542 5.56098 292.582 5.53126 292.627 5.51078C292.672 5.49031 292.721 5.47954 292.77 5.4792C292.819 5.47885 292.868 5.48893 292.913 5.50877C292.958 5.52862 292.999 5.55777 293.032 5.59434C293.065 5.63091 293.09 5.67406 293.105 5.72096C293.121 5.76785 293.126 5.81745 293.12 5.86648C293.115 5.91552 293.1 5.96289 293.075 6.0055C293.05 6.0481 293.016 6.08498 292.976 6.11371L282.793 15.4826C282.731 15.541 282.65 15.5743 282.564 15.5759Z" fill="white"/>
<path d="M288.479 211.519H15.8139C11.6211 211.515 7.60129 209.847 4.63655 206.883C1.67181 203.918 0.00432404 199.898 0 195.705V15.8139C0.00432404 11.6211 1.67181 7.6013 4.63655 4.63655C7.60129 1.67181 11.6211 0.00432404 15.8139 0H288.479C292.672 0.00432404 296.692 1.67181 299.656 4.63655C302.621 7.6013 304.289 11.6211 304.293 15.8139V195.705C304.289 199.898 302.621 203.918 299.656 206.883C296.692 209.847 292.672 211.515 288.479 211.519ZM15.8139 0.700039C11.807 0.704979 7.96556 2.29891 5.13224 5.13224C2.29891 7.96556 0.704979 11.807 0.700039 15.8139V195.705C0.704363 199.712 2.2981 203.554 5.13155 206.388C7.96501 209.221 11.8068 210.815 15.8139 210.819H288.479C292.486 210.815 296.328 209.221 299.161 206.388C301.995 203.554 303.589 199.712 303.593 195.705V15.8139C303.589 11.8068 301.995 7.96502 299.161 5.13156C296.328 2.2981 292.486 0.704363 288.479 0.700039H15.8139Z" fill="#292929"/>
<path d="M344.728 133.875L349.556 129.745L347.176 143.846H341.445L341.911 129.745H388.347L388.793 143.846H383.095L380.717 129.745L385.512 133.875H344.728ZM366.385 176.344L378.285 177.511V181.135H351.964V177.497L363.757 176.33L366.385 176.344ZM359.809 153.768C359.809 145.79 359.809 137.735 359.576 129.755H370.681C370.433 137.579 370.433 145.636 370.433 153.768V157.1C370.433 165.107 370.433 173.164 370.681 181.135H359.576C359.809 173.311 359.809 165.268 359.809 157.121V153.768Z" fill="#4A154B"/>
<path d="M366.179 267.529H314.143C314.05 267.529 313.961 267.492 313.896 267.427C313.83 267.361 313.793 267.272 313.793 267.179C313.793 267.086 313.83 266.997 313.896 266.932C313.961 266.866 314.05 266.829 314.143 266.829H365.832V199.826C365.832 199.733 365.869 199.644 365.934 199.579C366 199.513 366.089 199.476 366.182 199.476C366.275 199.476 366.364 199.513 366.429 199.579C366.495 199.644 366.532 199.733 366.532 199.826V267.179C366.532 267.225 366.523 267.271 366.505 267.314C366.487 267.356 366.461 267.395 366.428 267.428C366.396 267.46 366.357 267.486 366.314 267.503C366.271 267.521 366.226 267.53 366.179 267.529Z" fill="#292929"/>
<path d="M73.9108 257.925C75.5886 257.409 78.2931 256.709 80.2485 256.322V257.808C78.4375 258.188 76.6563 258.698 74.9189 259.334C72.2097 260.361 71.4187 261.726 71.4187 263.182C71.4187 265.149 72.6508 265.982 74.2539 265.982C75.3389 265.982 76.0576 265.585 77.9617 264.288L79.1821 263.422L79.6722 264.097L78.2371 265.525C76.0553 267.646 74.7369 268.771 72.0464 268.771C69.0129 268.771 66.7028 267.098 66.7028 263.945C66.6911 261.525 68.0935 259.71 73.9108 257.925ZM77.7471 264.925V255.806C77.7471 252.25 76.8417 251.291 74.2235 251.291C72.965 251.3 71.7159 251.509 70.5226 251.909L72.7254 250.572L72.0627 253.531C71.8294 255.365 70.8727 256.186 69.5473 256.186C68.2825 256.186 67.4728 255.57 67.2745 254.464C67.7598 251.431 70.8773 249.45 75.8103 249.45C80.4772 249.45 82.512 251.382 82.512 256.343V264.668C82.512 265.893 82.96 266.379 83.709 266.379C84.2597 266.379 84.6424 266.106 85.1091 265.539L86.0425 266.295C85.0765 268.066 83.8094 268.717 81.8913 268.717C79.3968 268.708 77.9267 267.266 77.7471 264.927V264.925Z" fill="#4A154B"/>
<path d="M189.434 66.5257C191.801 65.7976 195.616 64.8092 198.374 64.2623V66.3609C195.82 66.8969 193.307 67.617 190.856 68.5157C187.035 69.9653 185.919 71.8927 185.919 73.9485C185.919 76.7259 187.657 77.9021 189.918 77.9021C191.449 77.9021 192.463 77.342 195.148 75.5102L196.87 74.2879L197.561 75.2401L195.537 77.2564C192.459 80.2512 190.6 81.8393 186.805 81.8393C182.526 81.8393 179.267 79.477 179.267 75.0259C179.251 71.6093 181.229 69.0461 189.434 66.5257ZM194.846 76.4096V63.5341C194.846 58.5131 193.569 57.159 189.876 57.159C188.1 57.1726 186.338 57.4673 184.655 58.0321L187.762 56.1442L186.828 60.3219C186.498 62.9115 185.149 64.0712 183.279 64.0712C181.495 64.0712 180.353 63.2014 180.074 61.6397C180.758 57.3567 185.156 54.5595 192.114 54.5595C198.697 54.5595 201.567 57.2875 201.567 64.2919V76.0472C201.567 77.7769 202.199 78.4622 203.255 78.4622C204.032 78.4622 204.572 78.0767 205.23 77.2761L206.547 78.3436C205.184 80.8442 203.397 81.7635 200.691 81.7635C197.173 81.7503 195.099 79.7142 194.846 76.4129V76.4096Z" fill="#4A154B"/>
<path d="M95.3974 278.627H56.7879C56.6951 278.627 56.606 278.59 56.5404 278.525C56.4747 278.459 56.4379 278.37 56.4379 278.277V239.668C56.4379 239.575 56.4747 239.486 56.5404 239.42C56.606 239.355 56.6951 239.318 56.7879 239.318H95.3974C95.4902 239.318 95.5792 239.355 95.6449 239.42C95.7105 239.486 95.7474 239.575 95.7474 239.668V278.277C95.7474 278.37 95.7105 278.459 95.6449 278.525C95.5792 278.59 95.4902 278.627 95.3974 278.627ZM57.1286 277.927H95.0474V240.018H57.1379L57.1286 277.927Z" fill="#292929"/>
<path d="M219.051 96.1287H165.463C165.335 96.1287 165.211 96.0775 165.12 95.9864C165.029 95.8953 164.978 95.7717 164.978 95.6429V42.055C164.978 41.9261 165.029 41.8025 165.12 41.7114C165.211 41.6203 165.335 41.5692 165.463 41.5692H219.051C219.18 41.5692 219.304 41.6203 219.395 41.7114C219.486 41.8025 219.537 41.9261 219.537 42.055V95.6429C219.537 95.7717 219.486 95.8953 219.395 95.9864C219.304 96.0775 219.18 96.1287 219.051 96.1287ZM165.936 95.1571H218.566V42.5408H165.949L165.936 95.1571Z" fill="#292929"/>
<path d="M59.665 237.341H54.4614V242.545H59.665V237.341Z" fill="white"/>
<path d="M59.665 242.893H54.4614C54.3686 242.893 54.2795 242.856 54.2139 242.79C54.1483 242.724 54.1114 242.635 54.1114 242.543V237.341C54.1114 237.248 54.1483 237.159 54.2139 237.094C54.2795 237.028 54.3686 236.991 54.4614 236.991H59.665C59.7579 236.991 59.8469 237.028 59.9125 237.094C59.9782 237.159 60.015 237.248 60.015 237.341V242.543C60.015 242.635 59.9782 242.724 59.9125 242.79C59.8469 242.856 59.7579 242.893 59.665 242.893ZM54.8114 242.193H59.315V237.691H54.8114V242.193Z" fill="#292929"/>
<path d="M98.2746 237.341H93.0709V242.545H98.2746V237.341Z" fill="white"/>
<path d="M223.434 37.6721H216.939V45.4663H223.434V37.6721Z" fill="white"/>
<path d="M98.2722 242.893H93.0709C92.9781 242.893 92.8891 242.856 92.8234 242.79C92.7578 242.724 92.7209 242.635 92.7209 242.543V237.341C92.7209 237.248 92.7578 237.159 92.8234 237.094C92.8891 237.028 92.9781 236.991 93.0709 236.991H98.2722C98.365 236.991 98.4541 237.028 98.5197 237.094C98.5853 237.159 98.6222 237.248 98.6222 237.341V242.543C98.6222 242.635 98.5853 242.724 98.5197 242.79C98.4541 242.856 98.365 242.893 98.2722 242.893ZM93.4209 242.193H97.9222V237.691H93.4209V242.193Z" fill="#292929"/>
<path d="M224.194 45.4663H216.179C216.036 45.4663 215.899 45.4176 215.798 45.3309C215.697 45.2442 215.64 45.1266 215.64 45.004V38.1343C215.64 38.0117 215.697 37.8942 215.798 37.8075C215.899 37.7208 216.036 37.6721 216.179 37.6721H224.194C224.337 37.6721 224.474 37.7208 224.575 37.8075C224.676 37.8942 224.733 38.0117 224.733 38.1343V45.004C224.733 45.1266 224.676 45.2442 224.575 45.3309C224.474 45.4176 224.337 45.4663 224.194 45.4663ZM216.719 44.5417H223.655V38.5966H216.719V44.5417Z" fill="#292929"/>
<path d="M59.665 275.675H54.4614V280.879H59.665V275.675Z" fill="white"/>
<path d="M59.665 281.241H54.4614C54.3686 281.241 54.2795 281.204 54.2139 281.138C54.1483 281.072 54.1114 280.983 54.1114 280.891V275.687C54.1114 275.594 54.1483 275.505 54.2139 275.439C54.2795 275.374 54.3686 275.337 54.4614 275.337H59.665C59.7579 275.337 59.8469 275.374 59.9125 275.439C59.9782 275.505 60.015 275.594 60.015 275.687V280.891C60.015 280.983 59.9782 281.072 59.9125 281.138C59.8469 281.204 59.7579 281.241 59.665 281.241ZM54.8114 280.541H59.315V276.037H54.8114V280.541Z" fill="#292929"/>
<path d="M98.2746 275.675H93.0709V280.879H98.2746V275.675Z" fill="white"/>
<path d="M98.2722 281.241H93.0709C92.9781 281.241 92.8891 281.204 92.8234 281.138C92.7578 281.072 92.7209 280.983 92.7209 280.891V275.687C92.7209 275.594 92.7578 275.505 92.8234 275.439C92.8891 275.374 92.9781 275.337 93.0709 275.337H98.2722C98.365 275.337 98.4541 275.374 98.5197 275.439C98.5853 275.505 98.6222 275.594 98.6222 275.687V280.891C98.6222 280.983 98.5853 281.072 98.5197 281.138C98.4541 281.204 98.365 281.241 98.2722 281.241ZM93.4209 280.541H97.9222V276.037H93.4209V280.541Z" fill="#292929"/>
<path d="M87.5803 269.655L96.6178 297.311L102.367 285.261L114.69 279.239L87.5803 269.655Z" fill="#292929"/>
<path d="M367.059 118.344C366.966 118.344 366.877 118.307 366.812 118.241C366.746 118.176 366.709 118.087 366.709 117.994V100.103C366.709 100.01 366.746 99.9214 366.812 99.8558C366.877 99.7901 366.966 99.7532 367.059 99.7532C367.152 99.7532 367.241 99.7901 367.307 99.8558C367.372 99.9214 367.409 100.01 367.409 100.103V117.994C367.409 118.087 367.372 118.176 367.307 118.241C367.241 118.307 367.152 118.344 367.059 118.344Z" fill="#292929"/>
<path d="M73.4698 230.49C73.377 230.49 73.288 230.453 73.2223 230.388C73.1567 230.322 73.1198 230.233 73.1198 230.14V219.234C73.1198 219.141 73.1567 219.052 73.2223 218.986C73.288 218.921 73.377 218.884 73.4698 218.884C73.5626 218.884 73.6517 218.921 73.7173 218.986C73.783 219.052 73.8198 219.141 73.8198 219.234V230.138C73.8201 230.184 73.8113 230.23 73.7939 230.273C73.7764 230.315 73.7507 230.354 73.7181 230.387C73.6856 230.42 73.6469 230.446 73.6043 230.463C73.5617 230.481 73.516 230.49 73.4698 230.49Z" fill="#292929"/>
</svg>
