<svg width="49" height="53" viewBox="0 0 49 53" fill="none" xmlns="http://www.w3.org/2000/svg">
<path d="M41.1851 0.368136C41.6761 0.85911 41.6761 1.65392 41.1851 2.145L38.233 5.09708C37.9875 5.34262 37.6652 5.46534 37.3445 5.46534C37.0224 5.46534 36.7018 5.34262 36.4563 5.09708C35.9653 4.60611 35.9653 3.8113 36.4563 3.32032L39.4081 0.368244C39.899 -0.12273 40.694 -0.12273 41.1851 0.368136Z" fill="#FF7A5A"/>
<path d="M8.98226 0.368163L11.9358 3.32024C12.4268 3.81122 12.4268 4.60603 11.9358 5.097C11.6903 5.34254 11.368 5.46526 11.0474 5.46526C10.7252 5.46526 10.4029 5.34254 10.1574 5.097L7.20529 2.14492C6.71432 1.65394 6.71432 0.859137 7.20529 0.368056C7.69626 -0.122703 8.49129 -0.122703 8.98226 0.368163Z" fill="#FF7A5A"/>
<path d="M24.5589 10.4042C23.4295 10.3827 22.3739 10.9474 21.7754 11.8986C21.5359 12.2791 21.128 12.4863 20.7107 12.4863C20.4806 12.4863 20.2503 12.4249 20.0417 12.2929C19.4541 11.9231 19.2776 11.1467 19.6474 10.5607C20.7182 8.85909 22.6471 7.82799 24.6279 7.89091C25.3213 7.9093 25.8691 8.48782 25.8508 9.18131C25.8307 9.87481 25.2494 10.3674 24.5589 10.4042Z" fill="#FF7A5A"/>
<path d="M47.7213 50.3218C47.4604 50.4983 46.9186 50.5949 46.6041 50.5535L45.3521 50.3678C38.9724 49.4473 32.6356 49.9367 26.5121 51.8331L24.5632 52.4299C24.4438 52.4668 24.3195 52.4852 24.1951 52.4852C24.0617 52.4852 23.4079 52.2903 23.4079 52.2903C16.8793 50.0303 9.85971 49.3689 3.09772 50.3678C3.09772 50.3678 2.3184 50.4159 2.06684 50.4784C1.58425 50.598 1.08338 50.6042 0.668987 50.3219C0.323853 50.0886 1.52588e-05 49.4781 1.52588e-05 49.0606V15.2805C1.52588e-05 14.0131 0.871616 12.9621 2.15277 12.7196C5.44246 12.1813 8.81334 12.1569 12.1921 12.5894C12.5832 9.97569 13.7647 7.56503 15.6963 5.6847C18.073 3.37094 21.2092 2.13882 24.5279 2.23551C30.4215 2.39168 35.3052 6.89627 36.1952 12.586C39.6121 12.1357 43.1472 12.1787 46.2712 12.7243C47.5184 12.9621 48.3901 14.0131 48.3901 15.2805V49.0605C48.3902 49.5669 48.1418 50.038 47.7213 50.3218ZM24.192 34.2603C25.8493 34.2603 27.1962 32.9116 27.1962 31.2546V30.5969C26.8633 30.6619 26.5211 30.7007 26.1699 30.7007H22.2235C21.8782 30.7007 21.5406 30.6617 21.2138 30.5987V31.2547C21.214 32.9115 22.5504 34.2603 24.192 34.2603ZM12.0829 15.1071C8.87626 14.6779 5.67251 14.6984 2.51339 15.2805V47.9113L2.73732 47.8806C9.4564 46.8816 16.4052 47.5021 22.9385 49.5523V36.6149C20.5141 36.0418 18.6992 33.8635 18.6992 31.2545V29.3463C17.5853 28.3642 16.8685 26.9441 16.8685 25.3457C16.8685 24.6261 16.5389 23.9264 15.9419 23.3771C13.616 21.2368 12.2641 18.2489 12.0829 15.1071ZM24.4607 4.74868C24.3716 4.74566 24.2825 4.74566 24.1937 4.74566C21.6574 4.74566 19.2715 5.71234 17.4502 7.48608C15.5631 9.32264 14.5242 11.7837 14.5242 14.4166C14.5242 17.1109 15.6612 19.7023 17.645 21.5284C18.765 22.5609 19.3818 23.9158 19.3818 25.3458C19.3818 26.9124 20.6567 28.1874 22.2235 28.1874H22.9399V21.5805C22.9399 20.887 23.5032 20.3239 24.1966 20.3239C24.8903 20.3239 25.4532 20.8869 25.4532 21.5805V28.1874H26.1699C27.7364 28.1874 29.0114 26.9124 29.0114 25.3458C29.0114 23.9142 29.6282 22.5595 30.7482 21.5284C32.7535 19.6826 33.8905 17.0618 33.8692 14.3368C33.8262 9.18605 29.6066 4.88527 24.4607 4.74868ZM45.8187 15.1977C42.9155 14.6923 39.5385 14.6583 36.3056 15.104C36.1247 18.249 34.7805 21.2346 32.4499 23.3788C31.8532 23.9266 31.5247 24.6262 31.5247 25.3458C31.5247 26.9363 30.8145 28.3508 29.7113 29.3324V31.2545C29.7113 33.8632 27.8868 36.0416 25.4519 36.6149V49.5295L25.7725 49.4318C32.2522 47.4219 38.9602 46.9017 45.7175 47.8806L45.8756 47.9066L45.8187 15.1977Z" fill="#FF7A5A"/>
<path d="M40.8045 26.0055H36.7629C36.0695 26.0055 35.5062 25.4423 35.5062 24.7488C35.5062 24.0553 36.0695 23.4922 36.7629 23.4922H40.8045C41.4978 23.4922 42.0611 24.0552 42.0611 24.7488C42.061 25.4423 41.4978 26.0055 40.8045 26.0055Z" fill="#FF7A5A"/>
<path d="M40.8044 33.8934H33.622C32.9271 33.8934 32.3654 33.3303 32.3654 32.6368C32.3654 31.9433 32.9271 31.3801 33.622 31.3801H40.8044C41.4995 31.3801 42.0624 31.9432 42.0624 32.6368C42.0624 33.3303 41.4995 33.8934 40.8044 33.8934Z" fill="#FF7A5A"/>
<path d="M40.8044 41.2735H31.5768C30.8834 41.2735 30.3202 40.7104 30.3202 40.0169C30.3202 39.3234 30.8834 38.7603 31.5768 38.7603H40.8044C41.4995 38.7603 42.0624 39.3233 42.0624 40.0169C42.0624 40.7104 41.4995 41.2735 40.8044 41.2735Z" fill="#FF7A5A"/>
<path d="M11.6243 26.5133H7.58443C6.89072 26.5133 6.3278 25.9502 6.3278 25.2566C6.3278 24.5631 6.89072 24 7.58443 24H11.6243C12.3194 24 12.8823 24.5631 12.8823 25.2566C12.8823 25.9501 12.3194 26.5133 11.6243 26.5133Z" fill="#FF7A5A"/>
<path d="M14.7682 33.8934H7.58581C6.8907 33.8934 6.32778 33.3303 6.32778 32.6368C6.32778 31.9433 6.8907 31.3801 7.58581 31.3801H14.7682C15.4631 31.3801 16.0245 31.9432 16.0245 32.6368C16.0246 33.3303 15.4631 33.8934 14.7682 33.8934Z" fill="#FF7A5A"/>
<path d="M8.48482 38.7529H16.8164C17.5098 38.7529 18.0731 39.316 18.0731 40.0096C18.0731 40.7031 17.5098 41.2662 16.8164 41.2662H8.48482C7.79143 41.2662 7.22851 40.7032 7.22851 40.0096C7.22851 39.316 7.79143 38.7529 8.48482 38.7529Z" fill="#FF7A5A"/>
</svg>
