<svg width="534" height="378" viewBox="0 0 534 378" fill="none" xmlns="http://www.w3.org/2000/svg">
<g filter="url(#filter0_d_8009_528)">
<rect x="4" width="524.787" height="365.97" rx="28" fill="white"/>
<path d="M528.124 27.299V36.012H4.05542V27.299C4.05489 23.7932 4.74501 20.3217 6.08636 17.0827C7.42771 13.8437 9.39403 10.9006 11.873 8.42169C14.3519 5.94274 17.295 3.97643 20.534 2.63507C23.773 1.29372 27.2445 0.603597 30.7503 0.604126H501.429C504.935 0.603597 508.406 1.29372 511.645 2.63507C514.884 3.97643 517.827 5.94274 520.306 8.42169C522.785 10.9006 524.751 13.8437 526.093 17.0827C527.434 20.3217 528.124 23.7932 528.124 27.299Z" fill="#4A154B"/>
<path d="M295.096 73.6693C295.662 71.2702 294.176 68.8664 291.777 68.3002C289.378 67.7339 286.974 69.2197 286.408 71.6188C285.842 74.0178 287.328 76.4217 289.727 76.9879C292.126 77.5541 294.529 76.0683 295.096 73.6693Z" fill="#FF7A5A"/>
<path d="M470.257 69.1835H305.15V76.1241H470.257V69.1835Z" fill="#E7ECF2"/>
<path d="M290.773 95.4636C293.238 95.4636 295.236 93.4653 295.236 91.0004C295.236 88.5354 293.238 86.5371 290.773 86.5371C288.308 86.5371 286.31 88.5354 286.31 91.0004C286.31 93.4653 288.308 95.4636 290.773 95.4636Z" fill="#FF7A5A"/>
<path d="M470.257 87.5321H305.15V94.4727H470.257V87.5321Z" fill="#E7ECF2"/>
<path d="M290.773 113.812C293.238 113.812 295.236 111.814 295.236 109.349C295.236 106.884 293.238 104.885 290.773 104.885C288.308 104.885 286.31 106.884 286.31 109.349C286.31 111.814 288.308 113.812 290.773 113.812Z" fill="#FF7A5A"/>
<path d="M470.257 105.876H305.15V112.817H470.257V105.876Z" fill="#E7ECF2"/>
<path d="M290.773 132.156C293.238 132.156 295.236 130.158 295.236 127.693C295.236 125.228 293.238 123.23 290.773 123.23C288.308 123.23 286.31 125.228 286.31 127.693C286.31 130.158 288.308 132.156 290.773 132.156Z" fill="#FF7A5A"/>
<path d="M470.257 124.221H305.15V131.162H470.257V124.221Z" fill="#E7ECF2"/>
<path d="M452.178 190.612H287.07V197.552H452.178V190.612Z" fill="#E7ECF2"/>
<path d="M290.773 150.501C293.238 150.501 295.236 148.502 295.236 146.037C295.236 143.572 293.238 141.574 290.773 141.574C288.308 141.574 286.31 143.572 286.31 146.037C286.31 148.502 288.308 150.501 290.773 150.501Z" fill="#FF7A5A"/>
<path d="M470.257 142.569H305.15V149.51H470.257V142.569Z" fill="#E7ECF2"/>
<path d="M452.178 208.96H287.07V215.901H452.178V208.96Z" fill="#E7ECF2"/>
<path d="M86.0272 322.29C86.4216 319.85 84.7631 317.552 82.3227 317.157C79.8824 316.763 77.5844 318.421 77.19 320.862C76.7956 323.302 78.4542 325.6 80.8945 325.994C83.3348 326.389 85.6328 324.73 86.0272 322.29Z" fill="#FF7A5A"/>
<path d="M503.33 318.675H94.7746V325.615H503.33V318.675Z" fill="#E7ECF2"/>
<path d="M82.0907 344.624C84.3707 343.687 85.4594 341.079 84.5225 338.799C83.5855 336.519 80.9777 335.43 78.6977 336.367C76.4177 337.304 75.329 339.912 76.2659 342.192C77.2029 344.472 79.8107 345.561 82.0907 344.624Z" fill="#FF7A5A"/>
<path d="M503.33 337.019H94.7746V343.96H503.33V337.019Z" fill="#E7ECF2"/>
<path d="M80.3978 274.3C82.8628 274.3 84.8611 272.302 84.8611 269.837C84.8611 267.372 82.8628 265.374 80.3978 265.374C77.9328 265.374 75.9346 267.372 75.9346 269.837C75.9346 272.302 77.9328 274.3 80.3978 274.3Z" fill="#FF7A5A"/>
<path d="M503.33 266.364H94.7746V273.305H503.33V266.364Z" fill="#E7ECF2"/>
<path d="M80.3978 292.644C82.8628 292.644 84.8611 290.646 84.8611 288.181C84.8611 285.716 82.8628 283.718 80.3978 283.718C77.9328 283.718 75.9346 285.716 75.9346 288.181C75.9346 290.646 77.9328 292.644 80.3978 292.644Z" fill="#FF7A5A"/>
<path d="M503.33 284.709H94.7746V291.65H503.33V284.709Z" fill="#E7ECF2"/>
<path d="M65.5217 260.415H29.3283V297.603H65.5217V260.415Z" fill="#E7ECF2"/>
<path d="M65.5217 297.958C65.3597 297.957 65.2047 297.892 65.0907 297.776L28.8974 261.088C28.7846 260.973 28.722 260.819 28.7231 260.658C28.7242 260.498 28.7891 260.344 28.9034 260.232C29.0177 260.119 29.1721 260.056 29.3326 260.057C29.4932 260.059 29.6467 260.123 29.7594 260.238L65.9527 296.931C66.0659 297.044 66.1294 297.197 66.1294 297.358C66.1294 297.518 66.0659 297.671 65.9527 297.785C65.8374 297.897 65.6826 297.959 65.5217 297.958Z" fill="#292929"/>
<path d="M29.0786 297.712C28.9166 297.711 28.7616 297.646 28.6476 297.531C28.5344 297.417 28.4709 297.264 28.4709 297.104C28.4709 296.943 28.5344 296.79 28.6476 296.677L65.3364 260.479C65.393 260.423 65.4601 260.379 65.5337 260.349C65.6074 260.319 65.6862 260.304 65.7657 260.305C65.8451 260.306 65.9237 260.322 65.997 260.353C66.0702 260.384 66.1366 260.429 66.1924 260.485C66.2482 260.542 66.2923 260.609 66.3222 260.683C66.3521 260.756 66.3672 260.835 66.3667 260.914C66.3661 260.994 66.3499 261.073 66.3189 261.146C66.288 261.219 66.243 261.285 66.1864 261.341L29.4975 297.535C29.3856 297.645 29.2358 297.708 29.0786 297.712Z" fill="#292929"/>
<path d="M65.5217 312.725H29.3283V349.913H65.5217V312.725Z" fill="#E7ECF2"/>
<path d="M65.5217 350.268C65.3597 350.267 65.2047 350.202 65.0907 350.087L28.8974 313.398C28.7846 313.283 28.722 313.129 28.7231 312.968C28.7242 312.808 28.7891 312.654 28.9034 312.542C29.0177 312.429 29.1721 312.366 29.3326 312.367C29.4932 312.369 29.6467 312.433 29.7594 312.548L65.9527 349.241C66.0659 349.354 66.1294 349.507 66.1294 349.668C66.1294 349.828 66.0659 349.981 65.9527 350.095C65.8374 350.207 65.6826 350.269 65.5217 350.268Z" fill="#292929"/>
<path d="M29.0786 350.018C28.9175 350.017 28.763 349.953 28.6476 349.841C28.5344 349.728 28.4709 349.574 28.4709 349.414C28.4709 349.254 28.5344 349.1 28.6476 348.987L65.3364 312.79C65.393 312.734 65.4601 312.69 65.5337 312.66C65.6074 312.63 65.6862 312.615 65.7657 312.615C65.8451 312.616 65.9237 312.632 65.997 312.663C66.0702 312.694 66.1366 312.739 66.1924 312.796C66.2482 312.852 66.2923 312.919 66.3222 312.993C66.3521 313.066 66.3672 313.145 66.3667 313.225C66.3661 313.304 66.3499 313.383 66.3189 313.456C66.288 313.529 66.243 313.596 66.1864 313.652L29.4975 349.845C29.3852 349.954 29.2353 350.016 29.0786 350.018Z" fill="#292929"/>
<path d="M449.626 27.4924H431.342C431.182 27.4924 431.028 27.4287 430.915 27.3154C430.802 27.2021 430.738 27.0484 430.738 26.8882C430.738 26.7279 430.802 26.5742 430.915 26.4609C431.028 26.3476 431.182 26.2839 431.342 26.2839H449.626C449.787 26.2839 449.94 26.3476 450.054 26.4609C450.167 26.5742 450.231 26.7279 450.231 26.8882C450.231 27.0484 450.167 27.2021 450.054 27.3154C449.94 27.4287 449.787 27.4924 449.626 27.4924Z" fill="white"/>
<path d="M479.274 9.17236H460.994V26.9851H479.274V9.17236Z" fill="white"/>
<path d="M506.932 27.5891C506.848 27.5894 506.765 27.5724 506.688 27.5391C506.611 27.5058 506.542 27.457 506.484 27.3957L490.315 9.81666C490.249 9.76121 490.196 9.6923 490.159 9.61455C490.122 9.5368 490.102 9.45202 490.1 9.36588C490.098 9.27974 490.115 9.19424 490.149 9.11512C490.183 9.036 490.234 8.96509 490.298 8.90714C490.362 8.84918 490.437 8.80553 490.519 8.77911C490.601 8.75269 490.688 8.74411 490.773 8.75395C490.859 8.76379 490.941 8.79182 491.015 8.83616C491.089 8.88049 491.153 8.94011 491.201 9.01102L507.375 26.5901C507.455 26.6758 507.509 26.7832 507.529 26.8991C507.549 27.015 507.534 27.1342 507.487 27.2419C507.44 27.3496 507.362 27.441 507.263 27.5049C507.165 27.5688 507.049 27.6023 506.932 27.6012V27.5891Z" fill="white"/>
<path d="M490.057 26.8884C489.973 26.888 489.89 26.8703 489.813 26.8363C489.736 26.8023 489.667 26.7529 489.61 26.691C489.557 26.6326 489.515 26.5642 489.488 26.4896C489.46 26.4151 489.448 26.3359 489.451 26.2565C489.455 26.1772 489.474 26.0994 489.507 26.0274C489.541 25.9554 489.588 25.8908 489.647 25.8371L507.226 9.66387C507.282 9.59995 507.351 9.54863 507.428 9.51328C507.506 9.47793 507.59 9.45935 507.675 9.45876C507.76 9.45816 507.844 9.47556 507.922 9.50981C508 9.54407 508.07 9.5944 508.127 9.65753C508.184 9.72065 508.228 9.79514 508.254 9.8761C508.28 9.95706 508.289 10.0427 508.28 10.1273C508.271 10.212 508.244 10.2938 508.201 10.3673C508.158 10.4408 508.1 10.5045 508.031 10.5541L490.452 26.7273C490.345 26.8282 490.204 26.8856 490.057 26.8884Z" fill="white"/>
<path d="M501.994 365.14H31.2991C24.0612 365.132 17.1219 362.254 12.004 357.136C6.88601 352.018 4.00746 345.079 4 337.841V27.2991C4.00746 20.0612 6.88601 13.1219 12.004 8.00396C17.1219 2.88601 24.0612 0.00746448 31.2991 0H501.994C509.232 0.00746448 516.171 2.88601 521.289 8.00396C526.407 13.1219 529.285 20.0612 529.293 27.2991V337.841C529.285 345.079 526.407 352.018 521.289 357.136C516.171 362.254 509.232 365.132 501.994 365.14ZM31.2991 1.20846C24.382 1.21699 17.7507 3.96855 12.8596 8.85965C7.96855 13.7507 5.21699 20.382 5.20846 27.2991V337.841C5.21592 344.758 7.96714 351.39 12.8585 356.281C17.7498 361.173 24.3817 363.924 31.2991 363.931H501.994C508.911 363.924 515.543 361.173 520.434 356.281C525.326 351.39 528.077 344.758 528.084 337.841V27.2991C528.077 20.3817 525.326 13.7498 520.434 8.85847C515.543 3.96715 508.911 1.21592 501.994 1.20846H31.2991Z" fill="white"/>
<path d="M95.5383 137.863C101.978 135.882 112.358 133.193 119.864 131.704V137.415C112.913 138.873 106.076 140.833 99.4074 143.278C89.0092 147.223 85.973 152.467 85.973 158.061C85.973 165.619 90.702 168.819 96.8549 168.819C101.02 168.819 103.778 167.295 111.086 162.311L115.771 158.985L117.651 161.576L112.143 167.062C103.769 175.211 98.7088 179.533 88.3823 179.533C76.7391 179.533 67.8724 173.105 67.8724 160.993C67.8276 151.696 73.2104 144.722 95.5383 137.863ZM110.262 164.758V129.723C110.262 116.061 106.787 112.376 96.7385 112.376C91.9081 112.413 87.1139 113.215 82.5338 114.752L90.9885 109.615L88.445 120.982C87.5493 128.029 83.8772 131.185 78.7901 131.185C73.9358 131.185 70.828 128.818 70.0667 124.568C71.9296 112.914 83.8952 105.303 102.829 105.303C120.741 105.303 128.551 112.726 128.551 131.785V163.772C128.551 168.479 130.271 170.343 133.146 170.343C135.259 170.343 136.728 169.294 138.519 167.116L142.102 170.021C138.394 176.825 133.531 179.326 126.169 179.326C116.594 179.29 110.952 173.75 110.262 164.767V164.758Z" fill="#4A154B"/>
<path d="M177.016 219.237H29.5051C29.1505 219.237 28.8103 219.096 28.5595 218.845C28.3087 218.594 28.1678 218.254 28.1678 217.899V70.3882C28.1678 70.0335 28.3087 69.6934 28.5595 69.4426C28.8103 69.1918 29.1505 69.0509 29.5051 69.0509H177.016C177.371 69.0509 177.711 69.1918 177.962 69.4426C178.213 69.6934 178.354 70.0335 178.354 70.3882V217.899C178.354 218.254 178.213 218.594 177.962 218.845C177.711 219.096 177.371 219.237 177.016 219.237ZM30.8068 216.562H175.679V71.7255H30.8424L30.8068 216.562Z" fill="#292929"/>
<path d="M387.982 65.0323H376.77V78.4873H387.982V65.0323Z" fill="white"/>
<path d="M190.73 79.4086H169.429C169.049 79.4086 168.685 79.2792 168.416 79.0488C168.147 78.8184 167.996 78.5058 167.996 78.18V59.922C167.996 59.5962 168.147 59.2836 168.416 59.0532C168.685 58.8228 169.049 58.6934 169.429 58.6934H190.73C191.111 58.6934 191.475 58.8228 191.744 59.0532C192.013 59.2836 192.164 59.5962 192.164 59.922V78.18C192.164 78.5058 192.013 78.8184 191.744 79.0488C191.475 79.2792 191.111 79.4086 190.73 79.4086ZM170.863 76.9513H189.297V61.1507H170.863V76.9513Z" fill="#292929"/>
</g>
<defs>
<filter id="filter0_d_8009_528" x="0" y="0" width="533.293" height="377.97" filterUnits="userSpaceOnUse" color-interpolation-filters="sRGB">
<feFlood flood-opacity="0" result="BackgroundImageFix"/>
<feColorMatrix in="SourceAlpha" type="matrix" values="0 0 0 0 0 0 0 0 0 0 0 0 0 0 0 0 0 0 127 0" result="hardAlpha"/>
<feOffset dy="8"/>
<feGaussianBlur stdDeviation="2"/>
<feComposite in2="hardAlpha" operator="out"/>
<feColorMatrix type="matrix" values="0 0 0 0 0 0 0 0 0 0 0 0 0 0 0 0 0 0 0.1 0"/>
<feBlend mode="normal" in2="BackgroundImageFix" result="effect1_dropShadow_8009_528"/>
<feBlend mode="normal" in="SourceGraphic" in2="effect1_dropShadow_8009_528" result="shape"/>
</filter>
</defs>
</svg>
