<svg id="Layer_2" data-name="Layer 2" xmlns="http://www.w3.org/2000/svg" width="1650.85" height="317.65" viewBox="0 0 1650.85 317.65">
  <defs>
    <style>
      .cls-1 {
        fill: #ff7a5a;
      }

      .cls-2 {
        fill: #4a154b;
      }
    </style>
  </defs>
  <g>
    <path class="cls-1" d="M32.06,258.26a29.92,29.92,0,0,1,59.82-1.32c.3,16.35-13,30.43-29.22,30.8S32.39,274.58,32.06,258.26Z"/>
    <path class="cls-1" d="M140.66,214.34c0-47.06,0-92.8,0-138.53a8.25,8.25,0,0,1,.21-1.29c6.5-38.19,34.67-66.78,72.31-73.37,33.7-5.9,70.48,11.3,88.38,41.33,19.8,33.2,17.91,74.47-9.17,103.28-15.44,16.44-35.28,29.78-55.23,40.73C208,202.54,175.46,210.15,140.66,214.34Z"/>
    <path class="cls-2" d="M120.83,168c0,34.89,2.2,67.71-.72,100.06-2.2,24.31-19.17,40.85-43.36,47.18-24.59,6.43-46-.22-62.3-20S-4.24,253.2,6.59,230.35a75.26,75.26,0,0,1,18.14-23.61C51.67,183.19,84.94,174.76,120.83,168ZM45.09,256C45.43,266,50.52,271.7,60,272.79a15.39,15.39,0,0,0,16.92-15.61c-.3-9.71-5.71-15.39-15.41-15.68S46.53,246.84,45.09,256Z"/>
    <path class="cls-2" d="M61.73,128a29.92,29.92,0,0,1,59.82-1.33c.31,16.35-13,30.43-29.22,30.8S62.06,144.31,61.73,128Z"/>
    <path class="cls-2" d="M429.56,20.57H466.9v232.1H577.36V290H464.2q-16.17,0-25.4-9.24t-9.24-25.41Z"/>
    <path class="cls-2" d="M694,293.86q-21.94,0-40-7.13a87.63,87.63,0,0,1-51-51q-7.12-18.07-7.12-40A113,113,0,0,1,603,155.1a96.53,96.53,0,0,1,20-32.33,91.24,91.24,0,0,1,31-21.37q18.07-7.7,40-7.7,40.41,0,66.39,26.56t31.76,74.67L803.68,290H766l-2.69-21.56a86,86,0,0,1-30.21,18.86Q715.54,293.85,694,293.86Zm60.43-98.93a69.3,69.3,0,0,0-4.43-25,61.11,61.11,0,0,0-12.32-20,53.87,53.87,0,0,0-19-13.09,68.1,68.1,0,0,0-49.26,0,55.76,55.76,0,0,0-19.25,13.09,59.45,59.45,0,0,0-12.51,20,69.3,69.3,0,0,0-4.43,25q0,27.34,16.75,43.88T694,255.36q27.33,0,43.88-16.55T754.42,194.93Z"/>
    <path class="cls-2" d="M935.32,251.9V290q-52.35,7.31-76.4-11.17t-24.06-65.43V20.57H872.2V214.18q0,13.09,4.23,21.17a28.58,28.58,0,0,0,12.32,12.32q8.09,4.23,19.82,5A160.23,160.23,0,0,0,935.32,251.9ZM914.92,92.17H840.25l-5.39-37.73h80.06Z"/>
    <path class="cls-2" d="M952.26,195.7a113,113,0,0,1,7.12-40.6,96.53,96.53,0,0,1,20-32.33,91,91,0,0,1,31-21.37,107.82,107.82,0,0,1,74.28-2.11,96.14,96.14,0,0,1,28.1,15.39,87.36,87.36,0,0,1,20.6,23.67,105.88,105.88,0,0,1,12.12,30.41v11.16L993.44,218a53.78,53.78,0,0,0,21,27.33q14.8,10,36,10,20,0,34.64-10a56.83,56.83,0,0,0,21.17-26.56h39.26a105.88,105.88,0,0,1-12.12,30.41,87.51,87.51,0,0,1-20.6,23.67,95.91,95.91,0,0,1-28.1,15.39,102.06,102.06,0,0,1-34.25,5.59,106,106,0,0,1-40-7.32,91.71,91.71,0,0,1-31-20.21,89.4,89.4,0,0,1-20-31A107.25,107.25,0,0,1,952.26,195.7Zm145.1-42.33a55.1,55.1,0,0,0-20.2-15.59,63.24,63.24,0,0,0-26.75-5.58q-23.88,0-39.65,13.47t-20,35.41Z"/>
    <path class="cls-2" d="M1257.87,212.25a115.06,115.06,0,0,0-22.33,1.93,46.09,46.09,0,0,0-16.36,6.35,30.75,30.75,0,0,0-10.58,11.93,58.28,58.28,0,0,0-5.39,18.67L1198.59,290h-37.72l5-38.11q3.08-23.47,11.94-38.49t23.09-19.63a41.87,41.87,0,0,1-23.67-18.67q-8.28-13.65-11.36-39.45l-5-38.11h37.72l4.62,38.88q3.07,22.32,16,30.41t38.69,8.08q25.77,0,38.68-8.08t16-30.41l4.62-38.88h37.34l-4.62,38.11q-3.09,25.78-11.36,39.45a41.94,41.94,0,0,1-23.67,18.67q14.24,4.62,23.09,19.63t11.94,38.49l4.62,38.11h-37.34l-4.62-38.88q-2.7-22.71-15.78-30.79T1257.87,212.25Z"/>
    <path class="cls-1" d="M1378.34,37.89q0-10.38,6.35-16.74t16.74-6.35q10,0,16.36,6.35t6.35,16.74q0,10.39-6.35,16.75T1401.43,61q-10.4,0-16.74-6.35T1378.34,37.89Zm4.23,59.66h37.34V290h-37.34Z"/>
    <path class="cls-1" d="M1552.7,293.86a108.34,108.34,0,0,1-40-7.13,87.63,87.63,0,0,1-51-51q-7.12-18.07-7.12-40a113,113,0,0,1,7.12-40.6,96.53,96.53,0,0,1,20-32.33,91,91,0,0,1,31-21.37,107.9,107.9,0,0,1,80.06,0,91.3,91.3,0,0,1,31,21.37,96.71,96.71,0,0,1,20,32.33,113.17,113.17,0,0,1,7.12,40.6,108.51,108.51,0,0,1-7.12,40,87.71,87.71,0,0,1-51,51A108.38,108.38,0,0,1,1552.7,293.86Zm0-38.5q27.32,0,43.88-16.55t16.55-43.88a69.3,69.3,0,0,0-4.43-25,61.25,61.25,0,0,0-12.31-20,54,54,0,0,0-19.06-13.09,68.13,68.13,0,0,0-49.27,0,55.82,55.82,0,0,0-19.24,13.09,59.45,59.45,0,0,0-12.51,20,69.3,69.3,0,0,0-4.43,25q0,27.34,16.75,43.88T1552.7,255.36Z"/>
  </g>
</svg>
