<svg width="60" height="44" viewBox="0 0 60 44" fill="none" xmlns="http://www.w3.org/2000/svg">
<path d="M43.707 15.293C43.3164 14.9023 42.6836 14.9023 42.293 15.293L38.293 19.293C37.9023 19.6836 37.9023 20.3164 38.293 20.707L42.293 24.707C42.4883 24.9023 42.7441 25 43 25C43.2559 25 43.5117 24.9023 43.707 24.707C44.0977 24.3164 44.0977 23.6836 43.707 23.293L40.4141 20L43.707 16.707C44.0977 16.3164 44.0977 15.6836 43.707 15.293Z" fill="#FF7A5A"/>
<path d="M50.293 24.707C50.4883 24.9023 50.7441 25 51 25C51.2559 25 51.5117 24.9023 51.707 24.707L55.707 20.707C56.0977 20.3164 56.0977 19.6836 55.707 19.293L51.707 15.293C51.3164 14.9023 50.6836 14.9023 50.293 15.293C49.9023 15.6836 49.9023 16.3164 50.293 16.707L53.5859 20L50.293 23.293C49.9023 23.6836 49.9023 24.3164 50.293 24.707Z" fill="#FF7A5A"/>
<path d="M45.999 22.9999C46.3662 22.9999 46.7187 22.7978 46.8945 22.4472L48.8945 18.4472C49.1416 17.953 48.9414 17.3525 48.4473 17.1054C47.9521 16.8588 47.3535 17.0585 47.1055 17.5527L45.1055 21.5527C44.8584 22.0468 45.0586 22.6474 45.5527 22.8945C45.6963 22.9662 45.8486 22.9999 45.999 22.9999Z" fill="#FF7A5A"/>
<path d="M57 0H11C9.3457 0 8 1.3457 8 3V14C8 14.5522 8.44727 15 9 15C9.55273 15 10 14.5522 10 14V10H58V41C58 41.5513 57.5518 42 57 42H11C10.4482 42 10 41.5513 10 41V36C10 35.4478 9.55273 35 9 35C8.44727 35 8 35.4478 8 36V41C8 42.6543 9.3457 44 11 44H57C58.6543 44 60 42.6543 60 41V3C60 1.3457 58.6543 0 57 0ZM10 8V3C10 2.44873 10.4482 2 11 2H57C57.5518 2 58 2.44873 58 3V8H10Z" fill="#FF7A5A"/>
<path d="M12.29 4.29004C12.1094 4.47998 12 4.73975 12 5C12 5.12988 12.0195 5.25977 12.0801 5.37988C12.1299 5.5 12.2002 5.60986 12.29 5.70996C12.4795 5.88965 12.7402 6 13 6C13.2598 6 13.5195 5.88965 13.71 5.70996C13.7998 5.60986 13.8701 5.5 13.9199 5.37988C13.9697 5.25977 14 5.12988 14 5C14 4.73975 13.8896 4.47998 13.71 4.29004C13.3301 3.91992 12.6602 3.91992 12.29 4.29004Z" fill="#FF7A5A"/>
<path d="M17.71 4.29004C17.6602 4.25 17.6094 4.20996 17.5498 4.16992C17.5 4.12988 17.4395 4.09961 17.3799 4.07959C17.3193 4.0498 17.2598 4.02979 17.1895 4.02002C17.0596 3.98975 16.9297 3.98975 16.7998 4.02002C16.7402 4.02979 16.6797 4.0498 16.6201 4.07959C16.5596 4.09961 16.5 4.12988 16.4395 4.16992C16.3896 4.20996 16.3398 4.25 16.29 4.29004C16.2002 4.38965 16.1299 4.48975 16.0801 4.61963C16.0303 4.73975 16 4.86963 16 5C16 5.06006 16.0098 5.12988 16.0195 5.19971C16.0303 5.25977 16.0498 5.31982 16.0801 5.37988C16.0996 5.43994 16.1299 5.5 16.1699 5.56006C16.2002 5.60986 16.25 5.65967 16.29 5.70996C16.3398 5.75 16.3896 5.79004 16.4395 5.82959C16.5 5.86963 16.5596 5.8999 16.6201 5.91992C16.6797 5.94971 16.7402 5.96973 16.7998 5.97998C16.8701 5.98975 16.9297 6 17 6C17.0596 6 17.1299 5.98975 17.1895 5.97998C17.2598 5.96973 17.3193 5.94971 17.3799 5.91992C17.4395 5.8999 17.5 5.86963 17.5498 5.82959C17.6094 5.79004 17.6602 5.75 17.71 5.70996C17.8896 5.52002 18 5.25977 18 5C18 4.86963 17.9697 4.73975 17.9199 4.61963C17.8701 4.48975 17.7998 4.38965 17.71 4.29004Z" fill="#FF7A5A"/>
<path d="M21.71 4.29011C21.4297 4.00984 20.9795 3.91999 20.6201 4.07966C20.4902 4.12996 20.3896 4.19978 20.29 4.29011C20.2002 4.38972 20.1299 4.50007 20.0801 4.6197C20.0195 4.73982 20 4.8697 20 5.00007C20 5.25984 20.1094 5.52009 20.29 5.71003C20.3896 5.79988 20.4902 5.8697 20.6201 5.91999C20.7402 5.9698 20.8701 6.00007 21 6.00007C21.2598 6.00007 21.5195 5.88972 21.71 5.71003C21.8896 5.52009 22 5.25984 22 5.00007C22 4.8697 21.9697 4.73982 21.9199 4.6197C21.8701 4.50007 21.7998 4.38972 21.71 4.29011Z" fill="#FF7A5A"/>
<path d="M42 28C42 28.5522 42.4473 29 43 29H51C51.5527 29 52 28.5522 52 28C52 27.4478 51.5527 27 51 27H43C42.4473 27 42 27.4478 42 28Z" fill="#FF7A5A"/>
<path d="M43 33H49C49.5527 33 50 32.5522 50 32C50 31.4478 49.5527 31 49 31H43C42.4473 31 42 31.4478 42 32C42 32.5522 42.4473 33 43 33Z" fill="#FF7A5A"/>
<path d="M43 37H54C54.5527 37 55 36.5522 55 36C55 35.4478 54.5527 35 54 35H43C42.4473 35 42 35.4478 42 36C42 36.5522 42.4473 37 43 37Z" fill="#FF7A5A"/>
<path d="M54 31H53C52.4473 31 52 31.4478 52 32C52 32.5522 52.4473 33 53 33H54C54.5527 33 55 32.5522 55 32C55 31.4478 54.5527 31 54 31Z" fill="#FF7A5A"/>
<path d="M15.411 28H21.589C22.7787 30.928 25.65 33 29 33C33.4111 33 37 29.4111 37 25C37 20.5889 33.4111 17 29 17C25.65 17 22.7787 19.072 21.589 22H15.411C14.2213 19.072 11.35 17 8 17C3.58887 17 0 20.5889 0 25C0 29.4111 3.58887 33 8 33C11.35 33 14.2213 30.928 15.411 28ZM29 19C32.3086 19 35 21.6914 35 25C35 28.3086 32.3086 31 29 31C25.6914 31 23 28.3086 23 25C23 21.6914 25.6914 19 29 19ZM16 24H21V26H16V24ZM2 25C2 21.6914 4.69141 19 8 19C11.3086 19 14 21.6914 14 25C14 28.3086 11.3086 31 8 31C4.69141 31 2 28.3086 2 25Z" fill="#FF7A5A"/>
<path d="M6.3164 22.0513C5.78906 21.8755 5.22656 22.1597 5.05176 22.6836L4.05176 25.6836C3.87695 26.2076 4.16015 26.774 4.68359 26.9488C4.78906 26.9839 4.89551 27.0005 5 27.0005C5.41894 27.0005 5.80859 26.7354 5.94824 26.3164L6.94824 23.3164C7.12304 22.7925 6.83984 22.2261 6.3164 22.0513Z" fill="#FF7A5A"/>
<path d="M9.68359 26.9488C9.78906 26.9839 9.89551 27.0005 10 27.0005C10.4189 27.0005 10.8086 26.7354 10.9482 26.3164L11.9482 23.3164C12.123 22.7925 11.8398 22.2261 11.3164 22.0513C10.7881 21.8755 10.2266 22.1597 10.0518 22.6836L9.05176 25.6836C8.87695 26.2076 9.16015 26.774 9.68359 26.9488Z" fill="#FF7A5A"/>
<path d="M25.6836 26.9488C25.7891 26.9839 25.8955 27.0005 26 27.0005C26.4189 27.0005 26.8086 26.7354 26.9482 26.3164L27.9482 23.3164C28.123 22.7925 27.8398 22.2261 27.3164 22.0513C26.7871 21.8755 26.2266 22.1597 26.0518 22.6836L25.0518 25.6836C24.877 26.2076 25.1602 26.774 25.6836 26.9488Z" fill="#FF7A5A"/>
<path d="M30.6836 26.9488C30.7891 26.9839 30.8955 27.0005 31 27.0005C31.4189 27.0005 31.8086 26.7354 31.9482 26.3164L32.9482 23.3164C33.123 22.7925 32.8398 22.2261 32.3164 22.0513C31.7891 21.8755 31.2256 22.1597 31.0518 22.6836L30.0518 25.6836C29.877 26.2076 30.1602 26.774 30.6836 26.9488Z" fill="#FF7A5A"/>
</svg>
