<svg width="54" height="54" viewBox="0 0 54 54" fill="none" xmlns="http://www.w3.org/2000/svg">
<mask id="mask0_8010_809" style="mask-type:luminance" maskUnits="userSpaceOnUse" x="0" y="0" width="54" height="54">
<path d="M53 53V1H1V53H53Z" fill="white" stroke="white" stroke-width="2"/>
</mask>
<g mask="url(#mask0_8010_809)">
<path d="M51.0215 21.2246H48.3241C47.8298 19.3888 47.1027 17.6332 46.1525 15.9835L48.0513 14.0844C48.3131 13.8226 48.4604 13.4669 48.4604 13.0965C48.4599 12.7261 48.3126 12.3704 48.0508 12.1085L41.8741 5.93624C41.3292 5.39118 40.4449 5.39117 39.8994 5.93676L38.0032 7.83362C36.3537 6.88324 34.5982 6.15561 32.7621 5.66128V2.97879C32.7621 2.20739 32.137 1.58228 31.3656 1.58228H22.6339C21.8631 1.58228 21.2375 2.20739 21.2375 2.97879V5.66181C19.4018 6.15561 17.6464 6.88324 15.9968 7.83362L14.1002 5.93676C13.5552 5.39181 12.6709 5.39118 12.1255 5.93624L5.94934 12.109C5.68694 12.3709 5.53971 12.7261 5.53971 13.0965C5.53971 13.4669 5.68694 13.8226 5.94882 14.0844L7.84757 15.9835C6.8974 17.6332 6.16967 19.3882 5.67544 21.2246H2.98346C2.21206 21.2246 1.58694 21.8498 1.58694 22.6205L1.58209 31.3532C1.58146 31.7236 1.7288 32.0792 1.99068 32.3411C2.25245 32.603 2.60757 32.7503 2.9785 32.7503H5.67544C6.16967 34.5865 6.8974 36.342 7.84757 37.9919L5.93838 39.9013C5.39342 40.4462 5.39289 41.3306 5.93838 41.8761L12.1102 48.0528C12.372 48.3146 12.7271 48.4624 13.0975 48.4624H13.098C13.4684 48.4624 13.8235 48.3152 14.0854 48.0533L15.9963 46.1417C17.6464 47.092 19.4018 47.8198 21.2375 48.3141V51.0216C21.2375 51.793 21.8631 52.4182 22.6339 52.4182H31.3656C32.137 52.4182 32.7621 51.793 32.7621 51.0216V48.3141C34.5982 47.8198 36.3537 47.092 38.0032 46.1417L39.9146 48.0533C40.1765 48.3152 40.5316 48.4624 40.9025 48.4624C41.2724 48.4624 41.6281 48.3152 41.8899 48.0528L48.0617 41.8761C48.6066 41.3306 48.6066 40.4462 48.0617 39.9013L46.1525 37.9919C47.1027 36.342 47.8304 34.5865 48.3246 32.7503H51.0215C51.7928 32.7503 52.418 32.1251 52.418 31.3537V22.6212C52.418 21.8498 51.7928 21.2246 51.0215 21.2246Z" stroke="#FF7A5A" stroke-width="2" stroke-miterlimit="10" stroke-linejoin="round"/>
<path d="M41.515 27.0001C41.515 35.0165 35.0164 41.5151 27 41.5151C18.9836 41.5151 12.485 35.0165 12.485 27.0001C12.485 18.9837 18.9836 12.4851 27 12.4851C35.0164 12.4851 41.515 18.9837 41.515 27.0001Z" stroke="#FF7A5A" stroke-width="2" stroke-miterlimit="10" stroke-linejoin="round"/>
<path d="M27 33.7112C30.0018 33.7112 32.4353 31.2777 32.4353 28.2758C32.4353 27.123 31.9669 25.6567 30.1508 23.9811C27 21.0736 27 18.7081 27 18.7081C27 18.7081 27 21.0736 23.8491 23.9811C22.033 25.6567 21.5646 27.123 21.5646 28.2758C21.5646 31.2777 23.9981 33.7112 27 33.7112Z" stroke="#FF7A5A" stroke-width="2" stroke-miterlimit="10" stroke-linecap="round" stroke-linejoin="round"/>
<path d="M31.7195 40.7302L31.8814 39.1241C32.1777 36.2281 29.905 33.7111 26.9939 33.7111C24.0872 33.7111 21.8158 36.221 22.1054 39.1133L22.2687 40.726" stroke="#FF7A5A" stroke-width="2" stroke-miterlimit="10" stroke-linejoin="round"/>
</g>
</svg>
