<svg width="100%" height="100%" viewBox="0 0 527 427" fill="none" xmlns="http://www.w3.org/2000/svg">
<g filter="url(#filter0_d_10079_972)">
<rect x="15" y="7" width="497" height="397" rx="40" fill="white"/>
</g>
<path d="M15 47C15 24.9086 32.9086 7 55 7H472C494.091 7 512 24.9086 512 47V236H15V47Z" fill="#E7ECF2"/>
<path d="M187.125 101.5H252.042C254.871 101.5 257.167 99.204 257.167 96.375C257.167 93.546 254.871 91.25 252.042 91.25H187.125C184.296 91.25 182 93.546 182 96.375C182 99.204 184.296 101.5 187.125 101.5Z" fill="#90A4AE"/>
<path d="M187.125 122H252.042C254.871 122 257.167 119.704 257.167 116.875C257.167 114.046 254.871 111.75 252.042 111.75H187.125C184.296 111.75 182 114.046 182 116.875C182 119.704 184.296 122 187.125 122Z" fill="#90A4AE"/>
<path d="M187.125 142.5H252.042C254.871 142.5 257.167 140.204 257.167 137.375C257.167 134.546 254.871 132.25 252.042 132.25H187.125C184.296 132.25 182 134.546 182 137.375C182 140.204 184.296 142.5 187.125 142.5Z" fill="#90A4AE"/>
<path d="M187.125 163H252.042C254.871 163 257.167 160.704 257.167 157.875C257.167 155.046 254.871 152.75 252.042 152.75H187.125C184.296 152.75 182 155.046 182 157.875C182 160.704 184.296 163 187.125 163Z" fill="#90A4AE"/>
<path d="M187.125 183.5H252.042C254.871 183.5 257.167 181.204 257.167 178.375C257.167 175.546 254.871 173.25 252.042 173.25H187.125C184.296 173.25 182 175.546 182 178.375C182 181.204 184.296 183.5 187.125 183.5Z" fill="#90A4AE"/>
<path d="M187.125 204H252.042C254.871 204 257.167 201.704 257.167 198.875C257.167 196.046 254.871 193.75 252.042 193.75H187.125C184.296 193.75 182 196.046 182 198.875C182 201.704 184.296 204 187.125 204Z" fill="#90A4AE"/>
<path d="M334.042 40H248.625C242.031 40 236.667 45.3642 236.667 51.9583V69.0417C236.667 75.6358 242.031 81 248.625 81H334.042C340.636 81 346 75.6358 346 69.0417V51.9583C346 45.3642 340.636 40 334.042 40Z" fill="#7D8F97"/>
<path d="M202.5 81C213.822 81 223 71.8218 223 60.5C223 49.1782 213.822 40 202.5 40C191.178 40 182 49.1782 182 60.5C182 71.8218 191.178 81 202.5 81Z" fill="#90A4AE"/>
<path d="M202.5 60.5C202.5 49.1782 191.382 39.9133 185.252 49.432C183.195 52.6266 182 56.4266 182 60.5C182 64.5734 183.195 68.3734 185.252 71.568C191.382 81.0867 202.5 71.8218 202.5 60.5Z" fill="#7D8F97"/>
<path d="M294.757 60.5C294.757 49.1782 285.579 40 274.257 40H248.625C242.031 40 236.667 45.3642 236.667 51.9583V69.0417C236.667 75.6358 242.031 81 248.625 81H274.257C285.579 81 294.757 71.8218 294.757 60.5Z" fill="#90A4AE"/>
<path d="M334.042 91.25H282.792C276.198 91.25 270.833 96.6142 270.833 103.208V130.542C270.833 137.136 276.198 142.5 282.792 142.5H334.042C340.636 142.5 346 137.136 346 130.542V103.208C346 96.6142 340.636 91.25 334.042 91.25Z" fill="#CFD8DC"/>
<path d="M334.042 152.75H282.792C276.198 152.75 270.833 158.114 270.833 164.708V192.042C270.833 198.636 276.198 204 282.792 204H334.042C340.636 204 346 198.636 346 192.042V164.708C346 158.114 340.636 152.75 334.042 152.75Z" fill="#CFD8DC"/>
<path d="M219.583 96.375C219.583 93.5445 217.289 91.25 214.458 91.25H187.125C184.296 91.25 182 93.546 182 96.375C182 99.204 184.296 101.5 187.125 101.5H214.458C217.289 101.5 219.583 99.2055 219.583 96.375Z" fill="#7D8F97"/>
<path d="M219.583 116.875C219.583 114.045 217.289 111.75 214.458 111.75H187.125C184.296 111.75 182 114.046 182 116.875C182 119.704 184.296 122 187.125 122H214.458C217.289 122 219.583 119.705 219.583 116.875Z" fill="#7D8F97"/>
<path d="M219.583 137.375C219.583 134.545 217.289 132.25 214.458 132.25H187.125C184.296 132.25 182 134.546 182 137.375C182 140.204 184.296 142.5 187.125 142.5H214.458C217.289 142.5 219.583 140.205 219.583 137.375Z" fill="#7D8F97"/>
<path d="M219.583 157.875C219.583 155.045 217.289 152.75 214.458 152.75H187.125C184.296 152.75 182 155.046 182 157.875C182 160.704 184.296 163 187.125 163H214.458C217.289 163 219.583 160.705 219.583 157.875Z" fill="#7D8F97"/>
<path d="M219.583 178.375C219.583 175.545 217.289 173.25 214.458 173.25H187.125C184.296 173.25 182 175.546 182 178.375C182 181.204 184.296 183.5 187.125 183.5H214.458C217.289 183.5 219.583 181.205 219.583 178.375Z" fill="#7D8F97"/>
<path d="M219.583 198.875C219.583 196.045 217.289 193.75 214.458 193.75H187.125C184.296 193.75 182 196.046 182 198.875C182 201.704 184.296 204 187.125 204H214.458C217.289 204 219.583 201.705 219.583 198.875Z" fill="#7D8F97"/>
<path d="M74.232 274.664V290.344C74.232 292.52 73.6027 294.216 72.344 295.432C71.0853 296.627 69.4 297.224 67.288 297.224C65.1547 297.224 63.4267 296.605 62.104 295.368C60.8027 294.131 60.152 292.403 60.152 290.184H64.632C64.6533 291.144 64.8773 291.891 65.304 292.424C65.752 292.957 66.392 293.224 67.224 293.224C68.0347 293.224 68.6533 292.968 69.08 292.456C69.5067 291.944 69.72 291.24 69.72 290.344V274.664H74.232ZM87.33 297.288C85.6233 297.288 84.0873 296.915 82.722 296.168C81.3567 295.4 80.2793 294.323 79.49 292.936C78.722 291.549 78.338 289.949 78.338 288.136C78.338 286.323 78.7327 284.723 79.522 283.336C80.3327 281.949 81.4313 280.883 82.818 280.136C84.2047 279.368 85.7513 278.984 87.458 278.984C89.1647 278.984 90.7113 279.368 92.098 280.136C93.4847 280.883 94.5727 281.949 95.362 283.336C96.1727 284.723 96.578 286.323 96.578 288.136C96.578 289.949 96.162 291.549 95.33 292.936C94.5193 294.323 93.41 295.4 92.002 296.168C90.6153 296.915 89.058 297.288 87.33 297.288ZM87.33 293.384C88.1407 293.384 88.898 293.192 89.602 292.808C90.3273 292.403 90.9033 291.805 91.33 291.016C91.7567 290.227 91.97 289.267 91.97 288.136C91.97 286.451 91.522 285.16 90.626 284.264C89.7513 283.347 88.674 282.888 87.394 282.888C86.114 282.888 85.0367 283.347 84.162 284.264C83.3087 285.16 82.882 286.451 82.882 288.136C82.882 289.821 83.298 291.123 84.13 292.04C84.9833 292.936 86.05 293.384 87.33 293.384ZM116.6 279.272V297H112.088V294.76C111.512 295.528 110.755 296.136 109.816 296.584C108.899 297.011 107.896 297.224 106.808 297.224C105.422 297.224 104.195 296.936 103.128 296.36C102.062 295.763 101.219 294.899 100.6 293.768C100.003 292.616 99.7043 291.251 99.7043 289.672V279.272H104.184V289.032C104.184 290.44 104.536 291.528 105.24 292.296C105.944 293.043 106.904 293.416 108.12 293.416C109.358 293.416 110.328 293.043 111.032 292.296C111.736 291.528 112.088 290.44 112.088 289.032V279.272H116.6ZM125.501 282.024C126.077 281.085 126.823 280.349 127.741 279.816C128.679 279.283 129.746 279.016 130.941 279.016V283.72H129.757C128.349 283.72 127.282 284.051 126.557 284.712C125.853 285.373 125.501 286.525 125.501 288.168V297H121.021V279.272H125.501V282.024ZM143.782 279.016C145.894 279.016 147.601 279.688 148.902 281.032C150.203 282.355 150.854 284.211 150.854 286.6V297H146.374V287.208C146.374 285.8 146.022 284.723 145.318 283.976C144.614 283.208 143.654 282.824 142.438 282.824C141.201 282.824 140.219 283.208 139.494 283.976C138.79 284.723 138.438 285.8 138.438 287.208V297H133.958V279.272H138.438V281.48C139.035 280.712 139.793 280.115 140.71 279.688C141.649 279.24 142.673 279.016 143.782 279.016ZM153.962 288.072C153.962 286.28 154.314 284.691 155.018 283.304C155.744 281.917 156.714 280.851 157.93 280.104C159.168 279.357 160.544 278.984 162.058 278.984C163.381 278.984 164.533 279.251 165.514 279.784C166.517 280.317 167.317 280.989 167.914 281.8V279.272H172.426V297H167.914V294.408C167.338 295.24 166.538 295.933 165.514 296.488C164.512 297.021 163.349 297.288 162.026 297.288C160.533 297.288 159.168 296.904 157.93 296.136C156.714 295.368 155.744 294.291 155.018 292.904C154.314 291.496 153.962 289.885 153.962 288.072ZM167.914 288.136C167.914 287.048 167.701 286.12 167.274 285.352C166.848 284.563 166.272 283.965 165.546 283.56C164.821 283.133 164.042 282.92 163.21 282.92C162.378 282.92 161.61 283.123 160.906 283.528C160.202 283.933 159.626 284.531 159.178 285.32C158.752 286.088 158.538 287.005 158.538 288.072C158.538 289.139 158.752 290.077 159.178 290.888C159.626 291.677 160.202 292.285 160.906 292.712C161.632 293.139 162.4 293.352 163.21 293.352C164.042 293.352 164.821 293.149 165.546 292.744C166.272 292.317 166.848 291.72 167.274 290.952C167.701 290.163 167.914 289.224 167.914 288.136ZM181.282 273.32V297H176.802V273.32H181.282ZM192.181 288.072C192.181 286.28 192.533 284.691 193.237 283.304C193.962 281.917 194.933 280.851 196.149 280.104C197.386 279.357 198.762 278.984 200.277 278.984C201.6 278.984 202.752 279.251 203.733 279.784C204.736 280.317 205.536 280.989 206.133 281.8V279.272H210.645V297H206.133V294.408C205.557 295.24 204.757 295.933 203.733 296.488C202.73 297.021 201.568 297.288 200.245 297.288C198.752 297.288 197.386 296.904 196.149 296.136C194.933 295.368 193.962 294.291 193.237 292.904C192.533 291.496 192.181 289.885 192.181 288.072ZM206.133 288.136C206.133 287.048 205.92 286.12 205.493 285.352C205.066 284.563 204.49 283.965 203.765 283.56C203.04 283.133 202.261 282.92 201.429 282.92C200.597 282.92 199.829 283.123 199.125 283.528C198.421 283.933 197.845 284.531 197.397 285.32C196.97 286.088 196.757 287.005 196.757 288.072C196.757 289.139 196.97 290.077 197.397 290.888C197.845 291.677 198.421 292.285 199.125 292.712C199.85 293.139 200.618 293.352 201.429 293.352C202.261 293.352 203.04 293.149 203.765 292.744C204.49 292.317 205.066 291.72 205.493 290.952C205.92 290.163 206.133 289.224 206.133 288.136ZM219.501 282.024C220.077 281.085 220.823 280.349 221.741 279.816C222.679 279.283 223.746 279.016 224.941 279.016V283.72H223.757C222.349 283.72 221.282 284.051 220.557 284.712C219.853 285.373 219.501 286.525 219.501 288.168V297H215.021V279.272H219.501V282.024ZM233.174 282.952V291.528C233.174 292.125 233.313 292.563 233.59 292.84C233.889 293.096 234.379 293.224 235.062 293.224H237.142V297H234.326C230.55 297 228.662 295.165 228.662 291.496V282.952H226.55V279.272H228.662V274.888H233.174V279.272H237.142V282.952H233.174ZM242.636 277.16C241.847 277.16 241.186 276.915 240.652 276.424C240.14 275.912 239.884 275.283 239.884 274.536C239.884 273.789 240.14 273.171 240.652 272.68C241.186 272.168 241.847 271.912 242.636 271.912C243.426 271.912 244.076 272.168 244.588 272.68C245.122 273.171 245.388 273.789 245.388 274.536C245.388 275.283 245.122 275.912 244.588 276.424C244.076 276.915 243.426 277.16 242.636 277.16ZM244.844 279.272V297H240.364V279.272H244.844ZM248.118 288.136C248.118 286.301 248.492 284.701 249.239 283.336C249.985 281.949 251.02 280.883 252.343 280.136C253.665 279.368 255.18 278.984 256.887 278.984C259.084 278.984 260.897 279.539 262.327 280.648C263.777 281.736 264.748 283.272 265.239 285.256H260.407C260.151 284.488 259.713 283.891 259.095 283.464C258.497 283.016 257.751 282.792 256.855 282.792C255.575 282.792 254.561 283.261 253.815 284.2C253.068 285.117 252.695 286.429 252.695 288.136C252.695 289.821 253.068 291.133 253.815 292.072C254.561 292.989 255.575 293.448 256.855 293.448C258.668 293.448 259.852 292.637 260.407 291.016H265.239C264.748 292.936 263.777 294.461 262.327 295.592C260.876 296.723 259.063 297.288 256.887 297.288C255.18 297.288 253.665 296.915 252.343 296.168C251.02 295.4 249.985 294.333 249.239 292.968C248.492 291.581 248.118 289.971 248.118 288.136ZM273.001 273.32V297H268.521V273.32H273.001ZM293.907 287.752C293.907 288.392 293.864 288.968 293.779 289.48H280.819C280.925 290.76 281.373 291.763 282.163 292.488C282.952 293.213 283.923 293.576 285.075 293.576C286.739 293.576 287.923 292.861 288.627 291.432H293.459C292.947 293.139 291.965 294.547 290.515 295.656C289.064 296.744 287.283 297.288 285.171 297.288C283.464 297.288 281.928 296.915 280.563 296.168C279.219 295.4 278.163 294.323 277.395 292.936C276.648 291.549 276.275 289.949 276.275 288.136C276.275 286.301 276.648 284.691 277.395 283.304C278.141 281.917 279.187 280.851 280.531 280.104C281.875 279.357 283.421 278.984 285.171 278.984C286.856 278.984 288.36 279.347 289.683 280.072C291.027 280.797 292.061 281.832 292.787 283.176C293.533 284.499 293.907 286.024 293.907 287.752ZM289.267 286.472C289.245 285.32 288.829 284.403 288.019 283.72C287.208 283.016 286.216 282.664 285.043 282.664C283.933 282.664 282.995 283.005 282.227 283.688C281.48 284.349 281.021 285.277 280.851 286.472H289.267ZM303.961 297.288C302.51 297.288 301.209 297.032 300.057 296.52C298.905 295.987 297.987 295.272 297.305 294.376C296.643 293.48 296.281 292.488 296.217 291.4H300.729C300.814 292.083 301.145 292.648 301.721 293.096C302.318 293.544 303.054 293.768 303.929 293.768C304.782 293.768 305.443 293.597 305.913 293.256C306.403 292.915 306.649 292.477 306.649 291.944C306.649 291.368 306.35 290.941 305.753 290.664C305.177 290.365 304.249 290.045 302.969 289.704C301.646 289.384 300.558 289.053 299.705 288.712C298.873 288.371 298.147 287.848 297.529 287.144C296.931 286.44 296.633 285.491 296.633 284.296C296.633 283.315 296.91 282.419 297.465 281.608C298.041 280.797 298.851 280.157 299.897 279.688C300.963 279.219 302.211 278.984 303.641 278.984C305.753 278.984 307.438 279.517 308.697 280.584C309.955 281.629 310.649 283.048 310.777 284.84H306.489C306.425 284.136 306.126 283.581 305.593 283.176C305.081 282.749 304.387 282.536 303.513 282.536C302.702 282.536 302.073 282.685 301.625 282.984C301.198 283.283 300.985 283.699 300.985 284.232C300.985 284.829 301.283 285.288 301.881 285.608C302.478 285.907 303.406 286.216 304.665 286.536C305.945 286.856 307.001 287.187 307.833 287.528C308.665 287.869 309.379 288.403 309.977 289.128C310.595 289.832 310.915 290.771 310.937 291.944C310.937 292.968 310.649 293.885 310.073 294.696C309.518 295.507 308.707 296.147 307.641 296.616C306.595 297.064 305.369 297.288 303.961 297.288Z" fill="#292929"/>
<path d="M63.088 337.098C62.444 337.098 61.8747 336.986 61.38 336.762C60.8947 336.538 60.512 336.225 60.232 335.824C59.952 335.423 59.8027 334.975 59.784 334.48H60.82C60.8667 334.956 61.0767 335.376 61.45 335.74C61.8233 336.095 62.3693 336.272 63.088 336.272C63.7507 336.272 64.2733 336.104 64.656 335.768C65.048 335.423 65.244 334.989 65.244 334.466C65.244 334.046 65.1367 333.71 64.922 333.458C64.7073 333.197 64.4413 333.005 64.124 332.884C63.8067 332.753 63.368 332.613 62.808 332.464C62.1547 332.287 61.6367 332.114 61.254 331.946C60.8713 331.778 60.5447 331.517 60.274 331.162C60.0033 330.807 59.868 330.327 59.868 329.72C59.868 329.216 59.9987 328.768 60.26 328.376C60.5213 327.975 60.89 327.662 61.366 327.438C61.842 327.214 62.388 327.102 63.004 327.102C63.9093 327.102 64.6373 327.326 65.188 327.774C65.748 328.213 66.07 328.782 66.154 329.482H65.09C65.0247 329.081 64.8053 328.726 64.432 328.418C64.0587 328.101 63.5547 327.942 62.92 327.942C62.332 327.942 61.842 328.101 61.45 328.418C61.058 328.726 60.862 329.151 60.862 329.692C60.862 330.103 60.9693 330.434 61.184 330.686C61.3987 330.938 61.6647 331.129 61.982 331.26C62.3087 331.391 62.7473 331.531 63.298 331.68C63.9327 331.857 64.446 332.035 64.838 332.212C65.23 332.38 65.5613 332.641 65.832 332.996C66.1027 333.351 66.238 333.827 66.238 334.424C66.238 334.881 66.1167 335.315 65.874 335.726C65.6313 336.137 65.272 336.468 64.796 336.72C64.32 336.972 63.7507 337.098 63.088 337.098ZM75.0477 332.786C75.0477 333.122 75.0384 333.379 75.0197 333.556H68.6777C68.7057 334.135 68.8457 334.629 69.0977 335.04C69.3497 335.451 69.6811 335.763 70.0917 335.978C70.5024 336.183 70.9504 336.286 71.4357 336.286C72.0704 336.286 72.6024 336.132 73.0317 335.824C73.4704 335.516 73.7597 335.101 73.8997 334.578H74.9357C74.7491 335.325 74.3477 335.936 73.7317 336.412C73.1251 336.879 72.3597 337.112 71.4357 337.112C70.7171 337.112 70.0731 336.953 69.5037 336.636C68.9344 336.309 68.4864 335.852 68.1597 335.264C67.8424 334.667 67.6837 333.971 67.6837 333.178C67.6837 332.385 67.8424 331.689 68.1597 331.092C68.4771 330.495 68.9204 330.037 69.4897 329.72C70.0591 329.403 70.7077 329.244 71.4357 329.244C72.1637 329.244 72.7984 329.403 73.3397 329.72C73.8904 330.037 74.3104 330.467 74.5997 331.008C74.8984 331.54 75.0477 332.133 75.0477 332.786ZM74.0537 332.758C74.0631 332.189 73.9464 331.703 73.7037 331.302C73.4704 330.901 73.1484 330.597 72.7377 330.392C72.3271 330.187 71.8791 330.084 71.3937 330.084C70.6657 330.084 70.0451 330.317 69.5317 330.784C69.0184 331.251 68.7337 331.909 68.6777 332.758H74.0537ZM77.8207 326.64V337H76.8407V326.64H77.8207ZM86.9559 332.786C86.9559 333.122 86.9466 333.379 86.9279 333.556H80.5859C80.6139 334.135 80.7539 334.629 81.0059 335.04C81.2579 335.451 81.5893 335.763 81.9999 335.978C82.4106 336.183 82.8586 336.286 83.3439 336.286C83.9786 336.286 84.5106 336.132 84.9399 335.824C85.3786 335.516 85.6679 335.101 85.8079 334.578H86.8439C86.6573 335.325 86.2559 335.936 85.6399 336.412C85.0333 336.879 84.2679 337.112 83.3439 337.112C82.6253 337.112 81.9813 336.953 81.4119 336.636C80.8426 336.309 80.3946 335.852 80.0679 335.264C79.7506 334.667 79.5919 333.971 79.5919 333.178C79.5919 332.385 79.7506 331.689 80.0679 331.092C80.3853 330.495 80.8286 330.037 81.3979 329.72C81.9673 329.403 82.6159 329.244 83.3439 329.244C84.0719 329.244 84.7066 329.403 85.2479 329.72C85.7986 330.037 86.2186 330.467 86.5079 331.008C86.8066 331.54 86.9559 332.133 86.9559 332.786ZM85.9619 332.758C85.9713 332.189 85.8546 331.703 85.6119 331.302C85.3786 330.901 85.0566 330.597 84.6459 330.392C84.2353 330.187 83.7873 330.084 83.3019 330.084C82.5739 330.084 81.9533 330.317 81.4399 330.784C80.9266 331.251 80.6419 331.909 80.5859 332.758H85.9619ZM88.3009 333.178C88.3009 332.385 88.4596 331.694 88.7769 331.106C89.0942 330.509 89.5329 330.051 90.0929 329.734C90.6529 329.407 91.2922 329.244 92.0109 329.244C92.9536 329.244 93.7282 329.477 94.3349 329.944C94.9509 330.411 95.3476 331.045 95.5249 331.848H94.4749C94.3442 331.297 94.0596 330.868 93.6209 330.56C93.1916 330.243 92.6549 330.084 92.0109 330.084C91.4976 330.084 91.0356 330.201 90.6249 330.434C90.2142 330.667 89.8876 331.017 89.6449 331.484C89.4116 331.941 89.2949 332.506 89.2949 333.178C89.2949 333.85 89.4116 334.419 89.6449 334.886C89.8876 335.353 90.2142 335.703 90.6249 335.936C91.0356 336.169 91.4976 336.286 92.0109 336.286C92.6549 336.286 93.1916 336.132 93.6209 335.824C94.0596 335.507 94.3442 335.068 94.4749 334.508H95.5249C95.3476 335.292 94.9509 335.922 94.3349 336.398C93.7189 336.874 92.9442 337.112 92.0109 337.112C91.2922 337.112 90.6529 336.953 90.0929 336.636C89.5329 336.309 89.0942 335.852 88.7769 335.264C88.4596 334.667 88.3009 333.971 88.3009 333.178ZM98.6088 330.182V334.928C98.6088 335.395 98.6975 335.717 98.8748 335.894C99.0522 336.071 99.3648 336.16 99.8128 336.16H100.709V337H99.6588C98.9682 337 98.4548 336.841 98.1188 336.524C97.7828 336.197 97.6148 335.665 97.6148 334.928V330.182H96.5508V329.356H97.6148V327.438H98.6088V329.356H100.709V330.182H98.6088ZM109.177 330.182H107.399V337H106.419V330.182H105.355V329.356H106.419V328.824C106.419 327.993 106.629 327.382 107.049 326.99C107.478 326.598 108.169 326.402 109.121 326.402V327.242C108.486 327.242 108.038 327.363 107.777 327.606C107.525 327.849 107.399 328.255 107.399 328.824V329.356H109.177V330.182ZM111.7 330.714C111.914 330.238 112.241 329.869 112.68 329.608C113.128 329.347 113.674 329.216 114.318 329.216V330.238H114.052C113.342 330.238 112.773 330.429 112.344 330.812C111.914 331.195 111.7 331.834 111.7 332.73V337H110.72V329.356H111.7V330.714ZM119.138 337.112C118.419 337.112 117.771 336.953 117.192 336.636C116.623 336.309 116.17 335.852 115.834 335.264C115.507 334.667 115.344 333.971 115.344 333.178C115.344 332.385 115.512 331.694 115.848 331.106C116.184 330.509 116.641 330.051 117.22 329.734C117.799 329.407 118.447 329.244 119.166 329.244C119.885 329.244 120.533 329.407 121.112 329.734C121.7 330.051 122.157 330.509 122.484 331.106C122.82 331.694 122.988 332.385 122.988 333.178C122.988 333.962 122.82 334.653 122.484 335.25C122.148 335.847 121.686 336.309 121.098 336.636C120.51 336.953 119.857 337.112 119.138 337.112ZM119.138 336.258C119.642 336.258 120.109 336.146 120.538 335.922C120.967 335.689 121.313 335.343 121.574 334.886C121.845 334.419 121.98 333.85 121.98 333.178C121.98 332.506 121.849 331.941 121.588 331.484C121.327 331.017 120.981 330.672 120.552 330.448C120.123 330.215 119.656 330.098 119.152 330.098C118.648 330.098 118.181 330.215 117.752 330.448C117.323 330.672 116.977 331.017 116.716 331.484C116.464 331.941 116.338 332.506 116.338 333.178C116.338 333.85 116.464 334.419 116.716 334.886C116.977 335.343 117.318 335.689 117.738 335.922C118.167 336.146 118.634 336.258 119.138 336.258ZM133.874 329.216C134.77 329.216 135.498 329.501 136.058 330.07C136.628 330.63 136.912 331.447 136.912 332.52V337H135.946V332.632C135.946 331.801 135.746 331.167 135.344 330.728C134.943 330.289 134.397 330.07 133.706 330.07C132.988 330.07 132.414 330.308 131.984 330.784C131.555 331.26 131.34 331.951 131.34 332.856V337H130.374V332.632C130.374 331.801 130.174 331.167 129.772 330.728C129.371 330.289 128.82 330.07 128.12 330.07C127.402 330.07 126.828 330.308 126.398 330.784C125.969 331.26 125.754 331.951 125.754 332.856V337H124.774V329.356H125.754V330.672C125.997 330.196 126.342 329.837 126.79 329.594C127.238 329.342 127.738 329.216 128.288 329.216C128.951 329.216 129.53 329.375 130.024 329.692C130.528 330.009 130.892 330.476 131.116 331.092C131.322 330.485 131.672 330.023 132.166 329.706C132.67 329.379 133.24 329.216 133.874 329.216ZM142.483 333.164C142.483 332.38 142.637 331.694 142.945 331.106C143.262 330.509 143.696 330.051 144.247 329.734C144.807 329.407 145.437 329.244 146.137 329.244C146.865 329.244 147.49 329.412 148.013 329.748C148.545 330.084 148.927 330.513 149.161 331.036V329.356H150.141V337H149.161V335.306C148.918 335.829 148.531 336.263 147.999 336.608C147.476 336.944 146.851 337.112 146.123 337.112C145.432 337.112 144.807 336.949 144.247 336.622C143.696 336.295 143.262 335.833 142.945 335.236C142.637 334.639 142.483 333.948 142.483 333.164ZM149.161 333.178C149.161 332.562 149.035 332.021 148.783 331.554C148.531 331.087 148.185 330.728 147.747 330.476C147.317 330.224 146.841 330.098 146.319 330.098C145.777 330.098 145.292 330.219 144.863 330.462C144.433 330.705 144.093 331.059 143.841 331.526C143.598 331.983 143.477 332.529 143.477 333.164C143.477 333.789 143.598 334.34 143.841 334.816C144.093 335.283 144.433 335.642 144.863 335.894C145.292 336.137 145.777 336.258 146.319 336.258C146.841 336.258 147.317 336.132 147.747 335.88C148.185 335.628 148.531 335.269 148.783 334.802C149.035 334.335 149.161 333.794 149.161 333.178ZM155.962 329.216C156.876 329.216 157.623 329.501 158.202 330.07C158.78 330.63 159.07 331.447 159.07 332.52V337H158.104V332.632C158.104 331.801 157.894 331.167 157.474 330.728C157.063 330.289 156.498 330.07 155.78 330.07C155.042 330.07 154.454 330.303 154.016 330.77C153.577 331.237 153.358 331.923 153.358 332.828V337H152.378V329.356H153.358V330.658C153.6 330.191 153.95 329.837 154.408 329.594C154.865 329.342 155.383 329.216 155.962 329.216ZM164.631 333.164C164.631 332.38 164.785 331.694 165.093 331.106C165.41 330.509 165.844 330.051 166.395 329.734C166.955 329.407 167.585 329.244 168.285 329.244C169.013 329.244 169.638 329.412 170.161 329.748C170.693 330.084 171.076 330.513 171.309 331.036V329.356H172.289V337H171.309V335.306C171.066 335.829 170.679 336.263 170.147 336.608C169.624 336.944 168.999 337.112 168.271 337.112C167.58 337.112 166.955 336.949 166.395 336.622C165.844 336.295 165.41 335.833 165.093 335.236C164.785 334.639 164.631 333.948 164.631 333.164ZM171.309 333.178C171.309 332.562 171.183 332.021 170.931 331.554C170.679 331.087 170.334 330.728 169.895 330.476C169.466 330.224 168.99 330.098 168.467 330.098C167.926 330.098 167.44 330.219 167.011 330.462C166.582 330.705 166.241 331.059 165.989 331.526C165.746 331.983 165.625 332.529 165.625 333.164C165.625 333.789 165.746 334.34 165.989 334.816C166.241 335.283 166.582 335.642 167.011 335.894C167.44 336.137 167.926 336.258 168.467 336.258C168.99 336.258 169.466 336.132 169.895 335.88C170.334 335.628 170.679 335.269 170.931 334.802C171.183 334.335 171.309 333.794 171.309 333.178ZM175.506 330.714C175.721 330.238 176.048 329.869 176.486 329.608C176.934 329.347 177.48 329.216 178.124 329.216V330.238H177.858C177.149 330.238 176.58 330.429 176.15 330.812C175.721 331.195 175.506 331.834 175.506 332.73V337H174.526V329.356H175.506V330.714ZM180.579 330.714C180.793 330.238 181.12 329.869 181.559 329.608C182.007 329.347 182.553 329.216 183.197 329.216V330.238H182.931C182.221 330.238 181.652 330.429 181.223 330.812C180.793 331.195 180.579 331.834 180.579 332.73V337H179.599V329.356H180.579V330.714ZM184.223 333.164C184.223 332.38 184.377 331.694 184.685 331.106C185.002 330.509 185.436 330.051 185.987 329.734C186.547 329.407 187.177 329.244 187.877 329.244C188.605 329.244 189.23 329.412 189.753 329.748C190.285 330.084 190.667 330.513 190.901 331.036V329.356H191.881V337H190.901V335.306C190.658 335.829 190.271 336.263 189.739 336.608C189.216 336.944 188.591 337.112 187.863 337.112C187.172 337.112 186.547 336.949 185.987 336.622C185.436 336.295 185.002 335.833 184.685 335.236C184.377 334.639 184.223 333.948 184.223 333.164ZM190.901 333.178C190.901 332.562 190.775 332.021 190.523 331.554C190.271 331.087 189.925 330.728 189.487 330.476C189.057 330.224 188.581 330.098 188.059 330.098C187.517 330.098 187.032 330.219 186.603 330.462C186.173 330.705 185.833 331.059 185.581 331.526C185.338 331.983 185.217 332.529 185.217 333.164C185.217 333.789 185.338 334.34 185.581 334.816C185.833 335.283 186.173 335.642 186.603 335.894C187.032 336.137 187.517 336.258 188.059 336.258C188.581 336.258 189.057 336.132 189.487 335.88C189.925 335.628 190.271 335.269 190.523 334.802C190.775 334.335 190.901 333.794 190.901 333.178ZM200.418 329.356L195.882 340.598H194.86L196.344 336.958L193.208 329.356H194.286L196.89 335.88L199.41 329.356H200.418ZM208.935 337.112C208.216 337.112 207.567 336.953 206.989 336.636C206.419 336.309 205.967 335.852 205.631 335.264C205.304 334.667 205.141 333.971 205.141 333.178C205.141 332.385 205.309 331.694 205.645 331.106C205.981 330.509 206.438 330.051 207.017 329.734C207.595 329.407 208.244 329.244 208.963 329.244C209.681 329.244 210.33 329.407 210.909 329.734C211.497 330.051 211.954 330.509 212.281 331.106C212.617 331.694 212.785 332.385 212.785 333.178C212.785 333.962 212.617 334.653 212.281 335.25C211.945 335.847 211.483 336.309 210.895 336.636C210.307 336.953 209.653 337.112 208.935 337.112ZM208.935 336.258C209.439 336.258 209.905 336.146 210.335 335.922C210.764 335.689 211.109 335.343 211.371 334.886C211.641 334.419 211.777 333.85 211.777 333.178C211.777 332.506 211.646 331.941 211.385 331.484C211.123 331.017 210.778 330.672 210.349 330.448C209.919 330.215 209.453 330.098 208.949 330.098C208.445 330.098 207.978 330.215 207.549 330.448C207.119 330.672 206.774 331.017 206.513 331.484C206.261 331.941 206.135 332.506 206.135 333.178C206.135 333.85 206.261 334.419 206.513 334.886C206.774 335.343 207.115 335.689 207.535 335.922C207.964 336.146 208.431 336.258 208.935 336.258ZM217.581 330.182H215.803V337H214.823V330.182H213.759V329.356H214.823V328.824C214.823 327.993 215.033 327.382 215.453 326.99C215.883 326.598 216.573 326.402 217.525 326.402V327.242C216.891 327.242 216.443 327.363 216.181 327.606C215.929 327.849 215.803 328.255 215.803 328.824V329.356H217.581V330.182ZM223.526 327.914C223.33 327.914 223.162 327.844 223.022 327.704C222.882 327.564 222.812 327.391 222.812 327.186C222.812 326.981 222.882 326.813 223.022 326.682C223.162 326.542 223.33 326.472 223.526 326.472C223.722 326.472 223.885 326.542 224.016 326.682C224.156 326.813 224.226 326.981 224.226 327.186C224.226 327.391 224.156 327.564 224.016 327.704C223.885 327.844 223.722 327.914 223.526 327.914ZM224.002 338.806C224.002 339.422 223.848 339.875 223.54 340.164C223.232 340.463 222.77 340.612 222.154 340.612H221.468V339.772H222C222.364 339.772 222.625 339.693 222.784 339.534C222.942 339.385 223.022 339.128 223.022 338.764V329.356H224.002V338.806ZM229.593 337.112C228.874 337.112 228.226 336.953 227.647 336.636C227.078 336.309 226.625 335.852 226.289 335.264C225.962 334.667 225.799 333.971 225.799 333.178C225.799 332.385 225.967 331.694 226.303 331.106C226.639 330.509 227.096 330.051 227.675 329.734C228.254 329.407 228.902 329.244 229.621 329.244C230.34 329.244 230.988 329.407 231.567 329.734C232.155 330.051 232.612 330.509 232.939 331.106C233.275 331.694 233.443 332.385 233.443 333.178C233.443 333.962 233.275 334.653 232.939 335.25C232.603 335.847 232.141 336.309 231.553 336.636C230.965 336.953 230.312 337.112 229.593 337.112ZM229.593 336.258C230.097 336.258 230.564 336.146 230.993 335.922C231.422 335.689 231.768 335.343 232.029 334.886C232.3 334.419 232.435 333.85 232.435 333.178C232.435 332.506 232.304 331.941 232.043 331.484C231.782 331.017 231.436 330.672 231.007 330.448C230.578 330.215 230.111 330.098 229.607 330.098C229.103 330.098 228.636 330.215 228.207 330.448C227.778 330.672 227.432 331.017 227.171 331.484C226.919 331.941 226.793 332.506 226.793 333.178C226.793 333.85 226.919 334.419 227.171 334.886C227.432 335.343 227.773 335.689 228.193 335.922C228.622 336.146 229.089 336.258 229.593 336.258ZM241.851 329.356V337H240.871V335.656C240.647 336.132 240.302 336.496 239.835 336.748C239.369 337 238.846 337.126 238.267 337.126C237.353 337.126 236.606 336.846 236.027 336.286C235.449 335.717 235.159 334.895 235.159 333.822V329.356H236.125V333.71C236.125 334.541 236.331 335.175 236.741 335.614C237.161 336.053 237.731 336.272 238.449 336.272C239.187 336.272 239.775 336.039 240.213 335.572C240.652 335.105 240.871 334.419 240.871 333.514V329.356H241.851ZM245.069 330.714C245.283 330.238 245.61 329.869 246.049 329.608C246.497 329.347 247.043 329.216 247.687 329.216V330.238H247.421C246.711 330.238 246.142 330.429 245.713 330.812C245.283 331.195 245.069 331.834 245.069 332.73V337H244.089V329.356H245.069V330.714ZM252.745 329.216C253.66 329.216 254.406 329.501 254.985 330.07C255.564 330.63 255.853 331.447 255.853 332.52V337H254.887V332.632C254.887 331.801 254.677 331.167 254.257 330.728C253.846 330.289 253.282 330.07 252.563 330.07C251.826 330.07 251.238 330.303 250.799 330.77C250.36 331.237 250.141 331.923 250.141 332.828V337H249.161V329.356H250.141V330.658C250.384 330.191 250.734 329.837 251.191 329.594C251.648 329.342 252.166 329.216 252.745 329.216ZM257.572 333.164C257.572 332.38 257.726 331.694 258.034 331.106C258.352 330.509 258.786 330.051 259.336 329.734C259.896 329.407 260.526 329.244 261.226 329.244C261.954 329.244 262.58 329.412 263.102 329.748C263.634 330.084 264.017 330.513 264.25 331.036V329.356H265.23V337H264.25V335.306C264.008 335.829 263.62 336.263 263.088 336.608C262.566 336.944 261.94 337.112 261.212 337.112C260.522 337.112 259.896 336.949 259.336 336.622C258.786 336.295 258.352 335.833 258.034 335.236C257.726 334.639 257.572 333.948 257.572 333.164ZM264.25 333.178C264.25 332.562 264.124 332.021 263.872 331.554C263.62 331.087 263.275 330.728 262.836 330.476C262.407 330.224 261.931 330.098 261.408 330.098C260.867 330.098 260.382 330.219 259.952 330.462C259.523 330.705 259.182 331.059 258.93 331.526C258.688 331.983 258.566 332.529 258.566 333.164C258.566 333.789 258.688 334.34 258.93 334.816C259.182 335.283 259.523 335.642 259.952 335.894C260.382 336.137 260.867 336.258 261.408 336.258C261.931 336.258 262.407 336.132 262.836 335.88C263.275 335.628 263.62 335.269 263.872 334.802C264.124 334.335 264.25 333.794 264.25 333.178ZM268.448 326.64V337H267.468V326.64H268.448ZM275.783 330.182V334.928C275.783 335.395 275.871 335.717 276.049 335.894C276.226 336.071 276.539 336.16 276.987 336.16H277.883V337H276.833C276.142 337 275.629 336.841 275.293 336.524C274.957 336.197 274.789 335.665 274.789 334.928V330.182H273.725V329.356H274.789V327.438H275.783V329.356H277.883V330.182H275.783ZM286.415 332.786C286.415 333.122 286.406 333.379 286.387 333.556H280.045C280.073 334.135 280.213 334.629 280.465 335.04C280.717 335.451 281.048 335.763 281.459 335.978C281.87 336.183 282.318 336.286 282.803 336.286C283.438 336.286 283.97 336.132 284.399 335.824C284.838 335.516 285.127 335.101 285.267 334.578H286.303C286.116 335.325 285.715 335.936 285.099 336.412C284.492 336.879 283.727 337.112 282.803 337.112C282.084 337.112 281.44 336.953 280.871 336.636C280.302 336.309 279.854 335.852 279.527 335.264C279.21 334.667 279.051 333.971 279.051 333.178C279.051 332.385 279.21 331.689 279.527 331.092C279.844 330.495 280.288 330.037 280.857 329.72C281.426 329.403 282.075 329.244 282.803 329.244C283.531 329.244 284.166 329.403 284.707 329.72C285.258 330.037 285.678 330.467 285.967 331.008C286.266 331.54 286.415 332.133 286.415 332.786ZM285.421 332.758C285.43 332.189 285.314 331.703 285.071 331.302C284.838 330.901 284.516 330.597 284.105 330.392C283.694 330.187 283.246 330.084 282.761 330.084C282.033 330.084 281.412 330.317 280.899 330.784C280.386 331.251 280.101 331.909 280.045 332.758H285.421ZM297.308 329.216C298.204 329.216 298.932 329.501 299.492 330.07C300.061 330.63 300.346 331.447 300.346 332.52V337H299.38V332.632C299.38 331.801 299.179 331.167 298.778 330.728C298.377 330.289 297.831 330.07 297.14 330.07C296.421 330.07 295.847 330.308 295.418 330.784C294.989 331.26 294.774 331.951 294.774 332.856V337H293.808V332.632C293.808 331.801 293.607 331.167 293.206 330.728C292.805 330.289 292.254 330.07 291.554 330.07C290.835 330.07 290.261 330.308 289.832 330.784C289.403 331.26 289.188 331.951 289.188 332.856V337H288.208V329.356H289.188V330.672C289.431 330.196 289.776 329.837 290.224 329.594C290.672 329.342 291.171 329.216 291.722 329.216C292.385 329.216 292.963 329.375 293.458 329.692C293.962 330.009 294.326 330.476 294.55 331.092C294.755 330.485 295.105 330.023 295.6 329.706C296.104 329.379 296.673 329.216 297.308 329.216ZM303.488 331.036C303.731 330.523 304.114 330.098 304.636 329.762C305.168 329.417 305.798 329.244 306.526 329.244C307.217 329.244 307.838 329.407 308.388 329.734C308.948 330.051 309.382 330.509 309.69 331.106C310.008 331.694 310.166 332.38 310.166 333.164C310.166 333.948 310.008 334.639 309.69 335.236C309.382 335.833 308.948 336.295 308.388 336.622C307.838 336.949 307.217 337.112 306.526 337.112C305.808 337.112 305.182 336.944 304.65 336.608C304.118 336.263 303.731 335.833 303.488 335.32V340.612H302.522V329.356H303.488V331.036ZM309.172 333.164C309.172 332.529 309.046 331.983 308.794 331.526C308.552 331.059 308.216 330.705 307.786 330.462C307.357 330.219 306.872 330.098 306.33 330.098C305.808 330.098 305.327 330.224 304.888 330.476C304.459 330.728 304.118 331.087 303.866 331.554C303.614 332.021 303.488 332.562 303.488 333.178C303.488 333.794 303.614 334.335 303.866 334.802C304.118 335.269 304.459 335.628 304.888 335.88C305.327 336.132 305.808 336.258 306.33 336.258C306.872 336.258 307.357 336.137 307.786 335.894C308.216 335.642 308.552 335.283 308.794 334.816C309.046 334.34 309.172 333.789 309.172 333.164ZM312.95 326.64V337H311.97V326.64H312.95ZM314.721 333.164C314.721 332.38 314.875 331.694 315.183 331.106C315.5 330.509 315.934 330.051 316.485 329.734C317.045 329.407 317.675 329.244 318.375 329.244C319.103 329.244 319.728 329.412 320.251 329.748C320.783 330.084 321.165 330.513 321.399 331.036V329.356H322.379V337H321.399V335.306C321.156 335.829 320.769 336.263 320.237 336.608C319.714 336.944 319.089 337.112 318.361 337.112C317.67 337.112 317.045 336.949 316.485 336.622C315.934 336.295 315.5 335.833 315.183 335.236C314.875 334.639 314.721 333.948 314.721 333.164ZM321.399 333.178C321.399 332.562 321.273 332.021 321.021 331.554C320.769 331.087 320.423 330.728 319.985 330.476C319.555 330.224 319.079 330.098 318.557 330.098C318.015 330.098 317.53 330.219 317.101 330.462C316.671 330.705 316.331 331.059 316.079 331.526C315.836 331.983 315.715 332.529 315.715 333.164C315.715 333.789 315.836 334.34 316.079 334.816C316.331 335.283 316.671 335.642 317.101 335.894C317.53 336.137 318.015 336.258 318.557 336.258C319.079 336.258 319.555 336.132 319.985 335.88C320.423 335.628 320.769 335.269 321.021 334.802C321.273 334.335 321.399 333.794 321.399 333.178ZM325.89 330.182V334.928C325.89 335.395 325.979 335.717 326.156 335.894C326.333 336.071 326.646 336.16 327.094 336.16H327.99V337H326.94C326.249 337 325.736 336.841 325.4 336.524C325.064 336.197 324.896 335.665 324.896 334.928V330.182H323.832V329.356H324.896V327.438H325.89V329.356H327.99V330.182H325.89ZM336.522 332.786C336.522 333.122 336.513 333.379 336.494 333.556H330.152C330.18 334.135 330.32 334.629 330.572 335.04C330.824 335.451 331.156 335.763 331.566 335.978C331.977 336.183 332.425 336.286 332.91 336.286C333.545 336.286 334.077 336.132 334.506 335.824C334.945 335.516 335.234 335.101 335.374 334.578H336.41C336.224 335.325 335.822 335.936 335.206 336.412C334.6 336.879 333.834 337.112 332.91 337.112C332.192 337.112 331.548 336.953 330.978 336.636C330.409 336.309 329.961 335.852 329.634 335.264C329.317 334.667 329.158 333.971 329.158 333.178C329.158 332.385 329.317 331.689 329.634 331.092C329.952 330.495 330.395 330.037 330.964 329.72C331.534 329.403 332.182 329.244 332.91 329.244C333.638 329.244 334.273 329.403 334.814 329.72C335.365 330.037 335.785 330.467 336.074 331.008C336.373 331.54 336.522 332.133 336.522 332.786ZM335.528 332.758C335.538 332.189 335.421 331.703 335.178 331.302C334.945 330.901 334.623 330.597 334.212 330.392C333.802 330.187 333.354 330.084 332.868 330.084C332.14 330.084 331.52 330.317 331.006 330.784C330.493 331.251 330.208 331.909 330.152 332.758H335.528ZM340.947 337.112C340.07 337.112 339.351 336.911 338.791 336.51C338.241 336.099 337.933 335.544 337.867 334.844H338.875C338.922 335.273 339.123 335.623 339.477 335.894C339.841 336.155 340.327 336.286 340.933 336.286C341.465 336.286 341.881 336.16 342.179 335.908C342.487 335.656 342.641 335.343 342.641 334.97C342.641 334.709 342.557 334.494 342.389 334.326C342.221 334.158 342.007 334.027 341.745 333.934C341.493 333.831 341.148 333.724 340.709 333.612C340.14 333.463 339.678 333.313 339.323 333.164C338.969 333.015 338.665 332.795 338.413 332.506C338.171 332.207 338.049 331.811 338.049 331.316C338.049 330.943 338.161 330.597 338.385 330.28C338.609 329.963 338.927 329.711 339.337 329.524C339.748 329.337 340.215 329.244 340.737 329.244C341.559 329.244 342.221 329.454 342.725 329.874C343.229 330.285 343.5 330.854 343.537 331.582H342.557C342.529 331.134 342.352 330.775 342.025 330.504C341.708 330.224 341.269 330.084 340.709 330.084C340.215 330.084 339.813 330.201 339.505 330.434C339.197 330.667 339.043 330.957 339.043 331.302C339.043 331.601 339.132 331.848 339.309 332.044C339.496 332.231 339.725 332.38 339.995 332.492C340.266 332.595 340.63 332.711 341.087 332.842C341.638 332.991 342.077 333.136 342.403 333.276C342.73 333.416 343.01 333.621 343.243 333.892C343.477 334.163 343.598 334.522 343.607 334.97C343.607 335.381 343.495 335.749 343.271 336.076C343.047 336.393 342.735 336.645 342.333 336.832C341.932 337.019 341.47 337.112 340.947 337.112ZM348.846 333.164C348.846 332.38 349 331.694 349.308 331.106C349.625 330.509 350.059 330.051 350.61 329.734C351.17 329.407 351.8 329.244 352.5 329.244C353.228 329.244 353.853 329.412 354.376 329.748C354.908 330.084 355.29 330.513 355.524 331.036V329.356H356.504V337H355.524V335.306C355.281 335.829 354.894 336.263 354.362 336.608C353.839 336.944 353.214 337.112 352.486 337.112C351.795 337.112 351.17 336.949 350.61 336.622C350.059 336.295 349.625 335.833 349.308 335.236C349 334.639 348.846 333.948 348.846 333.164ZM355.524 333.178C355.524 332.562 355.398 332.021 355.146 331.554C354.894 331.087 354.548 330.728 354.11 330.476C353.68 330.224 353.204 330.098 352.682 330.098C352.14 330.098 351.655 330.219 351.226 330.462C350.796 330.705 350.456 331.059 350.204 331.526C349.961 331.983 349.84 332.529 349.84 333.164C349.84 333.789 349.961 334.34 350.204 334.816C350.456 335.283 350.796 335.642 351.226 335.894C351.655 336.137 352.14 336.258 352.682 336.258C353.204 336.258 353.68 336.132 354.11 335.88C354.548 335.628 354.894 335.269 355.146 334.802C355.398 334.335 355.524 333.794 355.524 333.178ZM362.325 329.216C363.24 329.216 363.986 329.501 364.565 330.07C365.144 330.63 365.433 331.447 365.433 332.52V337H364.467V332.632C364.467 331.801 364.257 331.167 363.837 330.728C363.426 330.289 362.862 330.07 362.143 330.07C361.406 330.07 360.818 330.303 360.379 330.77C359.94 331.237 359.721 331.923 359.721 332.828V337H358.741V329.356H359.721V330.658C359.964 330.191 360.314 329.837 360.771 329.594C361.228 329.342 361.746 329.216 362.325 329.216ZM367.152 333.164C367.152 332.38 367.311 331.694 367.628 331.106C367.946 330.509 368.38 330.051 368.93 329.734C369.49 329.407 370.12 329.244 370.82 329.244C371.492 329.244 372.099 329.407 372.64 329.734C373.182 330.061 373.578 330.485 373.83 331.008V326.64H374.81V337H373.83V335.292C373.597 335.824 373.214 336.263 372.682 336.608C372.15 336.944 371.525 337.112 370.806 337.112C370.106 337.112 369.476 336.949 368.916 336.622C368.366 336.295 367.932 335.833 367.614 335.236C367.306 334.639 367.152 333.948 367.152 333.164ZM373.83 333.178C373.83 332.562 373.704 332.021 373.452 331.554C373.2 331.087 372.855 330.728 372.416 330.476C371.987 330.224 371.511 330.098 370.988 330.098C370.447 330.098 369.962 330.219 369.532 330.462C369.103 330.705 368.762 331.059 368.51 331.526C368.268 331.983 368.146 332.529 368.146 333.164C368.146 333.789 368.268 334.34 368.51 334.816C368.762 335.283 369.103 335.642 369.532 335.894C369.962 336.137 370.447 336.258 370.988 336.258C371.511 336.258 371.987 336.132 372.416 335.88C372.855 335.628 373.2 335.269 373.452 334.802C373.704 334.335 373.83 333.794 373.83 333.178ZM383.522 337.112C382.644 337.112 381.926 336.911 381.366 336.51C380.815 336.099 380.507 335.544 380.442 334.844H381.45C381.496 335.273 381.697 335.623 382.052 335.894C382.416 336.155 382.901 336.286 383.508 336.286C384.04 336.286 384.455 336.16 384.754 335.908C385.062 335.656 385.216 335.343 385.216 334.97C385.216 334.709 385.132 334.494 384.964 334.326C384.796 334.158 384.581 334.027 384.32 333.934C384.068 333.831 383.722 333.724 383.284 333.612C382.714 333.463 382.252 333.313 381.898 333.164C381.543 333.015 381.24 332.795 380.988 332.506C380.745 332.207 380.624 331.811 380.624 331.316C380.624 330.943 380.736 330.597 380.96 330.28C381.184 329.963 381.501 329.711 381.912 329.524C382.322 329.337 382.789 329.244 383.312 329.244C384.133 329.244 384.796 329.454 385.3 329.874C385.804 330.285 386.074 330.854 386.112 331.582H385.132C385.104 331.134 384.926 330.775 384.6 330.504C384.282 330.224 383.844 330.084 383.284 330.084C382.789 330.084 382.388 330.201 382.08 330.434C381.772 330.667 381.618 330.957 381.618 331.302C381.618 331.601 381.706 331.848 381.884 332.044C382.07 332.231 382.299 332.38 382.57 332.492C382.84 332.595 383.204 332.711 383.662 332.842C384.212 332.991 384.651 333.136 384.978 333.276C385.304 333.416 385.584 333.621 385.818 333.892C386.051 334.163 386.172 334.522 386.182 334.97C386.182 335.381 386.07 335.749 385.846 336.076C385.622 336.393 385.309 336.645 384.908 336.832C384.506 337.019 384.044 337.112 383.522 337.112ZM394.648 329.356V337H393.668V335.656C393.444 336.132 393.099 336.496 392.632 336.748C392.166 337 391.643 337.126 391.064 337.126C390.15 337.126 389.403 336.846 388.824 336.286C388.246 335.717 387.956 334.895 387.956 333.822V329.356H388.922V333.71C388.922 334.541 389.128 335.175 389.538 335.614C389.958 336.053 390.528 336.272 391.246 336.272C391.984 336.272 392.572 336.039 393.01 335.572C393.449 335.105 393.668 334.419 393.668 333.514V329.356H394.648ZM397.852 331.05C398.104 330.518 398.491 330.084 399.014 329.748C399.546 329.412 400.171 329.244 400.89 329.244C401.59 329.244 402.215 329.407 402.766 329.734C403.316 330.051 403.746 330.509 404.054 331.106C404.371 331.694 404.53 332.38 404.53 333.164C404.53 333.948 404.371 334.639 404.054 335.236C403.746 335.833 403.312 336.295 402.752 336.622C402.201 336.949 401.58 337.112 400.89 337.112C400.162 337.112 399.532 336.949 399 336.622C398.477 336.286 398.094 335.852 397.852 335.32V337H396.886V326.64H397.852V331.05ZM403.536 333.164C403.536 332.529 403.41 331.983 403.158 331.526C402.915 331.059 402.579 330.705 402.15 330.462C401.72 330.219 401.235 330.098 400.694 330.098C400.171 330.098 399.69 330.224 399.252 330.476C398.822 330.728 398.482 331.087 398.23 331.554C397.978 332.021 397.852 332.562 397.852 333.178C397.852 333.794 397.978 334.335 398.23 334.802C398.482 335.269 398.822 335.628 399.252 335.88C399.69 336.132 400.171 336.258 400.694 336.258C401.235 336.258 401.72 336.137 402.15 335.894C402.579 335.642 402.915 335.283 403.158 334.816C403.41 334.34 403.536 333.789 403.536 333.164ZM415.433 329.216C416.329 329.216 417.057 329.501 417.617 330.07C418.186 330.63 418.471 331.447 418.471 332.52V337H417.505V332.632C417.505 331.801 417.304 331.167 416.903 330.728C416.502 330.289 415.956 330.07 415.265 330.07C414.546 330.07 413.972 330.308 413.543 330.784C413.114 331.26 412.899 331.951 412.899 332.856V337H411.933V332.632C411.933 331.801 411.732 331.167 411.331 330.728C410.93 330.289 410.379 330.07 409.679 330.07C408.96 330.07 408.386 330.308 407.957 330.784C407.528 331.26 407.313 331.951 407.313 332.856V337H406.333V329.356H407.313V330.672C407.556 330.196 407.901 329.837 408.349 329.594C408.797 329.342 409.296 329.216 409.847 329.216C410.51 329.216 411.088 329.375 411.583 329.692C412.087 330.009 412.451 330.476 412.675 331.092C412.88 330.485 413.23 330.023 413.725 329.706C414.229 329.379 414.798 329.216 415.433 329.216ZM421.137 327.914C420.941 327.914 420.773 327.844 420.633 327.704C420.493 327.564 420.423 327.391 420.423 327.186C420.423 326.981 420.493 326.813 420.633 326.682C420.773 326.542 420.941 326.472 421.137 326.472C421.333 326.472 421.501 326.542 421.641 326.682C421.781 326.813 421.851 326.981 421.851 327.186C421.851 327.391 421.781 327.564 421.641 327.704C421.501 327.844 421.333 327.914 421.137 327.914ZM421.627 329.356V337H420.647V329.356H421.627ZM425.121 330.182V334.928C425.121 335.395 425.209 335.717 425.387 335.894C425.564 336.071 425.877 336.16 426.325 336.16H427.221V337H426.171C425.48 337 424.967 336.841 424.631 336.524C424.295 336.197 424.127 335.665 424.127 334.928V330.182H423.063V329.356H424.127V327.438H425.121V329.356H427.221V330.182H425.121ZM59.672 353.164C59.672 352.38 59.8307 351.694 60.148 351.106C60.4653 350.509 60.8993 350.051 61.45 349.734C62.01 349.407 62.64 349.244 63.34 349.244C64.012 349.244 64.6187 349.407 65.16 349.734C65.7013 350.061 66.098 350.485 66.35 351.008V346.64H67.33V357H66.35V355.292C66.1167 355.824 65.734 356.263 65.202 356.608C64.67 356.944 64.0447 357.112 63.326 357.112C62.626 357.112 61.996 356.949 61.436 356.622C60.8853 356.295 60.4513 355.833 60.134 355.236C59.826 354.639 59.672 353.948 59.672 353.164ZM66.35 353.178C66.35 352.562 66.224 352.021 65.972 351.554C65.72 351.087 65.3747 350.728 64.936 350.476C64.5067 350.224 64.0307 350.098 63.508 350.098C62.9667 350.098 62.4813 350.219 62.052 350.462C61.6227 350.705 61.282 351.059 61.03 351.526C60.7873 351.983 60.666 352.529 60.666 353.164C60.666 353.789 60.7873 354.34 61.03 354.816C61.282 355.283 61.6227 355.642 62.052 355.894C62.4813 356.137 62.9667 356.258 63.508 356.258C64.0307 356.258 64.5067 356.132 64.936 355.88C65.3747 355.628 65.72 355.269 65.972 354.802C66.224 354.335 66.35 353.794 66.35 353.178ZM70.0573 347.914C69.8613 347.914 69.6933 347.844 69.5533 347.704C69.4133 347.564 69.3433 347.391 69.3433 347.186C69.3433 346.981 69.4133 346.813 69.5533 346.682C69.6933 346.542 69.8613 346.472 70.0573 346.472C70.2533 346.472 70.4213 346.542 70.5613 346.682C70.7013 346.813 70.7713 346.981 70.7713 347.186C70.7713 347.391 70.7013 347.564 70.5613 347.704C70.4213 347.844 70.2533 347.914 70.0573 347.914ZM70.5473 349.356V357H69.5673V349.356H70.5473ZM73.7465 350.714C73.9612 350.238 74.2878 349.869 74.7265 349.608C75.1745 349.347 75.7205 349.216 76.3645 349.216V350.238H76.0985C75.3892 350.238 74.8198 350.429 74.3905 350.812C73.9612 351.195 73.7465 351.834 73.7465 352.73V357H72.7665V349.356H73.7465V350.714ZM84.7548 352.786C84.7548 353.122 84.7454 353.379 84.7268 353.556H78.3848C78.4128 354.135 78.5528 354.629 78.8048 355.04C79.0568 355.451 79.3881 355.763 79.7988 355.978C80.2094 356.183 80.6574 356.286 81.1428 356.286C81.7774 356.286 82.3094 356.132 82.7388 355.824C83.1774 355.516 83.4668 355.101 83.6068 354.578H84.6428C84.4561 355.325 84.0548 355.936 83.4388 356.412C82.8321 356.879 82.0668 357.112 81.1428 357.112C80.4241 357.112 79.7801 356.953 79.2108 356.636C78.6414 356.309 78.1934 355.852 77.8668 355.264C77.5494 354.667 77.3908 353.971 77.3908 353.178C77.3908 352.385 77.5494 351.689 77.8668 351.092C78.1841 350.495 78.6274 350.037 79.1968 349.72C79.7661 349.403 80.4148 349.244 81.1428 349.244C81.8708 349.244 82.5054 349.403 83.0468 349.72C83.5974 350.037 84.0174 350.467 84.3068 351.008C84.6054 351.54 84.7548 352.133 84.7548 352.786ZM83.7608 352.758C83.7701 352.189 83.6534 351.703 83.4108 351.302C83.1774 350.901 82.8554 350.597 82.4448 350.392C82.0341 350.187 81.5861 350.084 81.1008 350.084C80.3728 350.084 79.7521 350.317 79.2388 350.784C78.7254 351.251 78.4408 351.909 78.3848 352.758H83.7608ZM86.0997 353.178C86.0997 352.385 86.2584 351.694 86.5757 351.106C86.8931 350.509 87.3317 350.051 87.8917 349.734C88.4517 349.407 89.0911 349.244 89.8097 349.244C90.7524 349.244 91.5271 349.477 92.1337 349.944C92.7497 350.411 93.1464 351.045 93.3237 351.848H92.2737C92.1431 351.297 91.8584 350.868 91.4197 350.56C90.9904 350.243 90.4537 350.084 89.8097 350.084C89.2964 350.084 88.8344 350.201 88.4237 350.434C88.0131 350.667 87.6864 351.017 87.4437 351.484C87.2104 351.941 87.0937 352.506 87.0937 353.178C87.0937 353.85 87.2104 354.419 87.4437 354.886C87.6864 355.353 88.0131 355.703 88.4237 355.936C88.8344 356.169 89.2964 356.286 89.8097 356.286C90.4537 356.286 90.9904 356.132 91.4197 355.824C91.8584 355.507 92.1431 355.068 92.2737 354.508H93.3237C93.1464 355.292 92.7497 355.922 92.1337 356.398C91.5177 356.874 90.7431 357.112 89.8097 357.112C89.0911 357.112 88.4517 356.953 87.8917 356.636C87.3317 356.309 86.8931 355.852 86.5757 355.264C86.2584 354.667 86.0997 353.971 86.0997 353.178ZM96.4077 350.182V354.928C96.4077 355.395 96.4963 355.717 96.6737 355.894C96.851 356.071 97.1637 356.16 97.6117 356.16H98.5077V357H97.4577C96.767 357 96.2537 356.841 95.9177 356.524C95.5817 356.197 95.4137 355.665 95.4137 354.928V350.182H94.3497V349.356H95.4137V347.438H96.4077V349.356H98.5077V350.182H96.4077ZM101.104 346.64V357H100.124V346.64H101.104ZM109.623 349.356L105.087 360.598H104.065L105.549 356.958L102.413 349.356H103.491L106.095 355.88L108.615 349.356H109.623ZM117.804 350.182H116.026V357H115.046V350.182H113.982V349.356H115.046V348.824C115.046 347.993 115.256 347.382 115.676 346.99C116.105 346.598 116.796 346.402 117.748 346.402V347.242C117.113 347.242 116.665 347.363 116.404 347.606C116.152 347.849 116.026 348.255 116.026 348.824V349.356H117.804V350.182ZM120.327 350.714C120.541 350.238 120.868 349.869 121.307 349.608C121.755 349.347 122.301 349.216 122.945 349.216V350.238H122.679C121.969 350.238 121.4 350.429 120.971 350.812C120.541 351.195 120.327 351.834 120.327 352.73V357H119.347V349.356H120.327V350.714ZM127.765 357.112C127.046 357.112 126.397 356.953 125.819 356.636C125.249 356.309 124.797 355.852 124.461 355.264C124.134 354.667 123.971 353.971 123.971 353.178C123.971 352.385 124.139 351.694 124.475 351.106C124.811 350.509 125.268 350.051 125.847 349.734C126.425 349.407 127.074 349.244 127.793 349.244C128.511 349.244 129.16 349.407 129.739 349.734C130.327 350.051 130.784 350.509 131.111 351.106C131.447 351.694 131.615 352.385 131.615 353.178C131.615 353.962 131.447 354.653 131.111 355.25C130.775 355.847 130.313 356.309 129.725 356.636C129.137 356.953 128.483 357.112 127.765 357.112ZM127.765 356.258C128.269 356.258 128.735 356.146 129.165 355.922C129.594 355.689 129.939 355.343 130.201 354.886C130.471 354.419 130.607 353.85 130.607 353.178C130.607 352.506 130.476 351.941 130.215 351.484C129.953 351.017 129.608 350.672 129.179 350.448C128.749 350.215 128.283 350.098 127.779 350.098C127.275 350.098 126.808 350.215 126.379 350.448C125.949 350.672 125.604 351.017 125.343 351.484C125.091 351.941 124.965 352.506 124.965 353.178C124.965 353.85 125.091 354.419 125.343 354.886C125.604 355.343 125.945 355.689 126.365 355.922C126.794 356.146 127.261 356.258 127.765 356.258ZM142.501 349.216C143.397 349.216 144.125 349.501 144.685 350.07C145.255 350.63 145.539 351.447 145.539 352.52V357H144.573V352.632C144.573 351.801 144.373 351.167 143.971 350.728C143.57 350.289 143.024 350.07 142.333 350.07C141.615 350.07 141.041 350.308 140.611 350.784C140.182 351.26 139.967 351.951 139.967 352.856V357H139.001V352.632C139.001 351.801 138.801 351.167 138.399 350.728C137.998 350.289 137.447 350.07 136.747 350.07C136.029 350.07 135.455 350.308 135.025 350.784C134.596 351.26 134.381 351.951 134.381 352.856V357H133.401V349.356H134.381V350.672C134.624 350.196 134.969 349.837 135.417 349.594C135.865 349.342 136.365 349.216 136.915 349.216C137.578 349.216 138.157 349.375 138.651 349.692C139.155 350.009 139.519 350.476 139.743 351.092C139.949 350.485 140.299 350.023 140.793 349.706C141.297 349.379 141.867 349.216 142.501 349.216ZM155.954 357.098C155.048 357.098 154.227 356.888 153.49 356.468C152.752 356.039 152.169 355.446 151.74 354.69C151.32 353.925 151.11 353.061 151.11 352.1C151.11 351.139 151.32 350.28 151.74 349.524C152.169 348.759 152.752 348.166 153.49 347.746C154.227 347.317 155.048 347.102 155.954 347.102C156.868 347.102 157.694 347.317 158.432 347.746C159.169 348.166 159.748 348.759 160.168 349.524C160.588 350.28 160.798 351.139 160.798 352.1C160.798 353.061 160.588 353.925 160.168 354.69C159.748 355.446 159.169 356.039 158.432 356.468C157.694 356.888 156.868 357.098 155.954 357.098ZM155.954 356.244C156.682 356.244 157.335 356.076 157.914 355.74C158.492 355.404 158.95 354.923 159.286 354.298C159.622 353.663 159.79 352.931 159.79 352.1C159.79 351.269 159.622 350.541 159.286 349.916C158.95 349.291 158.492 348.81 157.914 348.474C157.335 348.138 156.682 347.97 155.954 347.97C155.226 347.97 154.572 348.138 153.994 348.474C153.415 348.81 152.958 349.291 152.622 349.916C152.286 350.541 152.118 351.269 152.118 352.1C152.118 352.931 152.286 353.663 152.622 354.298C152.958 354.923 153.415 355.404 153.994 355.74C154.572 356.076 155.226 356.244 155.954 356.244ZM165.307 356.048L167.883 349.356H168.919L165.853 357H164.747L161.681 349.356H162.731L165.307 356.048ZM177.163 352.786C177.163 353.122 177.154 353.379 177.135 353.556H170.793C170.821 354.135 170.961 354.629 171.213 355.04C171.465 355.451 171.796 355.763 172.207 355.978C172.618 356.183 173.066 356.286 173.551 356.286C174.186 356.286 174.718 356.132 175.147 355.824C175.586 355.516 175.875 355.101 176.015 354.578H177.051C176.864 355.325 176.463 355.936 175.847 356.412C175.24 356.879 174.475 357.112 173.551 357.112C172.832 357.112 172.188 356.953 171.619 356.636C171.05 356.309 170.602 355.852 170.275 355.264C169.958 354.667 169.799 353.971 169.799 353.178C169.799 352.385 169.958 351.689 170.275 351.092C170.592 350.495 171.036 350.037 171.605 349.72C172.174 349.403 172.823 349.244 173.551 349.244C174.279 349.244 174.914 349.403 175.455 349.72C176.006 350.037 176.426 350.467 176.715 351.008C177.014 351.54 177.163 352.133 177.163 352.786ZM176.169 352.758C176.178 352.189 176.062 351.703 175.819 351.302C175.586 350.901 175.264 350.597 174.853 350.392C174.442 350.187 173.994 350.084 173.509 350.084C172.781 350.084 172.16 350.317 171.647 350.784C171.134 351.251 170.849 351.909 170.793 352.758H176.169ZM179.936 350.714C180.151 350.238 180.477 349.869 180.916 349.608C181.364 349.347 181.91 349.216 182.554 349.216V350.238H182.288C181.579 350.238 181.009 350.429 180.58 350.812C180.151 351.195 179.936 351.834 179.936 352.73V357H178.956V349.356H179.936V350.714ZM185.008 346.64V357H184.028V346.64H185.008ZM194.143 352.786C194.143 353.122 194.134 353.379 194.115 353.556H187.773C187.801 354.135 187.941 354.629 188.193 355.04C188.445 355.451 188.777 355.763 189.187 355.978C189.598 356.183 190.046 356.286 190.531 356.286C191.166 356.286 191.698 356.132 192.127 355.824C192.566 355.516 192.855 355.101 192.995 354.578H194.031C193.845 355.325 193.443 355.936 192.827 356.412C192.221 356.879 191.455 357.112 190.531 357.112C189.813 357.112 189.169 356.953 188.599 356.636C188.03 356.309 187.582 355.852 187.255 355.264C186.938 354.667 186.779 353.971 186.779 353.178C186.779 352.385 186.938 351.689 187.255 351.092C187.573 350.495 188.016 350.037 188.585 349.72C189.155 349.403 189.803 349.244 190.531 349.244C191.259 349.244 191.894 349.403 192.435 349.72C192.986 350.037 193.406 350.467 193.695 351.008C193.994 351.54 194.143 352.133 194.143 352.786ZM193.149 352.758C193.159 352.189 193.042 351.703 192.799 351.302C192.566 350.901 192.244 350.597 191.833 350.392C191.423 350.187 190.975 350.084 190.489 350.084C189.761 350.084 189.141 350.317 188.627 350.784C188.114 351.251 187.829 351.909 187.773 352.758H193.149ZM195.488 353.164C195.488 352.38 195.642 351.694 195.95 351.106C196.268 350.509 196.702 350.051 197.252 349.734C197.812 349.407 198.442 349.244 199.142 349.244C199.87 349.244 200.496 349.412 201.018 349.748C201.55 350.084 201.933 350.513 202.166 351.036V349.356H203.146V357H202.166V355.306C201.924 355.829 201.536 356.263 201.004 356.608C200.482 356.944 199.856 357.112 199.128 357.112C198.438 357.112 197.812 356.949 197.252 356.622C196.702 356.295 196.268 355.833 195.95 355.236C195.642 354.639 195.488 353.948 195.488 353.164ZM202.166 353.178C202.166 352.562 202.04 352.021 201.788 351.554C201.536 351.087 201.191 350.728 200.752 350.476C200.323 350.224 199.847 350.098 199.324 350.098C198.783 350.098 198.298 350.219 197.868 350.462C197.439 350.705 197.098 351.059 196.846 351.526C196.604 351.983 196.482 352.529 196.482 353.164C196.482 353.789 196.604 354.34 196.846 354.816C197.098 355.283 197.439 355.642 197.868 355.894C198.298 356.137 198.783 356.258 199.324 356.258C199.847 356.258 200.323 356.132 200.752 355.88C201.191 355.628 201.536 355.269 201.788 354.802C202.04 354.335 202.166 353.794 202.166 353.178ZM208.394 350.182H206.616V357H205.636V350.182H204.572V349.356H205.636V348.824C205.636 347.993 205.846 347.382 206.266 346.99C206.695 346.598 207.386 346.402 208.338 346.402V347.242C207.703 347.242 207.255 347.363 206.994 347.606C206.742 347.849 206.616 348.255 206.616 348.824V349.356H208.394V350.182ZM210.104 357.07C209.899 357.07 209.726 357 209.586 356.86C209.456 356.72 209.39 356.547 209.39 356.342C209.39 356.137 209.456 355.969 209.586 355.838C209.726 355.698 209.899 355.628 210.104 355.628C210.3 355.628 210.464 355.698 210.594 355.838C210.734 355.969 210.804 356.137 210.804 356.342C210.804 356.547 210.734 356.72 210.594 356.86C210.464 357 210.3 357.07 210.104 357.07Z" fill="#1E1E1E"/>
<defs>
<filter id="filter0_d_10079_972" x="0" y="0" width="527" height="427" filterUnits="userSpaceOnUse" color-interpolation-filters="sRGB">
<feFlood flood-opacity="0" result="BackgroundImageFix"/>
<feColorMatrix in="SourceAlpha" type="matrix" values="0 0 0 0 0 0 0 0 0 0 0 0 0 0 0 0 0 0 127 0" result="hardAlpha"/>
<feOffset dy="8"/>
<feGaussianBlur stdDeviation="7.5"/>
<feComposite in2="hardAlpha" operator="out"/>
<feColorMatrix type="matrix" values="0 0 0 0 0 0 0 0 0 0 0 0 0 0 0 0 0 0 0.1 0"/>
<feBlend mode="normal" in2="BackgroundImageFix" result="effect1_dropShadow_10079_972"/>
<feBlend mode="normal" in="SourceGraphic" in2="effect1_dropShadow_10079_972" result="shape"/>
</filter>
</defs>
</svg>
