<svg width="100%" height="100%" viewBox="0 0 18 18" fill="none" xmlns="http://www.w3.org/2000/svg">
<path d="M4.30434 3.13043V1.95652H3.52173V3.13043C3.52173 3.23421 3.4805 3.33374 3.40712 3.40713C3.33374 3.48051 3.23421 3.52174 3.13043 3.52174H1.95651V4.30435H3.13043C3.23421 4.30435 3.33374 4.34557 3.40712 4.41896C3.4805 4.49234 3.52173 4.59187 3.52173 4.69565V5.86956H4.30434V4.69565C4.30434 4.59187 4.34557 4.49234 4.41895 4.41896C4.49233 4.34557 4.59186 4.30435 4.69564 4.30435H5.86956V3.52174H4.69564C4.59186 3.52174 4.49233 3.48051 4.41895 3.40713C4.34557 3.33374 4.30434 3.23421 4.30434 3.13043Z" fill="white"/>
<path d="M6.26087 0H1.56522C1.1501 0 0.751977 0.164906 0.458442 0.458442C0.164906 0.751977 0 1.1501 0 1.56522V6.26087C0 6.67599 0.164906 7.07411 0.458442 7.36764C0.751977 7.66118 1.1501 7.82609 1.56522 7.82609H6.26087C6.67599 7.82609 7.07411 7.66118 7.36764 7.36764C7.66118 7.07411 7.82609 6.67599 7.82609 6.26087V1.56522C7.82609 1.1501 7.66118 0.751977 7.36764 0.458442C7.07411 0.164906 6.67599 0 6.26087 0ZM6.65217 4.30435C6.65217 4.51191 6.56972 4.71097 6.42295 4.85774C6.27619 5.0045 6.07713 5.08696 5.86957 5.08696H5.08696V5.86957C5.08696 6.07713 5.0045 6.27619 4.85774 6.42295C4.71097 6.56972 4.51191 6.65217 4.30435 6.65217H3.52174C3.31418 6.65217 3.11512 6.56972 2.96835 6.42295C2.82158 6.27619 2.73913 6.07713 2.73913 5.86957V5.08696H1.95652C1.74896 5.08696 1.5499 5.0045 1.40313 4.85774C1.25637 4.71097 1.17391 4.51191 1.17391 4.30435V3.52174C1.17391 3.31418 1.25637 3.11512 1.40313 2.96835C1.5499 2.82158 1.74896 2.73913 1.95652 2.73913H2.73913V1.95652C2.73913 1.74896 2.82158 1.5499 2.96835 1.40313C3.11512 1.25637 3.31418 1.17391 3.52174 1.17391H4.30435C4.51191 1.17391 4.71097 1.25637 4.85774 1.40313C5.0045 1.5499 5.08696 1.74896 5.08696 1.95652V2.73913H5.86957C6.07713 2.73913 6.27619 2.82158 6.42295 2.96835C6.56972 3.11512 6.65217 3.31418 6.65217 3.52174V4.30435Z" fill="white"/>
<path d="M12.1304 3.52174H16.0435V4.30434H12.1304V3.52174Z" fill="white"/>
<path d="M16.4348 0H11.7391C11.324 0 10.9259 0.164906 10.6323 0.458442C10.3388 0.751977 10.1739 1.1501 10.1739 1.56522V6.26087C10.1739 6.67599 10.3388 7.07411 10.6323 7.36764C10.9259 7.66118 11.324 7.82609 11.7391 7.82609H16.4348C16.8499 7.82609 17.248 7.66118 17.5415 7.36764C17.8351 7.07411 18 6.67599 18 6.26087V1.56522C18 1.1501 17.8351 0.751977 17.5415 0.458442C17.248 0.164906 16.8499 0 16.4348 0ZM16.8261 4.30435C16.8261 4.51191 16.7436 4.71097 16.5968 4.85774C16.4501 5.0045 16.251 5.08696 16.0435 5.08696H12.1304C11.9229 5.08696 11.7238 5.0045 11.577 4.85774C11.4303 4.71097 11.3478 4.51191 11.3478 4.30435V3.52174C11.3478 3.31418 11.4303 3.11512 11.577 2.96835C11.7238 2.82158 11.9229 2.73913 12.1304 2.73913H16.0435C16.251 2.73913 16.4501 2.82158 16.5968 2.96835C16.7436 3.11512 16.8261 3.31418 16.8261 3.52174V4.30435Z" fill="white"/>
<path d="M4.19086 13.2574C4.15449 13.2941 4.11121 13.3232 4.06352 13.343C4.01584 13.3629 3.96469 13.3731 3.91304 13.3731C3.86138 13.3731 3.81023 13.3629 3.76255 13.343C3.71487 13.3232 3.67159 13.2941 3.63521 13.2574L2.80565 12.4278L2.25391 12.9796L3.08347 13.8091C3.12015 13.8455 3.14926 13.8888 3.16912 13.9365C3.18899 13.9842 3.19922 14.0353 3.19922 14.087C3.19922 14.1386 3.18899 14.1898 3.16912 14.2374C3.14926 14.2851 3.12015 14.3284 3.08347 14.3648L2.25391 15.1943L2.80565 15.7461C4.07347 14.4783 3.75651 14.4822 5.02043 15.7461L5.57217 15.1943L4.7426 14.3648C4.70593 14.3284 4.67681 14.2851 4.65695 14.2374C4.63708 14.1898 4.62685 14.1386 4.62685 14.087C4.62685 14.0353 4.63708 13.9842 4.65695 13.9365C4.67681 13.8888 4.70593 13.8455 4.7426 13.8091L5.57217 12.9796L5.02043 12.4278L4.19086 13.2574Z" fill="white"/>
<path d="M6.26087 10.1739H1.56522C1.1501 10.1739 0.751977 10.3388 0.458442 10.6324C0.164906 10.9259 0 11.324 0 11.7391V16.4348C0 16.8499 0.164906 17.248 0.458442 17.5416C0.751977 17.8351 1.1501 18 1.56522 18H6.26087C6.67599 18 7.07411 17.8351 7.36764 17.5416C7.66118 17.248 7.82609 16.8499 7.82609 16.4348V11.7391C7.82609 11.324 7.66118 10.9259 7.36764 10.6324C7.07411 10.3388 6.67599 10.1739 6.26087 10.1739ZM6.12783 14.6387C6.20059 14.7114 6.25832 14.7977 6.2977 14.8927C6.33708 14.9877 6.35735 15.0895 6.35735 15.1924C6.35735 15.2952 6.33708 15.3971 6.2977 15.4921C6.25832 15.5871 6.20059 15.6734 6.12783 15.7461L5.57217 16.3017C5.49949 16.3745 5.41318 16.4322 5.31817 16.4716C5.22316 16.511 5.12133 16.5313 5.01848 16.5313C4.91563 16.5313 4.81379 16.511 4.71879 16.4716C4.62378 16.4322 4.53747 16.3745 4.46478 16.3017L3.91304 15.7461L3.3613 16.3017C3.28862 16.3745 3.20231 16.4322 3.1073 16.4716C3.01229 16.511 2.91046 16.5313 2.80761 16.5313C2.70476 16.5313 2.60292 16.511 2.50792 16.4716C2.41291 16.4322 2.3266 16.3745 2.25391 16.3017L1.69826 15.7461C1.5525 15.5995 1.47068 15.4011 1.47068 15.1943C1.47068 14.9876 1.5525 14.7892 1.69826 14.6426L2.25391 14.087L1.69826 13.5352C1.6255 13.4625 1.56777 13.3762 1.52839 13.2812C1.489 13.1862 1.46873 13.0844 1.46873 12.9815C1.46873 12.8787 1.489 12.7768 1.52839 12.6818C1.56777 12.5868 1.6255 12.5005 1.69826 12.4278L2.25391 11.8722C2.3266 11.7994 2.41291 11.7417 2.50792 11.7023C2.60292 11.6629 2.70476 11.6426 2.80761 11.6426C2.91046 11.6426 3.01229 11.6629 3.1073 11.7023C3.20231 11.7417 3.28862 11.7994 3.3613 11.8722L3.91304 12.4278L4.46478 11.8722C4.53747 11.7994 4.62378 11.7417 4.71879 11.7023C4.81379 11.6629 4.91563 11.6426 5.01848 11.6426C5.12133 11.6426 5.22316 11.6629 5.31817 11.7023C5.41318 11.7417 5.49949 11.7994 5.57217 11.8722L6.12783 12.4278C6.20059 12.5005 6.25832 12.5868 6.2977 12.6818C6.33708 12.7768 6.35735 12.8787 6.35735 12.9815C6.35735 13.0844 6.33708 13.1862 6.2977 13.2812C6.25832 13.3762 6.20059 13.4625 6.12783 13.5352L5.57217 14.087L6.12783 14.6387Z" fill="white"/>
<path d="M14.087 12.1304C13.9832 12.1304 13.8837 12.1717 13.8103 12.245C13.7369 12.3184 13.6957 12.418 13.6957 12.5217C13.6957 12.6255 13.7369 12.725 13.8103 12.7984C13.8837 12.8718 13.9832 12.913 14.087 12.913C14.1908 12.913 14.2903 12.8718 14.3637 12.7984C14.4371 12.725 14.4783 12.6255 14.4783 12.5217C14.4783 12.418 14.4371 12.3184 14.3637 12.245C14.2903 12.1717 14.1908 12.1304 14.087 12.1304Z" fill="white"/>
<path d="M14.087 15.2609C13.9832 15.2609 13.8837 15.3021 13.8103 15.3755C13.7369 15.4489 13.6957 15.5484 13.6957 15.6522C13.6957 15.756 13.7369 15.8555 13.8103 15.9289C13.8837 16.0023 13.9832 16.0435 14.087 16.0435C14.1908 16.0435 14.2903 16.0023 14.3637 15.9289C14.4371 15.8555 14.4783 15.756 14.4783 15.6522C14.4783 15.5484 14.4371 15.4489 14.3637 15.3755C14.2903 15.3021 14.1908 15.2609 14.087 15.2609Z" fill="white"/>
<path d="M16.4348 10.1739H11.7391C11.324 10.1739 10.9259 10.3388 10.6323 10.6324C10.3388 10.9259 10.1739 11.324 10.1739 11.7391V16.4348C10.1739 16.8499 10.3388 17.248 10.6323 17.5416C10.9259 17.8351 11.324 18 11.7391 18H16.4348C16.8499 18 17.248 17.8351 17.5415 17.5416C17.8351 17.248 18 16.8499 18 16.4348V11.7391C18 11.324 17.8351 10.9259 17.5415 10.6324C17.248 10.3388 16.8499 10.1739 16.4348 10.1739ZM14.0869 16.8261C13.8548 16.8261 13.6278 16.7572 13.4347 16.6282C13.2417 16.4993 13.0912 16.3159 13.0024 16.1014C12.9135 15.8869 12.8903 15.6509 12.9356 15.4232C12.9809 15.1954 13.0927 14.9863 13.2569 14.8221C13.421 14.6579 13.6302 14.5461 13.8579 14.5008C14.0856 14.4555 14.3217 14.4788 14.5362 14.5676C14.7507 14.6565 14.934 14.8069 15.063 15C15.192 15.193 15.2608 15.42 15.2608 15.6522C15.2608 15.9635 15.1372 16.2621 14.917 16.4823C14.6969 16.7024 14.3983 16.8261 14.0869 16.8261ZM14.0869 13.6957C13.8548 13.6957 13.6278 13.6268 13.4347 13.4978C13.2417 13.3688 13.0912 13.1855 13.0024 12.971C12.9135 12.7565 12.8903 12.5204 12.9356 12.2927C12.9809 12.065 13.0927 11.8558 13.2569 11.6917C13.421 11.5275 13.6302 11.4157 13.8579 11.3704C14.0856 11.3251 14.3217 11.3483 14.5362 11.4372C14.7507 11.526 14.934 11.6765 15.063 11.8695C15.192 12.0626 15.2608 12.2896 15.2608 12.5217C15.2608 12.8331 15.1372 13.1317 14.917 13.3518C14.6969 13.572 14.3983 13.6957 14.0869 13.6957Z" fill="white"/>
</svg>
