<svg width="100%" height="100%" viewBox="0 0 14 12" fill="none" xmlns="http://www.w3.org/2000/svg">
<path d="M1.45455 0C-0.485137 0.06547 -0.484572 3.0509 1.45458 3.11611C3.39445 3.05066 3.39411 0.0650905 1.45455 0ZM1.45455 2.0903C1.32294 2.0881 1.19743 2.03105 1.10509 1.93147C1.01276 1.83189 0.961011 1.69777 0.961014 1.55805C0.961017 1.41832 1.01277 1.2842 1.10511 1.18463C1.19744 1.08505 1.32296 1.02801 1.45457 1.02581C1.58618 1.02802 1.71169 1.08506 1.80402 1.18464C1.89636 1.28422 1.9481 1.41834 1.9481 1.55807C1.9481 1.69779 1.89635 1.83191 1.80401 1.93148C1.71167 2.03106 1.58616 2.0881 1.45455 2.0903ZM4.16226 1.04509H13.5157C13.5793 1.04494 13.6422 1.05809 13.701 1.0838C13.7597 1.10951 13.8131 1.14726 13.8581 1.1949C13.9031 1.24255 13.9388 1.29914 13.9631 1.36144C13.9875 1.42375 14 1.49054 14 1.55799C14 1.62545 13.9875 1.69224 13.9631 1.75454C13.9388 1.81685 13.9031 1.87344 13.8581 1.92108C13.8131 1.96873 13.7597 2.00648 13.701 2.03219C13.6422 2.0579 13.5793 2.07105 13.5157 2.0709H4.16226C4.03536 2.06889 3.9143 2.01396 3.82523 1.918C3.73616 1.82203 3.68624 1.69271 3.68624 1.55799C3.68624 1.42327 3.73616 1.29396 3.82523 1.19799C3.9143 1.10202 4.03536 1.0471 4.16226 1.04509ZM1.45455 4.44182C-0.485015 4.50734 -0.48468 7.49268 1.45458 7.55793C3.39456 7.49245 3.39398 4.50696 1.45455 4.44182ZM1.45455 6.53212C1.32294 6.52992 1.19743 6.47287 1.10509 6.37329C1.01276 6.27371 0.961011 6.13959 0.961014 5.99987C0.961017 5.86014 1.01277 5.72602 1.10511 5.62645C1.19744 5.52687 1.32296 5.46983 1.45457 5.46763C1.58618 5.46984 1.71169 5.52688 1.80402 5.62646C1.89636 5.72604 1.9481 5.86016 1.9481 5.99989C1.9481 6.13961 1.89635 6.27373 1.80401 6.3733C1.71167 6.47288 1.58616 6.52992 1.45455 6.53212ZM13.5157 6.51284H4.16226C4.09871 6.51299 4.03576 6.49984 3.97702 6.47413C3.91827 6.44843 3.86487 6.41067 3.81989 6.36303C3.77491 6.31538 3.73922 6.25879 3.71487 6.19649C3.69052 6.13418 3.67798 6.06739 3.67798 5.99994C3.67798 5.93248 3.69052 5.86569 3.71487 5.80339C3.73922 5.74108 3.77491 5.68449 3.81989 5.63685C3.86487 5.58921 3.91827 5.55145 3.97702 5.52574C4.03576 5.50004 4.09871 5.48688 4.16226 5.48704H13.5157C13.6426 5.48904 13.7637 5.54397 13.8528 5.63994C13.9418 5.73591 13.9917 5.86522 13.9917 5.99994C13.9917 6.13466 13.9418 6.26397 13.8528 6.35994C13.7637 6.45591 13.6426 6.51083 13.5157 6.51284ZM1.45455 8.88376C-0.4852 8.94931 -0.484502 11.9348 1.45458 12C3.39438 11.9346 3.39417 8.94894 1.45455 8.88376ZM1.45455 10.9742C1.32278 10.9722 1.19704 10.9153 1.10452 10.8156C1.01199 10.716 0.960126 10.5818 0.960129 10.4419C0.960131 10.302 1.012 10.1677 1.10453 10.0681C1.19706 9.96849 1.3228 9.91154 1.45457 9.90956C1.58637 9.91149 1.71216 9.96842 1.80472 10.068C1.89728 10.1677 1.94917 10.302 1.94917 10.4419C1.94916 10.5818 1.89727 10.7161 1.8047 10.8157C1.71214 10.9153 1.58635 10.9723 1.45455 10.9742ZM13.5157 10.9547H4.16226C4.03411 10.9547 3.91121 10.9006 3.8206 10.8044C3.72999 10.7082 3.67908 10.5778 3.67908 10.4418C3.67908 10.3057 3.72999 10.1753 3.8206 10.0791C3.91121 9.98289 4.03411 9.92885 4.16226 9.92885H13.5157C13.6426 9.93089 13.7636 9.98582 13.8527 10.0818C13.9418 10.1778 13.9917 10.3071 13.9917 10.4418C13.9917 10.5765 13.9418 10.7058 13.8527 10.8017C13.7636 10.8977 13.6426 10.9526 13.5157 10.9547Z" fill="white"/>
</svg>
