<svg width="100%" height="100%" viewBox="0 0 13 17" fill="none" xmlns="http://www.w3.org/2000/svg">
<path fill-rule="evenodd" clip-rule="evenodd" d="M2.93339 6.84509C2.93339 6.73942 2.97199 6.63807 3.04069 6.56335C3.1094 6.48863 3.20258 6.44665 3.29974 6.44665H11.2034C11.3005 6.44665 11.3937 6.48863 11.4624 6.56335C11.5311 6.63807 11.5697 6.73942 11.5697 6.84509C11.5697 6.95076 11.5311 7.05211 11.4624 7.12683C11.3937 7.20155 11.3005 7.24353 11.2034 7.24353H3.2998C3.20265 7.24348 3.10949 7.20149 3.0408 7.12678C2.9721 7.05207 2.93349 6.95075 2.93345 6.84509H2.93339ZM11.2034 9.19713H3.2998C3.20264 9.19713 3.10946 9.15516 3.04075 9.08043C2.97205 9.00571 2.93345 8.90437 2.93345 8.7987C2.93345 8.69302 2.97205 8.59168 3.04075 8.51696C3.10946 8.44224 3.20264 8.40026 3.2998 8.40026H11.2034C11.3005 8.40026 11.3937 8.44224 11.4624 8.51696C11.5311 8.59168 11.5697 8.69302 11.5697 8.7987C11.5697 8.90437 11.5311 9.00571 11.4624 9.08043C11.3937 9.15516 11.3005 9.19713 11.2034 9.19713ZM0.732661 13.4021V11.0695C0.732742 11.0079 0.755283 10.9488 0.795342 10.9053C0.835402 10.8617 0.889711 10.8372 0.946363 10.8371H8.98909C9.04575 10.8372 9.10007 10.8617 9.14014 10.9052C9.1802 10.9488 9.20274 11.0079 9.20279 11.0695V13.4021C9.20279 13.4638 9.18028 13.5229 9.1402 13.5665C9.10012 13.6101 9.04577 13.6346 8.98909 13.6346H0.946394C0.889734 13.6345 0.835411 13.61 0.795346 13.5664C0.755282 13.5228 0.732748 13.4638 0.732692 13.4021L0.732661 13.4021ZM2.2356 1.45526V10.0402H8.98909C9.24001 10.0405 9.48057 10.1491 9.65799 10.342C9.83541 10.535 9.93521 10.7966 9.93548 11.0695V13.4021C9.93529 13.6751 9.83552 13.9367 9.65808 14.1297C9.48064 14.3227 9.24003 14.4312 8.98909 14.4314H2.2356V15.5447C2.23572 15.7193 2.29954 15.8867 2.41303 16.0102C2.52653 16.1336 2.68043 16.2031 2.84095 16.2033H11.6623C11.8228 16.2031 11.9767 16.1337 12.0902 16.0102C12.2037 15.8867 12.2675 15.7193 12.2676 15.5447V5.39644H9.37653C9.20388 5.39657 9.03286 5.36013 8.87302 5.28916C8.87186 5.28916 8.87027 5.28962 8.86872 5.28962H3.2998C3.20264 5.28962 3.10946 5.24765 3.04075 5.17292C2.97205 5.0982 2.93345 4.99686 2.93345 4.89119C2.93345 4.78551 2.97205 4.68417 3.04075 4.60945C3.10946 4.53473 3.20264 4.49275 3.2998 4.49275H8.13862C8.07242 4.31785 8.03841 4.13052 8.03852 3.94138V3.33545H3.2998C3.20264 3.33545 3.10946 3.29347 3.04075 3.21875C2.97205 3.14403 2.93345 3.04269 2.93345 2.93702C2.93345 2.83134 2.97205 2.73 3.04075 2.65528C3.10946 2.58056 3.20264 2.53858 3.2998 2.53858H8.03848V0.796875H2.84095C2.68046 0.797095 2.52661 0.866531 2.41312 0.989954C2.29964 1.11338 2.2358 1.28071 2.2356 1.45526ZM8.77118 3.94121V1.35499L11.7853 4.5996H9.37653C9.21602 4.59943 9.06212 4.53001 8.94861 4.40658C8.8351 4.28315 8.77124 4.11579 8.77106 3.94121H8.77118ZM2.84095 17H11.6623C12.017 16.9997 12.3572 16.8463 12.608 16.5734C12.8589 16.3005 12.9998 15.9305 13 15.5446V4.95281C13 4.9002 12.9904 4.84811 12.9719 4.79952C12.9534 4.75092 12.9262 4.70678 12.892 4.66962L8.66127 0.115148C8.59259 0.0413267 8.4999 -5.03517e-05 8.40333 4.59848e-08H2.84098C2.48622 0.000395568 2.14609 0.153843 1.89523 0.426671C1.64437 0.699498 1.50328 1.06942 1.5029 1.45526V10.0402H0.946394C0.695481 10.0405 0.454927 10.1491 0.277505 10.342C0.100083 10.535 0.00028281 10.7966 0 11.0695V13.4021C0.000202124 13.6751 0.0999761 13.9367 0.277416 14.1297C0.454855 14.3227 0.695457 14.4312 0.946394 14.4314H1.5029V15.5447C1.50329 15.9305 1.64439 16.3004 1.89524 16.5733C2.14609 16.8461 2.4862 16.9995 2.84095 16.9999V17Z" fill="white"/>
</svg>
