<svg width="100%" height="100%" viewBox="0 0 11 13" fill="none" xmlns="http://www.w3.org/2000/svg">
<path d="M9.5582 12.6H1.5514C0.6794 12.6 0 11.9002 0 11.1024V1.8852C0 0.8458 0.8576 0 2.0168 0H3.8788C4.9598 0 5.8 0.7752 5.8 1.8852V2.0714C5.8 2.1166 5.879 2.2 6.1132 2.2H9.5582C10.4392 2.2 11 3.045 11 3.8404V11.1024C11 11.9842 10.3568 12.6 9.5582 12.6ZM2.0168 0.6C1.2944 0.6 0.6 1.0914 0.6 1.8852V11.1024C0.6 11.616 1.0618 12 1.5514 12H9.5582C10.1166 12 10.4 11.5164 10.4 11.1024V3.8404C10.4 3.3362 10.0496 2.8 9.5582 2.8H6.1132C5.5254 2.8 5.2 2.5004 5.2 2.0714V1.8852C5.2 1.1044 4.6296 0.6 3.8788 0.6H2.0168Z" fill="white"/>
<path d="M9.48901 12.6H1.71461C1.54901 12.6 1.41461 12.4656 1.41461 12.3C1.41461 12.1344 1.54901 12 1.71461 12H1.93161C2.84381 12 3.00001 11.0524 3.00001 10.762V5.7026C3.00001 4.8564 3.81041 4.4 4.65301 4.4H9.48901C10.3684 4.4 11 4.899 11 5.7026V11.1024C11 11.956 10.3018 12.6 9.48901 12.6ZM3.16241 12H9.48901C9.96741 12 10.4 11.6224 10.4 11.1024V5.7026C10.4 5.2364 10.0368 5 9.48901 5H4.65301C4.18021 5 3.60001 5.218 3.60001 5.7026V10.762C3.60001 11.2646 3.38861 11.6872 3.16241 12Z" fill="white"/>
<path d="M8.5146 8.6H6.5146C6.349 8.6 6.2146 8.4656 6.2146 8.3C6.2146 8.1344 6.349 8 6.5146 8H8.5146C8.6802 8 8.8146 8.1344 8.8146 8.3C8.8146 8.4656 8.6802 8.6 8.5146 8.6Z" fill="white"/>
</svg>
