<svg width="100%" height="100%" viewBox="0 0 20 17" fill="none" xmlns="http://www.w3.org/2000/svg">
<path fill-rule="evenodd" clip-rule="evenodd" d="M9.80591 12.8048C9.80614 12.5829 9.89265 12.3701 10.0464 12.2132C10.2002 12.0563 10.4088 11.968 10.6263 11.9678H14.3766C14.5942 11.9678 14.8029 12.056 14.9568 12.213C15.1106 12.37 15.1971 12.5829 15.1971 12.805C15.1971 13.027 15.1106 13.2399 14.9568 13.3969C14.8029 13.5539 14.5942 13.6421 14.3766 13.6421H10.6263C10.5185 13.6422 10.4118 13.6207 10.3122 13.5786C10.2126 13.5366 10.1221 13.475 10.0459 13.3972C9.96973 13.3195 9.9093 13.2271 9.86812 13.1255C9.82693 13.0239 9.80579 12.915 9.80591 12.8051V12.8048ZM1.64067 2.52265C1.64181 2.45806 1.66746 2.39644 1.71223 2.35076C1.757 2.30508 1.81739 2.27891 1.88069 2.27776H6.93534C6.96692 2.27579 6.99855 2.28088 7.028 2.29268C7.05746 2.30448 7.08403 2.3227 7.10586 2.34607L9.70016 4.81762C10.049 5.15331 10.5111 5.33889 10.9906 5.33579H16.5306C16.5938 5.33696 16.6542 5.36314 16.6989 5.40883C16.7436 5.45451 16.7692 5.51612 16.7703 5.58068V6.69973H4.4164C4.14434 6.69842 3.87829 6.78125 3.6533 6.93731C3.42831 7.09337 3.25495 7.31532 3.15606 7.57392L1.64067 11.4781V2.52265ZM18.2246 8.37417H4.61024L2.06543 14.929H15.68L18.2246 8.37417ZM1.88069 16.6034H15.874C16.146 16.6046 16.412 16.5217 16.637 16.3657C16.8619 16.2096 17.0353 15.9877 17.1343 15.7292L19.9047 8.59344C19.9862 8.38357 20.0161 8.15656 19.9918 7.9322C19.9676 7.70783 19.8899 7.49292 19.7656 7.3062C19.6413 7.11947 19.4741 6.96661 19.2787 6.86092C19.0832 6.75523 18.8653 6.69994 18.6441 6.69985H18.4114V5.5808C18.4105 5.07211 18.2121 4.5845 17.8596 4.22479C17.507 3.86508 17.0291 3.6626 16.5306 3.66171H10.9906C10.959 3.66367 10.9274 3.65856 10.8979 3.64676C10.8685 3.63495 10.8419 3.61672 10.8201 3.59335L8.22552 1.12451C7.87787 0.78682 7.41532 0.600006 6.93534 0.603432H1.88069C1.38214 0.604402 0.904282 0.806926 0.551781 1.16665C0.19928 1.52637 0.000867331 2.01397 0 2.52265V14.6842C0.000403364 15.193 0.198667 15.6809 0.551268 16.0407C0.90387 16.4005 1.382 16.6029 1.88069 16.6034Z" fill="white"/>
</svg>
