<svg width="100%" height="100%" viewBox="0 0 17 15" fill="none" xmlns="http://www.w3.org/2000/svg">
<path d="M9.08648 3.3818C8.73985 3.3818 8.45239 3.66925 8.45239 4.01588V6.94114C8.45239 7.43996 8.69757 7.8965 9.11184 8.1755L11.2677 9.61276C11.3776 9.6804 11.496 9.72267 11.6228 9.72267C11.8257 9.72267 12.0286 9.62122 12.147 9.44367C12.3415 9.15622 12.2654 8.75886 11.9695 8.5644L9.81357 7.12714C9.75438 7.08487 9.72057 7.02569 9.72057 6.9496V4.02434C9.72057 3.67771 9.43311 3.39025 9.08648 3.39025V3.3818Z" fill="white"/>
<path d="M9.08647 0C5.51867 0 2.48351 2.5448 1.82406 5.99424L1.08006 5.25024C0.834881 5.00506 0.429066 5.00506 0.183885 5.25024C-0.0612951 5.49542 -0.0612951 5.90124 0.183885 6.14642L1.89169 7.83732C2.01006 7.95568 2.17069 8.02332 2.33978 8.02332C2.50887 8.02332 2.66951 7.95568 2.78787 7.83732L4.46186 6.14642C4.70704 5.90124 4.70704 5.49542 4.46186 5.25024C4.21668 5.00506 3.81086 5.00506 3.56568 5.25024L3.2275 5.58842C3.99686 3.06053 6.35567 1.25127 9.08647 1.25127C12.4683 1.25127 15.216 3.99898 15.216 7.38077C15.216 10.7626 12.4683 13.5103 9.08647 13.5103C7.21803 13.5103 5.46795 12.6733 4.30968 11.2107C4.08986 10.9401 3.6925 10.8894 3.42196 11.1092C3.15141 11.329 3.10069 11.7264 3.3205 11.9969C4.72395 13.7639 6.82912 14.77 9.09492 14.77C13.17 14.77 16.4926 11.4558 16.4926 7.37232C16.4926 3.2888 13.1615 0 9.08647 0Z" fill="white"/>
</svg>
