<svg width="100%" height="100%" viewBox="0 0 34 32" fill="none" xmlns="http://www.w3.org/2000/svg">
<path fill-rule="evenodd" clip-rule="evenodd" d="M22.3291 2.00754C19.2776 -0.669183 14.7061 -0.669177 11.6546 2.00754L0.915855 11.4276C-0.945624 13.0605 0.224566 16.1047 2.68306 16.1047C2.93226 16.1047 3.12422 16.3259 3.09056 16.571C2.65342 19.7539 2.38325 21.9811 2.29099 24.0154C2.08651 28.5243 6.05023 31.7334 10.2936 31.7334H23.7805C28.0037 31.7334 31.9737 28.5498 31.769 24.0505C31.6756 21.9975 31.3914 19.7639 30.9296 16.5625C30.895 16.3223 31.0828 16.1047 31.3269 16.1047C33.7763 16.1047 34.9422 13.0718 33.0876 11.445L22.3291 2.00754ZM13.1489 3.71167C15.3453 1.785 18.6384 1.785 20.8348 3.71167L31.5933 13.1491C31.8607 13.3836 31.705 13.838 31.3269 13.838C29.7004 13.838 28.4552 15.2815 28.6867 16.8861C29.1487 20.0897 29.4173 22.2237 29.5052 24.1536C29.6381 27.0768 27.016 29.4667 23.7805 29.4667H10.2936C7.04893 29.4667 4.42143 27.061 4.55491 24.1182C4.64195 22.1986 4.89831 20.064 5.33572 16.8794C5.5561 15.2745 4.3083 13.838 2.68306 13.838C2.29587 13.838 2.13592 13.3723 2.41014 13.1318L13.1489 3.71167Z" fill="white"/>
<path d="M11.901 26.0667C11.2752 26.0667 10.7679 25.5593 10.7679 24.9334C10.7679 24.3074 11.2752 23.8 11.901 23.8H22.099C22.7248 23.8 23.2322 24.3074 23.2322 24.9334C23.2322 25.5593 22.7248 26.0667 22.099 26.0667H11.901Z" fill="white"/>
</svg>
