<svg width="100%" height="100%" viewBox="0 0 12 12" fill="none" xmlns="http://www.w3.org/2000/svg">
<path d="M5.17385 0.399986C5.17385 0.179071 4.99475 -1.52588e-05 4.77385 -1.52588e-05H3.28896C1.69286 -1.52588e-05 0.311597 1.18119 0.159867 2.79277C0.128219 3.12889 0.101275 3.45609 0.0790286 3.77701C0.0631206 4.00652 0.246019 4.2 0.476078 4.2C0.688042 4.2 0.863029 4.03474 0.877741 3.82328C0.899409 3.51185 0.925611 3.19421 0.956345 2.86777C1.06728 1.68947 2.08284 0.799987 3.28896 0.799987H4.77385C4.99475 0.799987 5.17385 0.6209 5.17385 0.399986Z" fill="white"/>
<path fill-rule="evenodd" clip-rule="evenodd" d="M6.37386 0.400001C6.37386 0.620916 6.55294 0.800002 6.77386 0.800002H8.70626C9.90665 0.800002 10.9191 1.68088 11.0351 2.85201C11.183 4.34451 11.2315 5.654 11.1803 7.03348C9.85487 6.6214 8.3808 6.79228 7.15972 7.62412C5.4753 6.12092 3.13649 5.44307 0.800003 5.98474C0.800011 5.92582 0.800195 5.8669 0.800559 5.80798C0.801941 5.58398 0.621912 5.40001 0.397918 5.40001C0.180105 5.40001 0.00206456 5.57433 0.000640559 5.79216C-0.00656146 6.89442 0.0469707 7.9903 0.161079 9.20446C0.312623 10.817 1.69407 12 3.29151 12H8.70232C10.2924 12 11.6707 10.8276 11.8292 9.22256C12.0564 6.92144 12.0569 5.05063 11.8312 2.77313C11.6723 1.16954 10.2942 0 8.70626 0H6.77386C6.55294 0 6.37386 0.179086 6.37386 0.400001ZM0.811383 6.80574C0.832031 7.55138 0.880775 8.31246 0.957571 9.1296C1.06843 10.3092 2.08455 11.2 3.29151 11.2H8.528C7.50622 7.8733 4.12747 5.94272 0.811383 6.80574ZM9.33721 11.1154C10.244 10.868 10.9384 10.103 11.0331 9.14394C11.0766 8.7027 11.1117 8.27806 11.1382 7.86368C10.03 7.4555 8.78232 7.54862 7.73806 8.20176C8.46154 9.01038 9.01831 9.99583 9.33721 11.1154Z" fill="white"/>
<path fill-rule="evenodd" clip-rule="evenodd" d="M7.20001 2.99999C7.20001 2.22679 7.82681 1.59999 8.60002 1.59999C9.37322 1.59999 10 2.22679 10 2.99999C10 3.7732 9.37322 4.4 8.60002 4.4C7.82681 4.4 7.20001 3.7732 7.20001 2.99999ZM8.60002 2.39999C8.26864 2.39999 8.00001 2.66861 8.00001 2.99999C8.00001 3.33138 8.26864 3.6 8.60002 3.6C8.9314 3.6 9.20002 3.33138 9.20002 2.99999C9.20002 2.66861 8.9314 2.39999 8.60002 2.39999Z" fill="white"/>
</svg>
