<svg width="100%" height="100%" viewBox="0 0 20 18" fill="none" xmlns="http://www.w3.org/2000/svg">
<path d="M18.902 7.80853C17.8011 8.57921 16.7114 10.3608 15.7519 12.9598C15.2862 14.2305 14.9002 15.5291 14.5962 16.8479C14.5467 17.0843 14.4057 17.2914 14.2039 17.4242C14.0021 17.5569 13.756 17.6044 13.5193 17.5563C13.2827 17.5081 13.0747 17.3683 12.9407 17.1673C12.8068 16.9663 12.7579 16.7205 12.8046 16.4836C13.205 14.387 13.1643 9.49536 13.1276 7.48891C13.1135 6.13713 12.5922 4.83995 11.667 3.85436C10.7522 2.89217 9.56176 2.39039 8.13049 2.3617C7.45566 2.34703 6.78264 2.43706 6.13539 2.6286C4.98237 3.05031 4.26107 3.75427 3.93011 4.78118C3.39296 6.44932 3.86338 8.98824 5.29131 12.125C5.99897 13.6661 6.82227 15.1515 7.75416 16.5683C7.86898 16.7355 7.92495 16.9361 7.91327 17.1385C7.90159 17.341 7.82291 17.5338 7.68963 17.6867C7.55635 17.8395 7.37602 17.9437 7.17703 17.9828C6.97805 18.022 6.7717 17.9938 6.59046 17.9028C5.38406 17.3023 2.42143 16.7384 1.38118 16.573C1.14289 16.5336 0.929847 16.4016 0.788572 16.2058C0.647298 16.0099 0.589275 15.7661 0.627176 15.5275C0.665078 15.289 0.795824 15.0752 0.990857 14.9328C1.18589 14.7903 1.42936 14.7309 1.6681 14.7674C1.77152 14.7834 3.34625 15.0343 4.92432 15.4346C4.51996 14.7133 4.06823 13.8512 3.63918 12.9104C1.98705 9.28984 1.49928 6.36725 2.18923 4.22335C2.69835 2.64262 3.81867 1.52696 5.51818 0.909078L5.52819 0.909078C6.33021 0.657058 7.16638 0.530564 8.00705 0.53408L8.09246 0.53408C10.0362 0.554765 11.7317 1.26806 12.9941 2.59591C14.2333 3.913 14.9329 5.64728 14.9545 7.45555C14.9679 8.19954 14.9786 9.11702 14.9772 10.0979C15.85 8.30764 16.8129 7.03785 17.8518 6.31054C18.0504 6.17144 18.2962 6.11695 18.535 6.15906C18.7738 6.20117 18.9861 6.33642 19.1252 6.53507C19.2643 6.73371 19.3188 6.97948 19.2767 7.2183C19.2346 7.45712 19.0994 7.66943 18.9007 7.80853L18.902 7.80853Z" fill="white"/>
</svg>
