<svg width="100%" height="100%" viewBox="0 0 12 12" fill="none" xmlns="http://www.w3.org/2000/svg">
<path fill-rule="evenodd" clip-rule="evenodd" d="M12 9.33333V2.66667C12 1.194 10.806 0 9.33333 0H2.66667C1.194 0 0 1.194 0 2.66667V9.33333C0 10.806 1.194 12 2.66667 12H9.33333C10.806 12 12 10.806 12 9.33333ZM6.66667 10.6667H2.66667C1.93 10.6667 1.33333 10.07 1.33333 9.33333V6.66667H6.66667V10.6667ZM8 1.33333H9.33333C10.07 1.33333 10.6667 1.93 10.6667 2.66667V9.33333C10.6667 10.07 10.07 10.6667 9.33333 10.6667H8V1.33333ZM1.33333 5.33333V2.66667C1.33333 1.93 1.93 1.33333 2.66667 1.33333H6.66667V5.33333H1.33333Z" fill="white"/>
</svg>