<svg width="100%" height="100%" viewBox="0 0 12 10" fill="none" xmlns="http://www.w3.org/2000/svg">
<path d="M7 7.19999H0.6C0.268629 7.19999 0 6.93136 0 6.59999V6.19999C0 5.86862 0.268629 5.59999 0.6 5.59999H7C7.33137 5.59999 7.6 5.86862 7.6 6.19999V6.59999C7.6 6.93136 7.33137 7.19999 7 7.19999Z" fill="white"/>
<path d="M11.0001 9.99998H0.600061C0.26869 9.99998 6.10352e-05 9.73136 6.10352e-05 9.39998V8.99998C6.10352e-05 8.66861 0.26869 8.39998 0.600061 8.39998H11.0001C11.3314 8.39998 11.6001 8.66861 11.6001 8.99998V9.39998C11.6001 9.73136 11.3314 9.99998 11.0001 9.99998Z" fill="white"/>
<path d="M7 1.59999H0.6C0.268629 1.59999 0 1.33136 0 0.999991V0.599991C0 0.26862 0.268629 -9.05991e-06 0.6 -9.05991e-06H7C7.33137 -9.05991e-06 7.6 0.26862 7.6 0.599991V0.999991C7.6 1.33136 7.33137 1.59999 7 1.59999Z" fill="white"/>
<path d="M11.0001 4.39999H0.600061C0.26869 4.39999 6.10352e-05 4.13136 6.10352e-05 3.79999V3.39999C6.10352e-05 3.06862 0.26869 2.79999 0.600061 2.79999H11.0001C11.3314 2.79999 11.6001 3.06862 11.6001 3.39999V3.79999C11.6001 4.13136 11.3314 4.39999 11.0001 4.39999Z" fill="white"/>
</svg>
