<svg width="100%" height="100%" viewBox="0 0 15 15" fill="none" xmlns="http://www.w3.org/2000/svg">
<path d="M14.0197 0.956348C15.3282 2.26441 15.3282 4.369 14.0352 5.66206L11.7009 7.99629C11.5546 8.14267 11.3596 8.22335 11.1522 8.22335C10.9448 8.22335 10.7503 8.14267 10.6034 7.99629C10.3008 7.69372 10.3008 7.20184 10.6034 6.89926L12.9376 4.56502C13.6198 3.88229 13.6245 2.76663 12.9474 2.07873C12.2725 1.40426 11.1056 1.40323 10.441 2.06838L8.10674 4.40262C7.80468 4.70519 7.31177 4.70519 7.00971 4.40262C6.70713 4.10004 6.70713 3.60816 7.00971 3.30558L9.34394 0.971348C9.9703 0.344989 10.803 0 11.689 0C12.5668 0 13.3948 0.339817 14.0191 0.956866L14.0197 0.956348Z" fill="white"/>
<path d="M3.32449 14.999C4.2105 14.999 5.04271 14.654 5.66907 14.0276L8.00434 11.6929C8.30692 11.3903 8.30692 10.8984 8.00434 10.5959C7.70228 10.2933 7.20937 10.2933 6.90731 10.5959L4.57204 12.9306C3.90637 13.5958 2.74055 13.5942 2.06557 12.9203C1.38801 12.2324 1.39214 11.1167 2.0754 10.434L4.49963 8.01026C4.646 7.86388 4.72669 7.66889 4.72669 7.46148C4.72669 7.25408 4.646 7.0596 4.49963 6.91271C4.19757 6.61013 3.70465 6.61013 3.40259 6.91271L0.978363 9.33642C-0.314698 10.6295 -0.314698 12.7336 0.99388 14.0421C1.61817 14.6592 2.44625 14.999 3.32449 14.999Z" fill="white"/>
<path d="M4.37858 10.6274C4.52495 10.7738 4.71994 10.8545 4.92735 10.8545C5.13476 10.8545 5.32923 10.7738 5.47613 10.6274L10.636 5.46759C10.9385 5.16501 10.9385 4.67313 10.636 4.37056C10.3339 4.06798 9.84098 4.06798 9.53893 4.37056L4.37909 9.53039C4.07652 9.83296 4.07652 10.3248 4.37909 10.6274H4.37858Z" fill="white"/>
</svg>
