<svg width="100%" height="100%" viewBox="0 0 16 14" fill="none" xmlns="http://www.w3.org/2000/svg">
<path d="M1.77858 3.73333H2.223C2.46844 3.73333 2.66742 3.94227 2.66742 4.2C2.66742 4.45773 2.46844 4.66667 2.223 4.66667H0.445316C0.199863 4.66667 0.000895831 4.45773 0.000895831 4.2C0.000895831 3.94227 0.199863 3.73333 0.445316 3.73333H0.889736V0.933333H0.445316C0.199863 0.933333 0.000895831 0.724397 0.000895831 0.466667C0.000895831 0.208936 0.199863 0 0.445316 0H1.33416C1.5796 0 1.77858 0.208936 1.77858 0.466667V3.73333ZM0.889736 6.53333V7C0.889736 7.25769 0.690761 7.46667 0.445316 7.46667C0.199863 7.46667 0.000895831 7.25769 0.000895831 7V6.06667C0.000895831 5.80897 0.199863 5.6 0.445316 5.6H2.223C2.46844 5.6 2.66742 5.80897 2.66742 6.06667V7C2.66742 7.12376 2.62059 7.24248 2.53725 7.33003L1.51824 8.4H2.223C2.46844 8.4 2.66742 8.60897 2.66742 8.86667C2.66742 9.12436 2.46844 9.33333 2.223 9.33333H0.445316C0.0493732 9.33333 -0.148909 8.83064 0.131058 8.53664L1.77858 6.80671V6.53333H0.889736ZM0.445316 11.2C0.199863 11.2 0.000895831 10.991 0.000895831 10.7333C0.000895831 10.4756 0.199863 10.2667 0.445316 10.2667H2.223C2.46844 10.2667 2.66742 10.4756 2.66742 10.7333V11.6667C2.66742 11.7904 2.62059 11.9091 2.53725 11.9967L2.40708 12.1333L2.53725 12.27C2.62059 12.3575 2.66742 12.4762 2.66742 12.6V13.5333C2.66742 13.791 2.46844 14 2.223 14H0.445316C0.199863 14 0.000895831 13.791 0.000895831 13.5333C0.000895831 13.2756 0.199863 13.0667 0.445316 13.0667H1.77858V12.7933L1.46432 12.4634C1.29076 12.2811 1.29076 11.9856 1.46432 11.8033L1.77858 11.4734V11.2H0.445316ZM4.88952 12.1333C4.64407 12.1333 4.4451 11.9244 4.4451 11.6667C4.4451 11.409 4.64407 11.2 4.88952 11.2H15.5556C15.8011 11.2 16 11.409 16 11.6667C16 11.9244 15.8011 12.1333 15.5556 12.1333H4.88952ZM4.88952 7.46667C4.64407 7.46667 4.4451 7.25769 4.4451 7C4.4451 6.74231 4.64407 6.53333 4.88952 6.53333H15.5556C15.8011 6.53333 16 6.74231 16 7C16 7.25769 15.8011 7.46667 15.5556 7.46667H4.88952ZM4.88952 2.8C4.64407 2.8 4.4451 2.59106 4.4451 2.33333C4.4451 2.0756 4.64407 1.86667 4.88952 1.86667H15.5556C15.8011 1.86667 16 2.0756 16 2.33333C16 2.59106 15.8011 2.8 15.5556 2.8H4.88952Z" fill="white"/>
</svg>
