<svg width="100%" height="100%" viewBox="0 0 14 14" fill="none" xmlns="http://www.w3.org/2000/svg">
<path d="M5.08541 13.9995C4.88521 14.0004 4.68833 13.9484 4.51458 13.849C4.34083 13.7495 4.19634 13.6061 4.09567 13.433L2.92362 11.395H2.44178C1.79418 11.395 1.1731 11.1377 0.71518 10.6798C0.257258 10.2219 0 9.60078 0 8.95318V2.44178C0 1.79418 0.257258 1.1731 0.71518 0.71518C1.1731 0.257258 1.79418 0 2.44178 0H11.5577C12.2053 0 12.8264 0.257258 13.2843 0.71518C13.7423 1.1731 13.9995 1.79418 13.9995 2.44178V8.95318C13.9995 9.60078 13.7423 10.2219 13.2843 10.6798C12.8264 11.1377 12.2053 11.395 11.5577 11.395H7.2472L6.06863 13.433C5.96953 13.606 5.8263 13.7496 5.65356 13.8491C5.48082 13.9486 5.28476 14.0005 5.08541 13.9995ZM2.44178 0.976711C2.05322 0.976711 1.68057 1.13107 1.40582 1.40582C1.13107 1.68057 0.976711 2.05322 0.976711 2.44178V8.95318C0.976711 9.34174 1.13107 9.71439 1.40582 9.98914C1.68057 10.2639 2.05322 10.4183 2.44178 10.4183H3.20361C3.2892 10.4172 3.37352 10.439 3.44791 10.4813C3.5223 10.5236 3.58406 10.585 3.62685 10.6592L4.92913 12.9382C5.01378 13.0814 5.13099 13.0814 5.20913 12.9382L6.51141 10.6592C6.55567 10.5864 6.61776 10.526 6.69181 10.4839C6.76586 10.4417 6.84944 10.4191 6.93465 10.4183H11.5577C11.9463 10.4183 12.319 10.2639 12.5937 9.98914C12.8685 9.71439 13.0228 9.34174 13.0228 8.95318V2.44178C13.0228 2.05322 12.8685 1.68057 12.5937 1.40582C12.319 1.13107 11.9463 0.976711 11.5577 0.976711H2.44178ZM11.395 3.09292C11.3933 2.96392 11.3413 2.84068 11.2501 2.74946C11.1588 2.65824 11.0356 2.60625 10.9066 2.60456H3.09292C2.9634 2.60456 2.83918 2.65601 2.7476 2.7476C2.65601 2.83918 2.60456 2.9634 2.60456 3.09292C2.60456 3.22244 2.65601 3.34665 2.7476 3.43824C2.83918 3.52982 2.9634 3.58127 3.09292 3.58127H10.9066C11.0356 3.57959 11.1588 3.52759 11.2501 3.43637C11.3413 3.34515 11.3933 3.22191 11.395 3.09292ZM11.395 5.69748C11.3933 5.56848 11.3413 5.44525 11.2501 5.35403C11.1588 5.2628 11.0356 5.21081 10.9066 5.20913H3.09292C2.9634 5.20913 2.83918 5.26058 2.7476 5.35216C2.65601 5.44375 2.60456 5.56796 2.60456 5.69748C2.60456 5.827 2.65601 5.95122 2.7476 6.0428C2.83918 6.13438 2.9634 6.18584 3.09292 6.18584H10.9066C11.0356 6.18415 11.1588 6.13216 11.2501 6.04094C11.3413 5.94971 11.3933 5.82648 11.395 5.69748ZM11.395 8.30204C11.3933 8.17305 11.3413 8.04981 11.2501 7.95859C11.1588 7.86737 11.0356 7.81537 10.9066 7.81369H3.09292C2.9634 7.81369 2.83918 7.86514 2.7476 7.95672C2.65601 8.04831 2.60456 8.17252 2.60456 8.30204C2.60456 8.43156 2.65601 8.55578 2.7476 8.64736C2.83918 8.73895 2.9634 8.7904 3.09292 8.7904H10.9066C11.0356 8.78871 11.1588 8.73672 11.2501 8.6455C11.3413 8.55428 11.3933 8.43104 11.395 8.30204Z" fill="white"/>
</svg>
