<svg width="100%" height="100%" viewBox="0 0 15 14" fill="none" xmlns="http://www.w3.org/2000/svg">
<path d="M10.6968 8.56814C10.2663 8.99859 9.83586 9.42904 9.40371 9.86118C8.71737 10.5475 8.03102 11.2339 7.34468 11.9202C7.18707 12.0778 7.03116 12.2337 6.87356 12.3913C7.2735 12.3913 7.67175 12.3913 8.0717 12.3913C7.64125 11.9609 7.2108 11.5304 6.77865 11.0983L4.71962 9.03926C4.56201 8.88166 4.4061 8.72574 4.24849 8.56814C4.09428 8.41392 3.86719 8.32072 3.64858 8.32072C3.44013 8.32072 3.19271 8.41223 3.04866 8.56814C2.90122 8.72913 2.79107 8.94097 2.80124 9.16806C2.81141 9.39345 2.88767 9.60528 3.04866 9.76797C3.47911 10.1984 3.90956 10.6289 4.3417 11.061C5.02805 11.7474 5.71439 12.4337 6.40074 13.1201C6.55834 13.2777 6.71426 13.4336 6.87186 13.5912C7.19555 13.9149 7.74632 13.9149 8.07 13.5912C8.50045 13.1607 8.9309 12.7303 9.36304 12.2981C10.0494 11.6118 10.7357 10.9254 11.4221 10.2391C11.5797 10.0815 11.7356 9.92558 11.8932 9.76797C12.0474 9.61376 12.1406 9.38667 12.1406 9.16806C12.1406 8.95961 12.0491 8.71219 11.8932 8.56814C11.7322 8.4207 11.5204 8.31055 11.2933 8.32072C11.0713 8.33088 10.8594 8.40714 10.6968 8.56814Z" fill="white"/>
<path d="M6.62777 4.58903C6.62777 4.86865 6.62777 5.14827 6.62777 5.42789C6.62777 6.0956 6.62777 6.7633 6.62777 7.43101C6.62777 8.24106 6.62777 9.05112 6.62777 9.86288C6.62777 10.5611 6.62777 11.2593 6.62777 11.9575C6.62777 12.2964 6.62268 12.6371 6.62777 12.976C6.62777 12.9811 6.62777 12.9862 6.62777 12.9913C6.62777 13.2082 6.72267 13.437 6.87519 13.5912C7.02263 13.7386 7.26327 13.8488 7.47511 13.8386C7.69372 13.8284 7.92081 13.7573 8.07502 13.5912C8.22755 13.4251 8.32245 13.2217 8.32245 12.9913L8.32245 12.1524L8.32245 10.1493L8.32245 7.71741L8.32245 5.62278C8.32245 5.28385 8.32753 4.94322 8.32245 4.60428L8.32245 4.58903C8.32245 4.37211 8.22755 4.14332 8.07502 3.98911C7.92759 3.84167 7.68694 3.73152 7.47511 3.74169C7.25649 3.75185 7.02941 3.82303 6.87519 3.98911C6.72436 4.15519 6.62777 4.35855 6.62777 4.58903Z" fill="white"/>
<path d="M1.68617 3.5756L1.68617 2.57235L1.68617 2.03344C1.68617 1.89109 1.676 1.74195 1.69464 1.60129C1.68447 1.67586 1.6743 1.75212 1.66414 1.82669C1.676 1.75043 1.69634 1.67756 1.72515 1.60638C1.69634 1.67417 1.66753 1.74195 1.64041 1.80805C1.67092 1.73856 1.7082 1.67586 1.75396 1.61485C1.70989 1.67247 1.66583 1.7284 1.62177 1.78601C1.66922 1.7267 1.72006 1.67586 1.77938 1.62841C1.72176 1.67247 1.66583 1.71653 1.60821 1.76059C1.66922 1.71484 1.73192 1.67756 1.80141 1.64705C1.73362 1.67586 1.66583 1.70467 1.59974 1.73179C1.67091 1.70298 1.74379 1.68264 1.82005 1.67078C1.74548 1.68094 1.66922 1.69111 1.59465 1.70128C1.72684 1.68433 1.86411 1.69281 1.99629 1.69281C2.27422 1.69281 2.55215 1.69281 2.83008 1.69281C3.24358 1.69281 3.65878 1.69281 4.07228 1.69281C4.58068 1.69281 5.08739 1.69281 5.5958 1.69281C6.15335 1.69281 6.7109 1.69281 7.26675 1.69281C7.83278 1.69281 8.39711 1.69281 8.96313 1.69281C9.48679 1.69281 10.0104 1.69281 10.5341 1.69281C10.9747 1.69281 11.417 1.69281 11.8576 1.69281C12.1729 1.69281 12.4864 1.69281 12.8016 1.69281C12.9456 1.69281 13.0897 1.69281 13.2337 1.69281C13.2778 1.69281 13.3202 1.6962 13.3642 1.70128C13.2897 1.69111 13.2134 1.68095 13.1388 1.67078C13.2151 1.68264 13.288 1.70298 13.3591 1.73179C13.2913 1.70298 13.2236 1.67417 13.1575 1.64705C13.2269 1.67756 13.2897 1.71484 13.3507 1.7606C13.293 1.71653 13.2371 1.67247 13.1795 1.62841C13.2388 1.67586 13.2897 1.7267 13.3371 1.78602C13.293 1.7284 13.249 1.67247 13.2049 1.61485C13.2507 1.67586 13.288 1.73857 13.3185 1.80805C13.2897 1.74026 13.2608 1.67247 13.2337 1.60638C13.2625 1.67756 13.2829 1.75043 13.2947 1.82669C13.2846 1.75212 13.2744 1.67586 13.2642 1.6013C13.2795 1.71992 13.2727 1.84194 13.2727 1.96057C13.2727 2.18766 13.2727 2.41474 13.2727 2.64183C13.2727 3.16718 13.2727 2.67742 13.2727 3.20277C13.2727 3.32648 13.2727 3.45189 13.2727 3.5756C13.2727 3.79252 13.3676 4.0213 13.5201 4.17552C13.6676 4.32295 13.9082 4.43311 14.12 4.42294C14.3387 4.41277 14.5657 4.3416 14.72 4.17552C14.8725 4.00944 14.9674 3.80608 14.9674 3.5756L14.9674 2.57065C14.9674 2.29103 14.9691 2.0131 14.9674 1.73348C14.9674 1.59113 14.9471 1.44538 14.9165 1.30642C14.8555 1.0268 14.7047 0.786154 14.5234 0.57093C14.2149 0.203184 13.7218 0.00660027 13.249 0.00151619C12.9778 -0.00187319 12.705 0.00151614 12.4338 0.00151612L10.429 0.00151595L7.81414 0.00151572L5.13145 0.00151548L2.93006 0.00151529L1.77599 0.00151519L1.71667 0.00151518C1.43197 0.00490452 1.18454 0.0743868 0.930339 0.194709C0.835437 0.240465 0.755787 0.299779 0.672748 0.365872C0.582929 0.435353 0.501585 0.501446 0.430408 0.58957C0.254161 0.808184 0.0999454 1.04883 0.0457156 1.33015C0.0202954 1.46403 -4.07614e-05 1.60299 -4.07734e-05 1.74026C-4.07822e-05 1.84025 -4.07909e-05 1.94023 -4.07996e-05 2.04022C-4.08687e-05 2.82994 -4.08487e-05 2.60116 -4.09177e-05 3.39088C-4.0923e-05 3.45189 -4.09285e-05 3.51459 -4.09339e-05 3.5756C-4.09528e-05 3.79252 0.0948611 4.0213 0.247382 4.17552C0.39482 4.32295 0.635465 4.43311 0.847301 4.42294C1.06591 4.41277 1.293 4.34159 1.44722 4.17552C1.58957 4.00944 1.68617 3.80608 1.68617 3.5756Z" fill="white"/>
</svg>
