<svg width="100%" height="100%" viewBox="0 0 15 15" fill="none" xmlns="http://www.w3.org/2000/svg">
<path d="M1.54861 13.1301C1.52261 13.13 1.49669 13.1271 1.47134 13.1213C1.39688 13.1038 1.33051 13.0617 1.28301 13.0018C1.2355 12.9419 1.20967 12.8676 1.20969 12.7912V10.8134C1.20025 8.82564 1.87469 6.89505 3.11985 5.34553C4.36502 3.79601 6.10518 2.72182 8.04842 2.30316V1.22811C8.0476 0.998823 8.11121 0.773921 8.232 0.579035C8.3528 0.384149 8.52591 0.22712 8.73162 0.125845C8.93733 0.0245699 9.16735 -0.0168762 9.39546 0.00623074C9.62358 0.0293377 9.84062 0.116068 10.0218 0.256536L13.8053 3.19678C13.9532 3.3124 14.0729 3.46019 14.1552 3.62894C14.2374 3.7977 14.2802 3.98298 14.2802 4.17072C14.2802 4.35847 14.2374 4.54375 14.1552 4.7125C14.0729 4.88125 13.9532 5.02905 13.8053 5.14467L10.0223 8.0883C9.84081 8.229 9.6234 8.31581 9.39492 8.33881C9.16644 8.36181 8.93609 8.32006 8.73021 8.21835C8.52433 8.11663 8.35121 7.95905 8.23065 7.76361C8.11009 7.56816 8.04694 7.34274 8.04842 7.11311V6.50577C7.29545 6.70828 6.5765 7.02082 5.9148 7.43328C4.65458 8.2192 3.63762 9.33997 2.9775 10.6704L1.85274 12.9416C1.82467 12.9983 1.78131 13.0459 1.72756 13.0792C1.67382 13.1125 1.61184 13.1302 1.54861 13.1301ZM9.27418 0.674989C9.12826 0.675945 8.98866 0.734692 8.88596 0.838364C8.78326 0.942035 8.72584 1.08218 8.72626 1.22811V2.5822C8.72627 2.6618 8.69827 2.73885 8.64717 2.79987C8.59607 2.86089 8.52512 2.90197 8.44676 2.91593C6.59938 3.25101 4.92917 4.2264 3.72959 5.67073C2.53001 7.11506 1.87779 8.93594 1.88753 10.8134V11.3435L2.37038 10.3681C3.0864 8.92506 4.18939 7.70942 5.55623 6.85689C6.40458 6.32804 7.33873 5.95131 8.31662 5.74365C8.36597 5.73323 8.41703 5.73395 8.46606 5.74576C8.5151 5.75758 8.56088 5.78019 8.60006 5.81195C8.63925 5.84371 8.67085 5.88382 8.69257 5.92935C8.71428 5.97487 8.72556 6.02467 8.72558 6.07511V7.11243C8.72381 7.21648 8.75192 7.31886 8.80659 7.40741C8.86126 7.49596 8.94018 7.56697 9.034 7.612C9.12507 7.65774 9.22734 7.6764 9.3287 7.66579C9.43006 7.65518 9.52625 7.61573 9.60587 7.55213L13.3893 4.6094C13.4559 4.55795 13.5097 4.49187 13.5465 4.41629C13.5834 4.3407 13.6024 4.25764 13.602 4.17355C13.6026 4.08844 13.5836 4.00434 13.5465 3.92774C13.5094 3.85115 13.4551 3.78411 13.388 3.73182L9.6061 0.791352C9.51159 0.716518 9.39472 0.675545 9.27418 0.674989Z" fill="white"/>
<path d="M11.5251 14.4577H1.24542C0.914245 14.4562 0.597173 14.3235 0.363715 14.0886C0.130257 13.8537 -0.0005382 13.5358 3.48307e-06 13.2046V2.84408C-0.000777816 2.51274 0.129911 2.19463 0.363395 1.95953C0.596879 1.72444 0.914088 1.59157 1.24542 1.59007H6.38525C6.47514 1.59007 6.56135 1.62578 6.62491 1.68934C6.68847 1.7529 6.72417 1.83911 6.72417 1.92899C6.72417 2.01888 6.68847 2.10509 6.62491 2.16865C6.56135 2.2322 6.47514 2.26791 6.38525 2.26791H1.24542C1.09379 2.26917 0.94885 2.33055 0.842433 2.43857C0.736017 2.5466 0.67682 2.69244 0.677843 2.84408V13.2046C0.677061 13.3561 0.736363 13.5017 0.842754 13.6096C0.949145 13.7174 1.09395 13.7786 1.24542 13.7799H11.526C11.6775 13.7788 11.8225 13.7176 11.929 13.6097C12.0354 13.5019 12.0948 13.3562 12.094 13.2046V8.0239C12.094 7.93402 12.1297 7.84781 12.1933 7.78425C12.2568 7.72069 12.3431 7.68498 12.4329 7.68498C12.5228 7.68498 12.609 7.72069 12.6726 7.78425C12.7362 7.84781 12.7719 7.93402 12.7719 8.0239V13.2046C12.7724 13.536 12.6414 13.8541 12.4077 14.0891C12.1739 14.324 11.8565 14.4566 11.5251 14.4577Z" fill="white"/>
</svg>
