<svg width="100%" height="100%" viewBox="0 0 11 16" fill="none" xmlns="http://www.w3.org/2000/svg">
<path d="M10.0971 4.50178L8.05544 1.66678C7.65411 1.10989 7.00545 0.777779 6.32022 0.777779H4.18056C3.49456 0.777779 2.84589 1.10989 2.44456 1.66678L0.403667 4.50178C0.14 4.86811 0 5.30056 0 5.75167V13.0278C0 14.2077 0.959 15.1667 2.13889 15.1667H8.36111C9.541 15.1667 10.5 14.2077 10.5 13.0278V5.75167C10.5 5.30056 10.3608 4.86811 10.0971 4.50178ZM9.33333 13.0278C9.33333 13.5637 8.897 14 8.36111 14H2.13889C1.603 14 1.16667 13.5637 1.16667 13.0278V5.75167C1.16667 5.54633 1.23044 5.35033 1.35022 5.18389L3.39111 2.34889C3.57389 2.09533 3.86867 1.94445 4.18056 1.94445H6.32022C6.63211 1.94445 6.92689 2.09533 7.10889 2.34889L9.15056 5.18389C9.27033 5.35033 9.33333 5.54633 9.33333 5.75167V13.0278Z" fill="white"/>
<path d="M5.83331 3.97989V0.583333C5.83331 0.261333 5.57197 0 5.24997 0C4.92797 0 4.66664 0.261333 4.66664 0.583333V3.97989C3.77142 4.23578 3.11108 5.05167 3.11108 6.02778C3.11108 7.20767 4.07008 8.16667 5.24997 8.16667C6.42986 8.16667 7.38886 7.20767 7.38886 6.02778C7.38886 5.05167 6.72853 4.23578 5.83331 3.97989ZM5.24997 7C4.71408 7 4.27775 6.56367 4.27775 6.02778C4.27775 5.49189 4.71408 5.05556 5.24997 5.05556C5.78586 5.05556 6.22219 5.49189 6.22219 6.02778C6.22219 6.56367 5.78586 7 5.24997 7Z" fill="white"/>
</svg>
