<svg width="100%" height="100%" viewBox="0 0 18 17" fill="none" xmlns="http://www.w3.org/2000/svg">
<path d="M5.1365 6.33878C5.65414 5.82114 6.17178 5.3035 6.69145 4.78383C7.51682 3.95846 8.34218 3.1331 9.16755 2.30773C9.35708 2.1182 9.54457 1.93071 9.7341 1.74118C9.25314 1.74118 8.77423 1.74118 8.29327 1.74118C8.81091 2.25882 9.32855 2.77646 9.84822 3.29613L12.3243 5.77223C12.5138 5.96176 12.7013 6.14925 12.8909 6.33878C13.0763 6.52423 13.3494 6.63632 13.6123 6.63632C13.863 6.63632 14.1605 6.52627 14.3337 6.33878C14.511 6.14517 14.6435 5.89043 14.6313 5.61735C14.619 5.3463 14.5273 5.09156 14.3337 4.89592C13.8161 4.37828 13.2985 3.86064 12.7788 3.34097C11.9534 2.5156 11.128 1.69023 10.3027 0.864869C10.1132 0.67534 9.92566 0.487849 9.73613 0.298321C9.34689 -0.0909259 8.68456 -0.0909259 8.29531 0.298321C7.77767 0.815958 7.26004 1.33359 6.74036 1.85327C5.915 2.67864 5.08963 3.504 4.26426 4.32937C4.07474 4.5189 3.88724 4.70639 3.69772 4.89592C3.51226 5.08137 3.40018 5.35445 3.40018 5.61735C3.40018 5.86801 3.51023 6.16555 3.69772 6.33878C3.89132 6.51608 4.14606 6.64854 4.41915 6.63632C4.68612 6.62409 4.94086 6.53238 5.1365 6.33878Z" fill="white"/>
<path d="M10.0296 11.1239C10.0296 10.7876 10.0296 10.4513 10.0296 10.1151C10.0296 9.31213 10.0296 8.50919 10.0296 7.70624C10.0296 6.7321 10.0296 5.75797 10.0296 4.78179C10.0296 3.94216 10.0296 3.10253 10.0296 2.2629C10.0296 1.85531 10.0357 1.44568 10.0296 1.03809C10.0296 1.03198 10.0296 1.02587 10.0296 1.01975C10.0296 0.758897 9.91549 0.483775 9.73207 0.298322C9.55477 0.121021 9.26538 -0.011445 9.01064 0.000782694C8.74775 0.0130103 8.47466 0.098604 8.28921 0.298322C8.10579 0.49804 7.99167 0.742593 7.99167 1.01975V2.02853V4.43738V7.36183V9.88072C7.99167 10.2883 7.98556 10.6979 7.99167 11.1055V11.1239C7.99167 11.3847 8.10579 11.6598 8.28921 11.8453C8.46651 12.0226 8.7559 12.1551 9.01064 12.1428C9.27353 12.1306 9.54662 12.045 9.73207 11.8453C9.91345 11.6456 10.0296 11.401 10.0296 11.1239Z" fill="white"/>
<path d="M15.9722 12.3426V13.549V14.1971C15.9722 14.3683 15.9845 14.5476 15.9621 14.7168C15.9743 14.6271 15.9865 14.5354 15.9987 14.4457C15.9845 14.5374 15.96 14.625 15.9254 14.7106C15.96 14.6291 15.9947 14.5476 16.0273 14.4681C15.9906 14.5517 15.9458 14.6271 15.8907 14.7005C15.9437 14.6312 15.9967 14.5639 16.0497 14.4946C15.9926 14.5659 15.9315 14.6271 15.8602 14.6841C15.9295 14.6312 15.9967 14.5782 16.066 14.5252C15.9926 14.5802 15.9172 14.625 15.8337 14.6617C15.9152 14.6271 15.9967 14.5924 16.0762 14.5598C15.9906 14.5945 15.903 14.6189 15.8113 14.6332C15.9009 14.621 15.9926 14.6087 16.0823 14.5965C15.9233 14.6169 15.7583 14.6067 15.5993 14.6067C15.2651 14.6067 14.9309 14.6067 14.5966 14.6067C14.0994 14.6067 13.6001 14.6067 13.1028 14.6067C12.4914 14.6067 11.8821 14.6067 11.2707 14.6067C10.6002 14.6067 9.92975 14.6067 9.26131 14.6067C8.58064 14.6067 7.902 14.6067 7.22133 14.6067C6.59161 14.6067 5.96188 14.6067 5.33216 14.6067C4.80229 14.6067 4.27039 14.6067 3.74053 14.6067C3.36147 14.6067 2.98445 14.6067 2.60539 14.6067C2.43217 14.6067 2.25894 14.6067 2.08572 14.6067C2.03273 14.6067 1.98178 14.6026 1.9288 14.5965C2.01847 14.6087 2.11017 14.621 2.19984 14.6332C2.10814 14.6189 2.02051 14.5945 1.93491 14.5598C2.01643 14.5945 2.09795 14.6291 2.17743 14.6617C2.09387 14.625 2.01847 14.5802 1.9451 14.5252C2.01439 14.5782 2.08164 14.6312 2.15093 14.6841C2.07961 14.6271 2.01847 14.5659 1.9614 14.4946C2.01439 14.5639 2.06738 14.6312 2.12036 14.7005C2.06534 14.6271 2.0205 14.5517 1.98382 14.4681C2.01847 14.5496 2.05311 14.6312 2.08572 14.7106C2.05107 14.625 2.02662 14.5374 2.01235 14.4457C2.02458 14.5354 2.03681 14.6271 2.04904 14.7168C2.03069 14.5741 2.03885 14.4274 2.03885 14.2847C2.03885 14.0116 2.03885 13.7385 2.03885 13.4655C2.03885 12.8337 2.03885 13.4227 2.03885 12.7909C2.03885 12.6421 2.03885 12.4913 2.03885 12.3426C2.03885 12.0817 1.92472 11.8066 1.74131 11.6211C1.56401 11.4438 1.27462 11.3114 1.01988 11.3236C0.756982 11.3358 0.483898 11.4214 0.298445 11.6211C0.11503 11.8208 0.000905752 12.0654 0.000905752 12.3426V13.5511C0.000905752 13.8873 -0.00113219 14.2215 0.000905752 14.5578C0.000905752 14.729 0.025361 14.9042 0.062044 15.0714C0.13541 15.4076 0.316787 15.697 0.534846 15.9558C0.905751 16.3981 1.49879 16.6345 2.06738 16.6406C2.39345 16.6446 2.72156 16.6406 3.04763 16.6406H5.45851H8.60305H11.8291H14.4764H15.8642H15.9356C16.2779 16.6365 16.5755 16.5529 16.8812 16.4082C16.9953 16.3532 17.0911 16.2819 17.1909 16.2024C17.299 16.1189 17.3968 16.0394 17.4824 15.9334C17.6943 15.6705 17.8798 15.3811 17.945 15.0428C17.9755 14.8818 18 14.7147 18 14.5496C18 14.4294 18 14.3092 18 14.1889C18 13.2392 18 13.5144 18 12.5647C18 12.4913 18 12.4159 18 12.3426C18 12.0817 17.8859 11.8066 17.7025 11.6211C17.5252 11.4438 17.2358 11.3114 16.981 11.3236C16.7181 11.3358 16.4451 11.4214 16.2596 11.6211C16.0884 11.8208 15.9722 12.0654 15.9722 12.3426Z" fill="white"/>
</svg>
